<svg width="193" height="77" viewBox="0 0 193 77" fill="none" xmlns="http://www.w3.org/2000/svg">
<path d="M16.2619 62.9719C14.4134 63.2974 12.6601 63.1938 11.0018 62.6609C9.36625 62.0956 7.96859 61.1044 6.80882 59.6873C5.64419 58.2427 4.86753 56.4168 4.47885 54.2097C4.18248 52.5268 4.14178 50.5997 4.35675 48.4286C4.84847 43.7909 6.28584 40.3236 8.66886 38.0266C11.0795 35.7247 13.8298 34.3017 16.9197 33.7576C19.7337 33.262 22.4517 33.8358 25.0735 35.479L26.1036 34.0602C26.6913 33.3594 27.214 32.8549 27.6717 32.5467C28.1294 32.2386 28.6894 32.0262 29.3515 31.9096C30.0688 31.7833 30.6798 31.8606 31.1843 32.1415C31.6841 32.3948 31.9849 32.8111 32.087 33.3905C32.1258 33.6112 32.1306 33.8806 32.1013 34.1986L31.5298 39.6753C31.4093 40.6067 31.1876 41.2857 30.8645 41.7124C30.569 42.1342 30.104 42.401 29.4695 42.5127C28.8073 42.6294 28.185 42.5683 27.6025 42.3295C27.0476 42.0859 26.3638 41.5948 25.5511 40.8561C24.4642 39.8529 23.5346 39.1775 22.7623 38.83C22.0127 38.45 21.2379 38.3304 20.4378 38.4713C19.1963 38.6899 18.1217 39.5334 17.2141 41.0017C16.3292 42.4375 15.7304 44.6905 15.4177 47.7607C15.2288 49.7566 15.2558 51.4443 15.4987 52.8237C15.7562 54.2859 16.2289 55.3547 16.9167 56.03C17.6272 56.6728 18.4929 56.9044 19.5137 56.7246C20.3965 56.5691 21.036 56.2432 21.4321 55.7468C21.8558 55.2455 22.1157 54.4602 22.2119 53.3908L22.3194 52.3052C22.3601 51.7291 22.3635 51.3446 22.3295 51.1514C22.2712 50.8204 22.1471 50.6004 21.9573 50.4916C21.7951 50.378 21.5201 50.27 21.1322 50.1676L19.5891 49.8847C18.9108 49.7482 18.5134 49.3488 18.3968 48.6867C18.3628 48.4936 18.3499 48.3394 18.358 48.2242C18.4052 47.8461 18.5522 47.55 18.7989 47.3359C19.0732 47.1169 19.5139 46.954 20.1208 46.8471L32.6258 44.6876C33.5362 44.5272 34.0424 44.7367 34.1445 45.3161C34.1639 45.4265 34.1655 45.5968 34.1491 45.8273C34.1117 46.2605 33.9906 46.6232 33.7861 46.9152C33.5815 47.2072 33.2666 47.5187 32.8413 47.8496L31.8747 48.6598C31.6279 48.8739 31.4502 49.0759 31.3414 49.2657C31.2277 49.428 31.1627 49.6243 31.1464 49.8547L30.3014 57.8968C30.1858 58.8558 29.9754 59.5187 29.6702 59.8853C29.3926 60.2471 29.0055 60.4717 28.5089 60.5591L26.7708 60.8652C26.1087 60.9818 25.5326 60.9411 25.0426 60.7429C24.5802 60.5399 24.1406 60.0627 23.7238 59.3112L23.0986 58.1839C21.5204 60.8512 19.2414 62.4472 16.2619 62.9719ZM47.4489 34.6532C51.201 33.9924 54.0934 34.2652 56.1263 35.4717C58.1868 36.6732 59.4333 38.5017 59.8657 40.9571C60.0114 41.7848 60.0638 42.7284 60.0229 43.7881C59.8971 46.1427 59.2675 48.3015 58.1341 50.2647C56.9959 52.2002 55.461 53.8216 53.5294 55.1289C51.6206 56.4037 49.4523 57.2549 47.0245 57.6824C43.1897 58.3578 40.2144 58.0995 38.0988 56.9077C36.0059 55.6834 34.7359 53.8021 34.2889 51.264C34.1383 50.4087 34.081 49.4375 34.1171 48.3502C34.2623 46.106 34.9203 44.0275 36.091 42.1147C37.2844 40.1694 38.8631 38.5545 40.8271 37.27C42.8138 35.953 45.0211 35.0807 47.4489 34.6532ZM47.9734 38.3581C47.394 38.4601 46.8656 39.0936 46.3881 40.2586C45.9333 41.3911 45.5171 43.4698 45.1396 46.4944C44.762 49.5191 44.6753 51.6109 44.8793 52.7696C44.9862 53.3765 45.1557 53.7734 45.3877 53.9601C45.6148 54.1192 45.8939 54.1696 46.2249 54.1113C46.814 54.0644 47.3197 53.4634 47.7421 52.3081C48.192 51.148 48.6187 48.968 49.0223 45.768C49.4063 42.9413 49.4914 40.921 49.2776 39.7071C49.1756 39.1277 49.0085 38.7447 48.7766 38.558C48.5722 38.3664 48.3044 38.2998 47.9734 38.3581ZM77.4153 23.5306C81.5536 22.8018 84.812 23.0529 87.1906 24.2838C89.5642 25.4871 91.0207 27.6199 91.56 30.6823C91.8272 32.1996 91.8599 34.0001 91.6579 36.0836C91.3111 39.4443 90.5304 42.1986 89.3158 44.3467C88.1012 46.4948 86.3001 48.22 83.9126 49.5222C81.5526 50.8196 78.3976 51.8019 74.4476 52.4691L63.1841 54.41C62.6048 54.512 62.1463 54.4932 61.8088 54.3535C61.4438 54.2187 61.2321 53.9857 61.1738 53.6547C61.1446 53.4891 61.1544 53.3025 61.2032 53.0948C61.2422 52.832 61.3348 52.6308 61.4809 52.4913C61.5994 52.3566 61.7934 52.166 62.0629 51.9194C62.4605 51.5934 62.7568 51.2568 62.9517 50.9096C63.1741 50.5575 63.3236 50.0334 63.4001 49.3373L65.3151 30.6535C65.3623 30.2754 65.3567 29.9208 65.2984 29.5898C65.245 29.2863 65.1461 29.0477 65.0017 28.874C64.8801 28.6679 64.7122 28.4415 64.4981 28.1947C64.1866 27.8798 64.0115 27.612 63.9726 27.3913C63.958 27.3085 63.9589 27.1519 63.9752 26.9215C64.0224 26.5434 64.2132 26.2538 64.5475 26.0527C64.9046 25.8191 65.4694 25.6343 66.2419 25.4983L77.4153 23.5306ZM80.9035 37.0389C81.1641 34.3192 81.1632 32.2145 80.9009 30.7247C80.6434 29.2625 80.1626 28.309 79.4585 27.8641C78.7543 27.4192 77.8367 27.2964 76.7056 27.4956L75.7951 27.6559L73.7503 48.7519L74.7435 48.577C76.0126 48.3535 77.0286 47.9043 77.7915 47.2296C78.5772 46.5223 79.2161 45.3858 79.7084 43.82C80.1958 42.2266 80.5942 39.9662 80.9035 37.0389ZM110.877 23.4831C112.422 23.211 113.732 23.4638 114.808 24.2415C115.911 25.0143 116.584 26.0905 116.827 27.4699C116.919 27.9941 116.949 28.4866 116.917 28.9474C116.84 30.1272 116.469 31.0885 115.803 31.8315C115.138 32.5745 114.267 33.0407 113.191 33.2302C112.143 33.4148 111.299 33.3074 110.66 32.908C110.048 32.5037 109.462 31.9242 108.903 31.1694C108.599 30.7393 108.332 30.4309 108.1 30.2442C107.868 30.0575 107.628 29.986 107.379 30.0297C107.103 30.0783 106.875 30.2324 106.693 30.4919C106.538 30.7467 106.427 31.1645 106.359 31.7454L104.994 42.6523C104.963 42.8 104.972 43.0118 105.021 43.2876C105.084 43.6463 105.234 43.9328 105.471 44.1471C105.73 44.3289 106.059 44.4986 106.456 44.6561C106.826 44.8185 107.079 44.959 107.213 45.0775C107.348 45.196 107.421 45.3681 107.432 45.5936C107.44 45.962 107.279 46.2605 106.95 46.4892C106.648 46.7131 106.083 46.8978 105.256 47.0436L94.6616 48.9093C93.9443 49.0356 93.4144 49.0151 93.0721 48.8479C92.6973 48.6579 92.5173 48.3625 92.532 47.9616C92.5841 47.6111 92.8227 47.2705 93.248 46.9396C93.623 46.646 93.9217 46.3231 94.1441 45.9711C94.3666 45.619 94.5161 45.0949 94.5926 44.3988L96.1695 31.7905C96.2004 31.6428 96.1939 31.4448 96.1502 31.1965C96.0968 30.8931 95.9865 30.6707 95.8194 30.5295C95.6799 30.3834 95.4503 30.2105 95.1307 30.0108C94.816 29.8386 94.5889 29.6795 94.4493 29.5334C94.3098 29.3873 94.2572 29.169 94.2914 28.8786C94.3451 28.2149 95.117 27.5101 96.607 26.7641C98.0921 25.9906 99.6899 25.4532 101.4 25.152C102.532 24.9528 103.516 25.0497 104.353 25.4427C105.185 25.8081 105.794 26.4404 106.18 27.3395C107.16 25.1475 108.725 23.8621 110.877 23.4831ZM125.407 20.9243C127.007 20.6425 128.233 20.7395 129.085 21.2153C129.936 21.6911 130.455 22.4531 130.639 23.5015C130.751 24.1361 130.761 24.76 130.67 25.3734L129.042 38.4174C129.018 38.763 129.027 39.06 129.071 39.3083C129.134 39.6669 129.254 39.9445 129.431 40.1409C129.603 40.3097 129.83 40.4688 130.112 40.6182C130.339 40.7773 130.506 40.9186 130.614 41.0419C130.716 41.1377 130.756 41.287 130.735 41.4899C130.66 41.8728 130.431 42.1835 130.046 42.4219C129.661 42.6603 129.041 42.8548 128.186 43.0054L118.751 44.667C118.033 44.7934 117.49 44.7753 117.12 44.6129C116.745 44.4229 116.579 44.1251 116.621 43.7194C116.673 43.3689 116.912 43.0282 117.337 42.6973C117.712 42.4037 118.011 42.0809 118.233 41.7289C118.456 41.3768 118.605 40.8527 118.682 40.1566L120.176 27.5628C120.215 27.3 120.22 27.0858 120.191 26.9202C120.137 26.6167 120.027 26.3944 119.86 26.2532C119.688 26.0843 119.447 25.9276 119.137 25.7831C118.822 25.611 118.595 25.4519 118.456 25.3058C118.316 25.1597 118.264 24.9414 118.298 24.6509C118.351 23.9872 119.123 23.2824 120.613 22.5365C122.098 21.7629 123.696 21.2256 125.407 20.9243ZM126.569 11.2904C127.645 11.1009 128.605 11.3017 129.448 11.8927C130.287 12.4561 130.796 13.2481 130.976 14.2689C131.102 14.9862 131.033 15.7238 130.768 16.4815C130.531 17.2344 130.106 17.8923 129.495 18.4551C128.905 18.9856 128.197 19.3237 127.369 19.4694C126.321 19.654 125.377 19.4647 124.538 18.9013C123.722 18.3054 123.208 17.4857 122.996 16.4422C122.875 15.7525 122.935 15.045 123.177 14.3197C123.414 13.5668 123.825 12.9114 124.409 12.3534C124.994 11.7953 125.714 11.441 126.569 11.2904ZM158.144 31.8418C158.108 31.9618 158.109 32.1322 158.148 32.3529C158.182 32.5461 158.25 32.6905 158.353 32.7863C158.482 32.8772 158.63 32.9081 158.795 32.879C159.127 32.8206 159.378 32.6341 159.55 32.3194C159.745 31.9722 159.884 31.7913 159.967 31.7767C160.105 31.7524 160.232 31.8295 160.349 32.0081C160.461 32.159 160.539 32.3587 160.582 32.607C160.751 33.4022 160.627 34.2346 160.211 35.1043C159.791 35.9463 159.086 36.7104 158.098 37.3965C157.132 38.0501 155.904 38.5081 154.414 38.7705C152.594 39.0911 151.072 38.9324 149.851 38.2942C148.624 37.6284 147.873 36.5945 147.598 35.1923C147.418 34.1715 147.465 32.9829 147.738 31.6263L148.964 25.2663C149.039 24.8834 149.057 24.5816 149.018 24.3609C148.955 24.0022 148.782 23.7482 148.5 23.5988C148.24 23.417 147.945 23.3552 147.614 23.4135C147.007 23.5204 146.479 23.9121 146.029 24.5886C145.574 25.2376 145.296 25.9977 145.193 26.8691L144.114 35.7631C144.057 36.086 144.053 36.3854 144.102 36.6613C144.16 36.9923 144.278 37.2561 144.454 37.4525C144.626 37.6213 144.856 37.7942 145.143 37.9712C145.365 38.1027 145.53 38.2302 145.637 38.3536C145.744 38.4769 145.787 38.64 145.766 38.8429C145.719 39.2209 145.503 39.5292 145.118 39.7676C144.733 40.006 144.1 40.203 143.217 40.3584L133.781 42.02C133.064 42.1464 132.534 42.1259 132.192 41.9586C131.817 41.7686 131.637 41.4732 131.652 41.0724C131.704 40.7219 131.943 40.3812 132.368 40.0503C132.743 39.7567 133.042 39.4339 133.264 39.0819C133.486 38.7298 133.636 38.2057 133.712 37.5096L135.289 24.9013C135.32 24.7536 135.314 24.5556 135.27 24.3073C135.217 24.0038 135.106 23.7815 134.939 23.6402C134.8 23.4941 134.57 23.3212 134.251 23.1215C133.936 22.9494 133.709 22.7903 133.569 22.6442C133.43 22.4981 133.377 22.2798 133.411 21.9894C133.465 21.3257 134.237 20.6208 135.727 19.8749C137.212 19.1014 138.81 18.564 140.52 18.2628C141.9 18.0198 143.057 18.2142 143.994 18.8457C144.925 19.4497 145.468 20.435 145.623 21.8014C146.468 19.9744 147.471 18.6458 148.633 17.8153C149.791 16.9573 151.114 16.3971 152.604 16.1347C154.287 15.8384 155.729 16.1107 156.929 16.9517C158.157 17.7879 158.915 19.0198 159.201 20.6475C159.352 21.5028 159.362 22.3685 159.232 23.2448L158.144 31.8418ZM183.841 10.6338C185.413 10.3568 186.746 10.5772 187.84 11.2948C188.956 11.98 189.624 12.9434 189.842 14.1849C190.075 15.5091 189.858 16.6141 189.189 17.4999C188.52 18.3857 187.537 18.9428 186.24 19.1711C185.082 19.3752 184.134 19.2434 183.397 18.7758C182.656 18.2806 182.233 17.6581 182.13 16.9084C181.844 16.9018 181.629 17.0534 181.485 17.3633C181.34 17.6732 181.228 18.2476 181.148 19.0866C181.102 19.6351 180.925 20.164 180.617 20.6735C182.517 20.481 183.986 20.6633 185.023 21.2203C186.059 21.7772 186.677 22.6213 186.876 23.7524C186.974 24.3042 186.974 24.873 186.878 25.4588L186.773 26.7999C186.742 26.9476 186.746 27.1318 186.785 27.3525C186.853 27.7387 187.066 27.9003 187.425 27.8371C187.756 27.7788 188.008 27.5923 188.18 27.2775C188.375 26.9303 188.514 26.7494 188.596 26.7349C188.734 26.7106 188.862 26.7877 188.978 26.9662C189.09 27.1172 189.168 27.3168 189.212 27.5651C189.38 28.3603 189.271 29.1903 188.882 30.0551C188.517 30.8875 187.854 31.6443 186.893 32.3255C185.955 32.9743 184.754 33.4274 183.292 33.6849C181.527 33.9958 179.973 33.8144 178.631 33.1404C177.317 32.4617 176.533 31.405 176.281 29.9703C176.189 29.4462 176.194 28.8336 176.299 28.1326L176.72 25.925C176.771 25.4041 176.777 25.0333 176.738 24.8126C176.675 24.4539 176.504 24.2137 176.227 24.0919C175.977 23.9652 175.604 23.9456 175.107 24.0331L174.28 24.1788L173.489 30.5901C173.464 30.9357 173.474 31.2327 173.518 31.481C173.581 31.8396 173.701 32.1172 173.878 32.3136C174.049 32.4824 174.277 32.6415 174.559 32.7909C174.786 32.95 174.953 33.0913 175.06 33.2146C175.162 33.3104 175.203 33.4597 175.182 33.6626C175.107 34.0455 174.877 34.3562 174.493 34.5946C174.108 34.833 173.488 35.0275 172.633 35.1781L163.197 36.8397C162.48 36.9661 161.936 36.948 161.566 36.7856C161.192 36.5956 161.025 36.2978 161.068 35.8921C161.12 35.5416 161.359 35.2009 161.784 34.87C162.159 34.5764 162.457 34.2536 162.68 33.9015C162.902 33.5495 163.052 33.0254 163.128 32.3292L165.782 10.5714C165.821 10.3085 165.826 10.0943 165.797 9.92878C165.743 9.6253 165.617 9.39158 165.417 9.22761C165.245 9.05878 165.018 8.89967 164.736 8.75028C164.421 8.57815 164.18 8.42147 164.013 8.28023C163.874 8.13413 163.821 7.91585 163.855 7.62539C163.909 6.9617 164.681 6.25688 166.171 5.51094C167.661 4.765 169.261 4.24141 170.971 3.94018C172.572 3.65839 173.798 3.75538 174.649 4.23115C175.496 4.67933 176.012 5.4276 176.197 6.47597C176.308 7.11051 176.319 7.73447 176.228 8.34784L174.697 20.7347L176.063 20.4942C176.614 20.397 177.027 20.1537 177.299 19.7643C177.6 19.3701 177.791 18.8387 177.872 18.1702C178.202 16.0072 178.824 14.2905 179.738 13.0202C180.653 11.7499 182.02 10.9544 183.841 10.6338Z" fill="black"/>
<path d="M41.6117 66.6587H43.3904L41.4522 75H38.3242L36.3861 66.6587H38.1648L39.6122 73.528H40.1642L41.6117 66.6587ZM46.0985 73.0373C46.3439 73.4626 46.7977 73.6752 47.4601 73.6752C48.1225 73.6752 48.5723 73.4626 48.8095 73.0373C49.0548 72.6039 49.1775 71.8843 49.1775 70.8784C49.1775 69.8644 49.0548 69.1284 48.8095 68.6704C48.5641 68.2124 48.1144 67.9835 47.4601 67.9835C46.8059 67.9835 46.3561 68.2124 46.1108 68.6704C45.8655 69.1284 45.7428 69.8644 45.7428 70.8784C45.7428 71.8843 45.8614 72.6039 46.0985 73.0373ZM50.1343 74.1168C49.6191 74.8037 48.7277 75.1472 47.4601 75.1472C46.1926 75.1472 45.2971 74.8037 44.7737 74.1168C44.2585 73.4217 44.0009 72.3381 44.0009 70.8661C44.0009 69.3941 44.2585 68.3024 44.7737 67.5909C45.2971 66.8713 46.1926 66.5115 47.4601 66.5115C48.7277 66.5115 49.6191 66.8713 50.1343 67.5909C50.6576 68.3024 50.9193 69.3941 50.9193 70.8661C50.9193 72.3381 50.6576 73.4217 50.1343 74.1168ZM57.6579 74.8651C56.7911 75.0532 56.0101 75.1472 55.315 75.1472C54.6199 75.1472 54.0638 75.0613 53.6467 74.8896C53.2297 74.7179 52.9026 74.4439 52.6654 74.0677C52.4283 73.6916 52.2647 73.25 52.1747 72.7429C52.0848 72.2359 52.0398 71.598 52.0398 70.8293C52.0398 69.2183 52.2647 68.098 52.7145 67.4683C53.1724 66.8304 54.0107 66.5115 55.2291 66.5115C55.9324 66.5115 56.7461 66.6219 57.6702 66.8427L57.6211 68.192C56.8115 68.0693 56.1369 68.008 55.5971 68.008C55.0656 68.008 54.6853 68.0816 54.4563 68.2288C54.2274 68.3678 54.0556 68.6377 53.9411 69.0384C53.8348 69.4391 53.7817 70.122 53.7817 71.0869C53.7817 72.0519 53.8921 72.7225 54.1129 73.0987C54.3419 73.4667 54.7916 73.6507 55.4622 73.6507C56.141 73.6507 56.8606 73.5934 57.6211 73.4789L57.6579 74.8651ZM59.0314 75V66.6587H64.4288V68.1307H60.7242V70.0811H63.6928V71.5285H60.7242V73.528H64.4288V75H59.0314ZM59.4117 65.616L61.0554 63.7883H62.4906L64.1344 65.616H62.3925L61.7914 64.9291L61.1536 65.616H59.4117ZM68.5189 66.6587H71.7941C72.661 66.6587 73.3111 66.8345 73.7445 67.1861C74.178 67.5296 74.3947 68.0898 74.3947 68.8667C74.3947 69.3328 74.3252 69.7049 74.1861 69.9829C74.0471 70.2528 73.81 70.494 73.4747 70.7067C73.8427 70.862 74.1125 71.0869 74.2843 71.3813C74.4642 71.6757 74.5541 72.0846 74.5541 72.608C74.5541 73.4176 74.317 74.0187 73.8427 74.4112C73.3684 74.8037 72.7019 75 71.8432 75H68.5189V66.6587ZM71.7573 71.5163H70.2117V73.5525H71.7573C72.1253 73.5525 72.3952 73.4789 72.5669 73.3317C72.7468 73.1845 72.8368 72.9147 72.8368 72.5221C72.8368 71.8516 72.477 71.5163 71.7573 71.5163ZM71.7083 68.1061H70.2117V70.0933H71.7205C72.3584 70.0933 72.6773 69.7621 72.6773 69.0997C72.6773 68.4373 72.3543 68.1061 71.7083 68.1061ZM77.6867 72.2032V75H75.9939V66.6587H79.2323C81.195 66.6587 82.1763 67.5746 82.1763 69.4064C82.1763 70.494 81.7674 71.2955 80.9497 71.8107L82.1395 75H80.2873L79.3182 72.2032H77.6867ZM79.2569 70.7557C79.6576 70.7557 79.9561 70.6331 80.1523 70.3877C80.3486 70.1424 80.4467 69.8194 80.4467 69.4187C80.4467 69.018 80.3404 68.699 80.1278 68.4619C79.9234 68.2247 79.6249 68.1061 79.2323 68.1061H77.6867V70.7557H79.2569ZM83.6007 75V66.6587H85.2935V75H83.6007ZM87.1106 75V66.6587H89.9687L91.9805 73.528H92.1031V66.6587H93.7959V75H91.0114L88.9261 68.1307H88.8034V75H87.1106ZM98.4249 75H95.6158V66.6587H98.4249C99.1445 66.6587 99.7374 66.7364 100.204 66.8917C100.67 67.0389 101.029 67.2884 101.283 67.64C101.545 67.9835 101.725 68.3924 101.823 68.8667C101.921 69.3328 101.97 69.942 101.97 70.6944C101.97 71.4468 101.925 72.0724 101.835 72.5712C101.745 73.0619 101.573 73.5035 101.32 73.896C101.074 74.2804 100.715 74.5625 100.24 74.7424C99.766 74.9141 99.1609 75 98.4249 75ZM100.204 71.688C100.22 71.4263 100.228 71.0665 100.228 70.6085C100.228 70.1424 100.212 69.7703 100.179 69.4923C100.146 69.2142 100.069 68.9607 99.9459 68.7317C99.8233 68.5028 99.6393 68.3474 99.3939 68.2656C99.1568 68.1756 98.8338 68.1307 98.4249 68.1307H97.3086V73.528H98.4249C99.0382 73.528 99.4839 73.3726 99.7619 73.0619C99.9991 72.8084 100.146 72.3504 100.204 71.688ZM102.619 75L104.496 66.6587H107.71L109.587 75H107.894L107.563 73.4912H104.643L104.312 75H102.619ZM105.809 68.0571L104.962 72.0192H107.244L106.397 68.0571H105.809ZM116.46 72.5712H115.086V75H113.393V66.6587H116.46C118.439 66.6587 119.428 67.6236 119.428 69.5536C119.428 70.5268 119.175 71.275 118.668 71.7984C118.169 72.3136 117.433 72.5712 116.46 72.5712ZM115.086 71.1237H116.447C117.29 71.1237 117.711 70.6004 117.711 69.5536C117.711 69.0384 117.609 68.6704 117.404 68.4496C117.2 68.2206 116.881 68.1061 116.447 68.1061H115.086V71.1237ZM122.346 73.0373C122.591 73.4626 123.045 73.6752 123.708 73.6752C124.37 73.6752 124.82 73.4626 125.057 73.0373C125.302 72.6039 125.425 71.8843 125.425 70.8784C125.425 69.8644 125.302 69.1284 125.057 68.6704C124.812 68.2124 124.362 67.9835 123.708 67.9835C123.053 67.9835 122.604 68.2124 122.358 68.6704C122.113 69.1284 121.99 69.8644 121.99 70.8784C121.99 71.8843 122.109 72.6039 122.346 73.0373ZM126.382 74.1168C125.866 74.8037 124.975 75.1472 123.708 75.1472C122.44 75.1472 121.545 74.8037 121.021 74.1168C120.506 73.4217 120.248 72.3381 120.248 70.8661C120.248 69.3941 120.506 68.3024 121.021 67.5909C121.545 66.8713 122.44 66.5115 123.708 66.5115C124.975 66.5115 125.866 66.8713 126.382 67.5909C126.905 68.3024 127.167 69.3941 127.167 70.8661C127.167 72.3381 126.905 73.4217 126.382 74.1168ZM130.311 72.2032V75H128.618V66.6587H131.857C133.819 66.6587 134.801 67.5746 134.801 69.4064C134.801 70.494 134.392 71.2955 133.574 71.8107L134.764 75H132.912L131.943 72.2032H130.311ZM131.881 70.7557C132.282 70.7557 132.581 70.6331 132.777 70.3877C132.973 70.1424 133.071 69.8194 133.071 69.4187C133.071 69.018 132.965 68.699 132.752 68.4619C132.548 68.2247 132.249 68.1061 131.857 68.1061H130.311V70.7557H131.881ZM138.221 75L140.098 66.6587H143.312L145.189 75H143.496L143.165 73.4912H140.245L139.914 75H138.221ZM141.411 68.0571L140.564 72.0192H142.846L141.999 68.0571H141.411ZM149.271 75.1472C147.995 75.1472 147.1 74.8037 146.585 74.1168C146.069 73.4299 145.812 72.3504 145.812 70.8784C145.812 69.3982 146.069 68.3024 146.585 67.5909C147.108 66.8713 148.004 66.5115 149.271 66.5115C150.539 66.5115 151.43 66.8713 151.945 67.5909C152.469 68.3024 152.73 69.3982 152.73 70.8784C152.73 72.6939 152.301 73.9164 151.442 74.5461L152.46 76.1899L150.915 76.9136L149.811 75.1104C149.729 75.1349 149.549 75.1472 149.271 75.1472ZM147.909 73.0373C148.155 73.4626 148.609 73.6752 149.271 73.6752C149.933 73.6752 150.383 73.4626 150.62 73.0373C150.866 72.6121 150.988 71.8924 150.988 70.8784C150.988 69.8644 150.866 69.1284 150.62 68.6704C150.375 68.2124 149.925 67.9835 149.271 67.9835C148.617 67.9835 148.167 68.2124 147.922 68.6704C147.676 69.1284 147.554 69.8644 147.554 70.8784C147.554 71.8924 147.672 72.6121 147.909 73.0373ZM155.801 72.2155C155.801 73.1886 156.296 73.6752 157.285 73.6752C158.275 73.6752 158.77 73.1886 158.77 72.2155V66.6587H160.462V72.1787C160.462 73.2009 160.197 73.9532 159.665 74.4357C159.142 74.91 158.349 75.1472 157.285 75.1472C156.222 75.1472 155.425 74.91 154.893 74.4357C154.37 73.9532 154.108 73.2009 154.108 72.1787V66.6587H155.801V72.2155ZM162.208 75V66.6587H163.901V75H162.208Z" fill="black"/>
</svg>
