<svg width="186" height="191" viewBox="0 0 186 191" fill="none" xmlns="http://www.w3.org/2000/svg">
<path d="M89.3928 173.354C89.3928 183.099 82.5121 191 74.0242 191C65.5363 191 58.6556 183.099 58.6556 173.354C58.6556 163.608 65.5364 155.708 74.0243 155.708C82.5122 155.708 89.3928 163.608 89.3928 173.354ZM136.253 155.708C127.765 155.708 120.884 163.608 120.884 173.354C120.884 183.1 127.765 191 136.253 191C144.741 191 151.621 183.1 151.621 173.354C151.621 163.608 144.741 155.708 136.253 155.708ZM183.958 72.8698L165.047 137.406C165.047 137.406 163.482 146.983 155.506 146.983C147.531 146.983 69.5335 146.983 60.0153 146.983C50.4971 146.983 50.0971 134.979 50.0971 134.979C50.0971 134.979 39.9505 48.5459 39.4477 43.3242C38.9449 38.1025 33.1289 34.2323 33.1289 34.2323L8.1049 20.8108C-5.59543 12.5847 0.631967 -3.06711 8.1049 0.527729C39.8362 17.7145 54.5763 26.1768 55.5248 32.9465C56.4846 39.7294 58.1528 56.0635 58.1528 56.0635V56.1684C58.3471 56.1029 58.4842 56.0635 58.4842 56.0635C58.4842 56.0635 155.792 56.0635 175.446 56.0635C189.569 56.0635 183.958 72.8962 183.958 72.8698ZM156.603 108.805L156.409 108.818H63.8318L65.74 126.188H152.101L156.603 108.805ZM165.619 73.7752H60.0039L62.0378 92.3396C82.297 92.3396 141.623 92.3396 160.842 92.3396L165.619 73.7752Z" fill="black"/>
</svg>
