<svg width="200" height="200" viewBox="0 0 200 200" fill="none" xmlns="http://www.w3.org/2000/svg">
<path d="M99.5936 131.67C94.4275 131.67 90.2266 135.871 90.2266 141.037C90.2266 146.203 94.4275 150.404 99.5936 150.404C104.76 150.404 108.961 146.203 108.961 141.037C108.961 135.871 104.76 131.67 99.5936 131.67ZM99.5936 145.72C97.0108 145.72 94.9101 143.62 94.9101 141.037C94.9101 138.454 97.0108 136.353 99.5936 136.353C102.176 136.353 104.277 138.454 104.277 141.037C104.277 143.62 102.177 145.72 99.5936 145.72Z" fill="black"/>
<path d="M168.83 109.721C166.73 108.264 164.041 107.934 161.643 108.826L161.374 108.927L136.043 46.7485L72.1559 69.5665L59.0047 38H34.025C30.1518 38 27 41.1518 27 45.025C27 48.8982 30.1518 52.0505 34.025 52.0505H48.8718L81.984 129.487C79.7994 132.808 78.5185 136.773 78.5185 141.037C78.5185 152.659 87.9744 162.113 99.594 162.113C111.214 162.113 120.669 152.66 120.669 141.037C120.669 140.805 120.642 140.578 120.635 140.349L167.05 123.471C170.123 122.352 172.188 119.406 172.188 116.135C172.188 113.575 170.933 111.179 168.83 109.721ZM105.619 62.588L112.86 78.8796L105.502 81.8231L98.1402 65.2597L105.619 62.588ZM93.7165 66.8384L103.053 87.8464L119.113 81.4229L110.041 61.0098L133.398 52.6685L156.988 110.573L114.741 126.417C110.905 122.443 105.538 119.961 99.5945 119.961C97.4848 119.961 95.452 120.282 93.5292 120.861L73.9589 73.8938L93.7165 66.8384ZM34.025 47.367C32.7346 47.367 31.6835 46.3179 31.6835 45.025C31.6835 43.7321 32.7351 42.683 34.025 42.683H55.8803L89.2243 122.71C87.8335 123.499 86.5501 124.448 85.3791 125.52L51.9632 47.367H34.025ZM99.594 157.429C90.5547 157.429 83.202 150.074 83.202 141.036C83.202 131.999 90.5552 124.644 99.594 124.644C108.633 124.644 115.986 131.999 115.986 141.036C115.986 150.074 108.633 157.429 99.594 157.429ZM165.451 119.069L119.94 135.618C119.436 133.731 118.68 131.949 117.703 130.307L163.288 113.212C164.262 112.845 165.306 112.976 166.163 113.568C167.015 114.161 167.505 115.098 167.505 116.135C167.505 117.444 166.678 118.622 165.451 119.069Z" fill="black"/>
</svg>
