<svg width="200" height="200" viewBox="0 0 200 200" fill="none" xmlns="http://www.w3.org/2000/svg">
<path d="M149.76 59.5813C152.71 59.5813 155.102 57.1899 155.102 54.2399C155.102 51.2899 152.71 48.8984 149.76 48.8984C146.81 48.8984 144.419 51.2899 144.419 54.2399C144.419 57.1899 146.81 59.5813 149.76 59.5813Z" stroke="black" stroke-width="4.27316" stroke-linecap="round" stroke-linejoin="round"/>
<path d="M154.317 75.605C154.317 76.0835 154.175 76.5513 153.909 76.9492C153.643 77.3471 153.265 77.6572 152.823 77.8403C152.381 78.0234 151.895 78.0713 151.425 77.978C150.956 77.8846 150.525 77.6542 150.187 77.3158C149.848 76.9775 149.618 76.5464 149.525 76.077C149.431 75.6077 149.479 75.1212 149.662 74.6791C149.845 74.237 150.155 73.8592 150.553 73.5933C150.951 73.3274 151.419 73.1855 151.897 73.1855C152.539 73.1855 153.155 73.4405 153.608 73.8942C154.062 74.3479 154.317 74.9633 154.317 75.605V75.605Z" fill="black"/>
<path d="M128.678 56.3755C128.678 56.854 128.536 57.3218 128.27 57.7197C128.004 58.1176 127.626 58.4277 127.184 58.6108C126.742 58.7939 126.256 58.8418 125.786 58.7485C125.317 58.6551 124.886 58.4247 124.548 58.0863C124.209 57.748 123.979 57.3169 123.885 56.8475C123.792 56.3782 123.84 55.8917 124.023 55.4496C124.206 55.0075 124.516 54.6297 124.914 54.3638C125.312 54.098 125.78 53.9561 126.258 53.9561C126.576 53.9561 126.891 54.0186 127.184 54.1402C127.478 54.2618 127.744 54.44 127.969 54.6647C128.194 54.8894 128.372 55.1561 128.494 55.4496C128.615 55.7432 128.678 56.0578 128.678 56.3755V56.3755Z" fill="black"/>
<path d="M98.7657 47.8296C98.7657 48.3081 98.6238 48.7759 98.3579 49.1738C98.0921 49.5717 97.7142 49.8818 97.2721 50.0649C96.83 50.248 96.3435 50.2959 95.8742 50.2026C95.4049 50.1092 94.9738 49.8788 94.6354 49.5404C94.297 49.2021 94.0666 48.771 93.9732 48.3016C93.8799 47.8323 93.9278 47.3458 94.1109 46.9037C94.2941 46.4616 94.6042 46.0838 95.002 45.8179C95.3999 45.5521 95.8677 45.4102 96.3462 45.4102C96.9879 45.4102 97.6033 45.6651 98.057 46.1188C98.5108 46.5725 98.7657 47.1879 98.7657 47.8296V47.8296Z" fill="black"/>
<path d="M111.586 41.4195C111.586 41.898 111.444 42.3658 111.178 42.7636C110.912 43.1615 110.534 43.4716 110.092 43.6548C109.65 43.8379 109.163 43.8858 108.694 43.7924C108.225 43.6991 107.794 43.4686 107.455 43.1303C107.117 42.7919 106.886 42.3608 106.793 41.8915C106.7 41.4221 106.748 40.9357 106.931 40.4936C107.114 40.0515 107.424 39.6736 107.822 39.4078C108.22 39.1419 108.688 39 109.166 39C109.808 39 110.423 39.2549 110.877 39.7086C111.331 40.1624 111.586 40.7778 111.586 41.4195Z" fill="black"/>
<path d="M62.4439 64.9214C62.4439 65.3999 62.302 65.8677 62.0362 66.2656C61.7703 66.6635 61.3924 66.9736 60.9503 67.1567C60.5082 67.3398 60.0218 67.3877 59.5524 67.2944C59.0831 67.201 58.652 66.9706 58.3136 66.6322C57.9753 66.2939 57.7448 65.8628 57.6515 65.3934C57.5581 64.9241 57.606 64.4376 57.7892 63.9955C57.9723 63.5534 58.2824 63.1756 58.6803 62.9097C59.0781 62.6439 59.5459 62.502 60.0244 62.502C60.6661 62.502 61.2815 62.7569 61.7353 63.2106C62.189 63.6643 62.4439 64.2797 62.4439 64.9214V64.9214Z" fill="black"/>
<path d="M56.8193 115.712V159.999H144.419V115.795" stroke="black" stroke-width="4.27316" stroke-linecap="round" stroke-linejoin="round"/>
<path d="M44 115.132H103.824L114.507 98.0391H56.8195L44 115.132Z" stroke="black" stroke-width="4.27316" stroke-linecap="round" stroke-linejoin="round"/>
<path d="M155.102 115.132H125.19L114.507 98.0391H144.419L155.102 115.132Z" stroke="black" stroke-width="4.27316" stroke-linecap="round" stroke-linejoin="round"/>
<path d="M94.2098 140.771H74.9806C72.0306 140.771 69.6392 143.162 69.6392 146.112C69.6392 149.062 72.0306 151.453 74.9806 151.453H94.2098C97.1598 151.453 99.5513 149.062 99.5513 146.112C99.5513 143.162 97.1598 140.771 94.2098 140.771Z" stroke="black" stroke-width="4.27316" stroke-linecap="round" stroke-linejoin="round"/>
<path d="M69.6392 134.361H84.5952" stroke="black" stroke-width="4.27316" stroke-linecap="round" stroke-linejoin="round"/>
<path d="M69.6392 127.951H76.0489" stroke="black" stroke-width="4.27316" stroke-linecap="round" stroke-linejoin="round"/>
<path d="M131.744 87.9122C131.744 87.9122 131.763 78.505 144.336 76.2129" stroke="black" stroke-width="4.27316" stroke-linecap="round" stroke-linejoin="round"/>
<path d="M77.6387 47.8047C79.557 49.0137 81.0956 50.739 82.078 52.7826C83.0604 54.8262 83.4467 57.1054 83.1927 59.3587" stroke="black" stroke-width="4.27316" stroke-linecap="round" stroke-linejoin="round"/>
<path d="M67.5024 65.9902C67.5024 65.9902 78.1853 68.1268 78.1853 76.6731" stroke="black" stroke-width="4.27316" stroke-linecap="round" stroke-linejoin="round"/>
<path d="M102.756 85.2199C110.426 85.2199 116.644 79.0021 116.644 71.3321C116.644 63.6621 110.426 57.4443 102.756 57.4443C95.0859 57.4443 88.8682 63.6621 88.8682 71.3321C88.8682 79.0021 95.0859 85.2199 102.756 85.2199Z" stroke="black" stroke-width="4.27316" stroke-linecap="round" stroke-linejoin="round"/>
<path d="M50.4097 78.8092C50.4097 78.8092 67.5023 76.6726 73.912 87.3555" stroke="black" stroke-width="4.27316" stroke-linecap="round" stroke-linejoin="round"/>
<path d="M123.053 80.947C123.053 80.947 125.19 70.2641 138.009 61.7178" stroke="black" stroke-width="4.27316" stroke-linecap="round" stroke-linejoin="round"/>
<path d="M114.507 160V98.0391" stroke="black" stroke-width="4.27316" stroke-linejoin="round"/>
</svg>
