<svg width="200" height="200" viewBox="0 0 200 200" fill="none" xmlns="http://www.w3.org/2000/svg">
<path d="M142.381 69.6529L144.535 67.498L146.232 69.1945C146.888 69.8507 147.748 70.1789 148.608 70.1789C149.468 70.1789 150.328 69.8507 150.984 69.1948C152.296 67.8825 152.296 65.7551 150.984 64.4425L142.683 56.141C141.37 54.8285 139.243 54.8285 137.931 56.1407C136.618 57.453 136.618 59.5804 137.931 60.893L139.784 62.7458L137.359 65.1704C129.524 58.9186 120.095 54.586 109.789 52.8875V47.1745H115.87C119.301 47.1745 122.093 44.3829 122.093 40.9516V33.2228C122.092 29.7916 119.3 27 115.869 27H84.1305C80.6993 27 77.9077 29.7916 77.9077 33.2228V40.9516C77.9077 44.3829 80.6993 47.1745 84.1305 47.1745H90.2117V52.8877C61.7675 57.5751 40 82.3338 40 112.085C40 145.169 66.916 172.085 100 172.085C133.084 172.085 160 145.169 160 112.085C160 95.5299 153.26 80.5196 142.381 69.6529ZM84.6281 33.7204H115.372V40.454H84.6281V33.7204ZM96.9321 47.1745H103.068V52.1625C102.052 52.1111 101.029 52.0848 100 52.0848C98.9713 52.0848 97.9487 52.1111 96.9321 52.1625V47.1745ZM100 165.364C70.6216 165.364 46.7204 141.463 46.7204 112.085C46.7204 82.7064 70.6216 58.8052 100 58.8052C129.378 58.8052 153.28 82.7064 153.28 112.085C153.279 141.463 129.378 165.364 100 165.364Z" fill="black"/>
<path d="M138.74 108.723C136.884 108.723 135.38 110.228 135.38 112.084C135.38 131.592 119.508 147.463 99.9998 147.463C80.4912 147.463 64.6199 131.592 64.6199 112.084C64.6199 93.9911 78.2723 79.0293 95.8156 76.9527L92.0372 80.7308C90.725 82.043 90.725 84.1705 92.0372 85.483C92.6935 86.1393 93.5534 86.4671 94.4134 86.4671C95.273 86.4671 96.1335 86.139 96.7895 85.483L105.874 76.3984C106.504 75.7682 106.858 74.9135 106.858 74.0223C106.858 73.1311 106.504 72.2765 105.874 71.6462L96.9461 62.7185C95.6336 61.4063 93.5061 61.4063 92.1939 62.7188C90.8816 64.0311 90.8816 66.1588 92.1939 67.4707L95.0045 70.2814C74.1363 72.7597 57.8994 90.5599 57.8994 112.084C57.8994 135.298 76.7856 154.184 99.9998 154.184C123.214 154.184 142.1 135.298 142.1 112.084C142.1 110.228 140.596 108.723 138.74 108.723Z" fill="black"/>
<path d="M100 100.474C93.5989 100.474 88.3911 105.682 88.3911 112.084C88.3911 118.485 93.5989 123.693 100 123.693C106.401 123.693 111.609 118.485 111.609 112.084C111.609 110.5 111.289 108.989 110.712 107.612L131.998 86.9264C133.329 85.6332 133.359 83.5057 132.066 82.1748C130.772 80.8435 128.644 80.8134 127.314 82.107L106.417 102.415C104.577 101.19 102.371 100.474 100 100.474ZM100 116.973C97.3045 116.973 95.1116 114.779 95.1116 112.084C95.1116 109.388 97.3048 107.195 100 107.195C102.696 107.195 104.889 109.388 104.889 112.084C104.889 114.779 102.696 116.973 100 116.973Z" fill="black"/>
</svg>
