<svg width="200" height="200" viewBox="0 0 200 200" fill="none" xmlns="http://www.w3.org/2000/svg">
<path d="M155.76 98.5285L148.548 94.3408L144.428 76.7361C143.331 72.0503 139.204 68.7778 134.392 68.7778H113.666V65.49C113.666 64.1147 112.551 63 111.176 63H34.49C33.115 63 32 64.1147 32 65.49V124.843C32 126.218 33.115 127.333 34.49 127.333H42.4927C43.6499 133.02 48.6889 137.313 54.7121 137.313C60.7353 137.313 65.7746 133.02 66.9318 127.333H117.341V127.333C118.498 133.02 123.537 137.313 129.56 137.313C135.584 137.313 140.623 133.02 141.78 127.333H154.51C155.885 127.333 157 126.219 157 124.843V100.682C157 99.7946 156.528 98.9743 155.76 98.5285ZM54.7121 132.333C50.5825 132.333 47.2226 128.973 47.2226 124.844C47.2226 120.714 50.5825 117.354 54.7121 117.354C58.842 117.354 62.2018 120.714 62.2018 124.844C62.2018 128.974 58.842 132.333 54.7121 132.333ZM108.687 113.424H86.2272C84.8522 113.424 83.7372 114.539 83.7372 115.914C83.7372 117.289 84.8522 118.404 86.2272 118.404H108.687V122.353H66.9318C65.7746 116.667 60.7353 112.374 54.7121 112.374C48.6889 112.374 43.6499 116.666 42.4927 122.353H36.98V109.475H108.687V113.424V113.424ZM108.687 71.268V104.495H36.98V67.9802H108.687V71.268V71.268ZM128.111 73.7583H134.392C136.879 73.758 139.012 75.4494 139.579 77.8711L143.228 93.4648H128.111V73.7583H128.111ZM129.56 132.333C125.598 132.333 122.347 129.24 122.089 125.342C122.122 125.181 122.139 125.015 122.139 124.844C122.139 124.673 122.122 124.506 122.089 124.345C122.347 120.447 125.598 117.354 129.56 117.354C133.69 117.354 137.05 120.714 137.05 124.844C137.05 128.974 133.69 132.333 129.56 132.333ZM152.02 110.536H147.283V107.9H152.02V110.536ZM152.02 102.92H144.793C143.418 102.92 142.303 104.034 142.303 105.41V113.026C142.303 114.401 143.418 115.516 144.793 115.516H152.02V122.353H141.78C140.623 116.667 135.584 112.374 129.56 112.374C123.537 112.374 118.498 116.666 117.341 122.353H113.667V73.758H123.131V95.9548C123.131 97.33 124.246 98.4448 125.621 98.4448H145.698L152.02 102.116V102.92H152.02Z" fill="black"/>
</svg>
