<svg class="animated" id="freepik_stories-beer-celebration" xmlns="http://www.w3.org/2000/svg" viewBox="0 0 500 500" version="1.1" xmlns:xlink="http://www.w3.org/1999/xlink" xmlns:svgjs="http://svgjs.com/svgjs"><style>svg#freepik_stories-beer-celebration:not(.animated) .animable {opacity: 0;}svg#freepik_stories-beer-celebration.animated #freepik--background-complete--inject-4 {animation: 1.5s Infinite  linear wind;animation-delay: 0s;}svg#freepik_stories-beer-celebration.animated #freepik--Shadow--inject-4 {animation: 1.5s Infinite  linear floating;animation-delay: 0s;}svg#freepik_stories-beer-celebration.animated #freepik--Plant--inject-4 {animation: 1.5s Infinite  linear floating;animation-delay: 0s;}svg#freepik_stories-beer-celebration.animated #freepik--Chairs--inject-4 {animation: 1s 1 forwards cubic-bezier(.36,-0.01,.5,1.38) slideRight,1.5s Infinite  linear floating;animation-delay: 0s,1s;}svg#freepik_stories-beer-celebration.animated #freepik--character-2--inject-4 {animation: 1s 1 forwards cubic-bezier(.36,-0.01,.5,1.38) slideRight;animation-delay: 0s;}svg#freepik_stories-beer-celebration.animated #freepik--character-1--inject-4 {animation: 1s 1 forwards cubic-bezier(.36,-0.01,.5,1.38) slideLeft;animation-delay: 0s;}            @keyframes wind {                0% {                    transform: rotate( 0deg );                }                25% {                    transform: rotate( 1deg );                }                75% {                    transform: rotate( -1deg );                }            }                    @keyframes floating {                0% {                    opacity: 1;                    transform: translateY(0px);                }                50% {                    transform: translateY(-10px);                }                100% {                    opacity: 1;                    transform: translateY(0px);                }            }                    @keyframes slideRight {                0% {                    opacity: 0;                    transform: translateX(30px);                }                100% {                    opacity: 1;                    transform: translateX(0);                }            }                    @keyframes slideLeft {                0% {                    opacity: 0;                    transform: translateX(-30px);                }                100% {                    opacity: 1;                    transform: translateX(0);                }            }        .animator-hidden { display: none; }</style><g id="freepik--background-complete--inject-4" class="animable" style="transform-origin: 250.005px 214.425px;"><path d="M440.65,306.22l-13.12.28-6.66.11c-2.23.05-4.47,0-6.7.06h-.44v-.45L413.67,295v-.5h.5l13.24.06c4.42,0,8.83.11,13.24.16h.28V295c0,1.9-.09,3.79-.13,5.66Zm0,0-.14-5.65c0-1.86-.11-3.7-.13-5.54l.27.28c-4.41.05-8.82.16-13.24.16l-13.24.06.5-.5-.05,11.19-.45-.44c2.18,0,4.36,0,6.55.05l6.58.12Z" style="fill: rgb(235, 235, 235); transform-origin: 427.3px 300.585px;" id="elt1yu4ophwta" class="animable"></path><path d="M425.88,320.33l-13.12.28-6.66.11c-2.23,0-4.47,0-6.7.06H399v-.45l-.06-11.19v-.5h.5l13.24.07c4.42,0,8.83.11,13.24.16h.28v.27c0,1.9-.08,3.79-.13,5.66Zm0,0-.14-5.65c-.05-1.86-.11-3.7-.13-5.54l.27.28c-4.41.05-8.82.16-13.24.16l-13.24.06.5-.5,0,11.19-.45-.44c2.18,0,4.36,0,6.55.05l6.58.12Z" style="fill: rgb(235, 235, 235); transform-origin: 412.57px 314.71px;" id="el9ethl0lt024" class="animable"></path><path d="M455.43,320.33l-13.13.28-6.66.11c-2.23,0-4.46,0-6.69.06h-.45v-.45l-.05-11.19v-.5H429l13.24.07c4.41,0,8.82.11,13.24.16h.27v.27c0,1.9-.09,3.79-.13,5.66Zm0,0-.15-5.65c0-1.86-.11-3.7-.13-5.54l.28.28c-4.42.05-8.83.16-13.24.16l-13.24.06.49-.5-.05,11.19-.44-.44c2.18,0,4.35,0,6.54.05l6.58.12Z" style="fill: rgb(235, 235, 235); transform-origin: 442.1px 314.71px;" id="elp6ozl8rbaz" class="animable"></path><path d="M85.83,306.22l-13.13.28-6.66.11c-2.22.05-4.46,0-6.69.06H58.9v-.45l0-11.19v-.5h.51l13.24.06c4.41,0,8.82.11,13.24.16h.27V295c0,1.9-.09,3.79-.13,5.66Zm0,0-.14-5.65c0-1.86-.12-3.7-.14-5.54l.28.28c-4.42.05-8.83.16-13.24.16l-13.24.06.5-.5-.06,11.19-.44-.44c2.18,0,4.35,0,6.54.05l6.58.12Z" style="fill: rgb(235, 235, 235); transform-origin: 72.53px 300.6px;" id="elw8f78kz1gaq" class="animable"></path><path d="M71.06,320.33l-13.13.28-6.66.11c-2.23,0-4.46,0-6.7.06h-.44v-.45l-.05-11.19v-.5h.5l13.24.07c4.42,0,8.83.11,13.25.16h.27v.27c0,1.9-.09,3.79-.13,5.66Zm0,0-.15-5.65c0-1.86-.11-3.7-.13-5.54l.28.28c-4.42.05-8.83.16-13.25.16l-13.24.06.5-.5,0,11.19-.45-.44c2.19,0,4.36,0,6.55.05l6.58.12Z" style="fill: rgb(235, 235, 235); transform-origin: 57.71px 314.71px;" id="elplxksgd7h6" class="animable"></path><path d="M322.33,146.74,309.2,147l-6.66.11c-2.22,0-4.46,0-6.69.05h-.45v-.45l0-11.19v-.5h.51l13.24.06c4.41,0,8.82.11,13.24.16h.27v.27c0,1.9-.09,3.78-.13,5.65Zm0,0-.15-5.66c0-1.86-.11-3.7-.13-5.53l.28.27c-4.42.05-8.83.16-13.24.16l-13.24.07.5-.5-.06,11.19-.44-.45c2.18,0,4.35,0,6.54.06l6.58.11Z" style="fill: rgb(235, 235, 235); transform-origin: 309.03px 141.09px;" id="el1nm6etuvuct" class="animable"></path><path d="M307.55,160.85l-13.12.28-6.66.11c-2.23,0-4.46,0-6.7,0h-.44v-.45l-.06-11.19v-.51h.5l13.24.06c4.42,0,8.83.11,13.24.16h.28v.27c0,1.9-.09,3.78-.13,5.65Zm0,0-.14-5.66c0-1.86-.11-3.7-.13-5.53l.27.27c-4.41,0-8.82.16-13.24.16l-13.24.07.5-.5-.05,11.19-.45-.45c2.19,0,4.36,0,6.55.06l6.58.11Z" style="fill: rgb(235, 235, 235); transform-origin: 294.2px 155.165px;" id="el2du2lptfenv" class="animable"></path><path d="M337.1,160.85l-13.13.28-6.66.11c-2.22,0-4.46,0-6.69,0h-.45v-.45l-.05-11.19v-.51h.5l13.24.06c4.41,0,8.82.11,13.24.16h.27v.27c0,1.9-.08,3.78-.13,5.65Zm0,0-.14-5.66c0-1.86-.12-3.7-.13-5.53l.27.27c-4.42,0-8.83.16-13.24.16l-13.24.07.5-.5-.06,11.19-.44-.45c2.18,0,4.36,0,6.54.06l6.58.11Z" style="fill: rgb(235, 235, 235); transform-origin: 323.745px 155.165px;" id="eltnh4imfo4mp" class="animable"></path><path d="M439.12,64.38,426,64.66l-6.66.11c-2.23,0-4.47,0-6.7.06h-.44v-.45l-.06-11.19v-.5h.5l13.24.06c4.42,0,8.83.12,13.24.17h.28v.27c0,1.9-.09,3.79-.14,5.65Zm0,0L439,58.73c0-1.87-.11-3.71-.13-5.54l.27.27c-4.41,0-8.82.16-13.24.17l-13.24.06.5-.5-.05,11.19-.45-.45c2.18,0,4.36,0,6.55.06l6.58.11Z" style="fill: rgb(235, 235, 235); transform-origin: 425.77px 58.76px;" id="elldgk0awohbo" class="animable"></path><path d="M453.89,78.49l-13.12.28-6.66.11c-2.23.05-4.46,0-6.7.05H427v-.45l-.06-11.19v-.5h.5l13.24.06c4.42,0,8.83.12,13.24.17h.28v.27c0,1.9-.09,3.79-.13,5.65Zm0,0-.14-5.65c0-1.87-.11-3.71-.13-5.54l.27.27c-4.41.05-8.82.16-13.24.17l-13.24.06.5-.5-.05,11.19-.45-.45c2.19,0,4.36,0,6.55.06l6.58.11Z" style="fill: rgb(235, 235, 235); transform-origin: 440.57px 72.86px;" id="elynncv3hb2q" class="animable"></path><path d="M71.06,64.39l-13.13.28-6.66.11c-2.23,0-4.46,0-6.7.06h-.44v-.45L44.08,53.2v-.5h.5l13.24.07c4.42,0,8.83.11,13.25.16h.27v.27c0,1.9-.09,3.79-.13,5.66Zm0,0-.15-5.65c0-1.87-.11-3.71-.13-5.54l.28.27c-4.42.06-8.83.16-13.25.17l-13.24.06.5-.5,0,11.19L44.57,64c2.19,0,4.36,0,6.55,0l6.58.11Z" style="fill: rgb(235, 235, 235); transform-origin: 57.71px 58.77px;" id="elh4xh7b40aw" class="animable"></path><rect x="50.6" y="208.5" width="398.8" height="173.77" style="fill: rgb(235, 235, 235); transform-origin: 250px 295.385px;" id="elhnm1hc7zk6" class="animable"></rect><path d="M129.43,356l-27.78.32q-14,.19-28.05.27H73V356l-.17-25.18-.09-25.17-.12-50.34v-1h1l55.83.13h.84v.84c0,16.89-.22,33.75-.33,50.56Zm0,0-.51-50.56c-.12-16.75-.33-33.45-.34-50.13l.85.85-55.83.12,1-1-.11,50.34-.1,25.17L74.19,356l-.59-.59c9.24.05,18.48.13,27.78.26Z" style="fill: rgb(219, 219, 219); transform-origin: 101.455px 305.45px;" id="elke68vn3yja" class="animable"></path><path d="M81.74,264.87l19.65-.3c6.6-.11,13.24-.22,19.9-.26h.55v.56l.18,20.41q.1,10.22.11,20.41l.12,40.83v1h-1l-39.55-.12h-.86v-.85c0-6.85,0-13.71.12-20.55l.21-20.5Zm0,0,.53,41,.21,20.34c.08,6.77.09,13.51.11,20.27l-.85-.86,39.55-.11-1,1,.12-40.83q0-10.2.11-20.41l.18-20.41.56.56c-6.52-.05-13.06-.16-19.65-.26Z" style="fill: rgb(219, 219, 219); transform-origin: 101.545px 305.915px;" id="eldtg7g5f8hqw" class="animable"></path><path d="M203.7,356l-27.78.32c-9.3.13-18.67.21-28,.27h-.59V356l-.18-25.18L147,305.69l-.11-50.34v-1h1l55.82.13h.85v.84c0,16.89-.22,33.75-.33,50.56Zm0,0-.51-50.56c-.11-16.75-.33-33.45-.33-50.13l.84.85-55.82.12,1-1-.11,50.34-.09,25.17L148.47,356l-.59-.59c9.23.05,18.47.13,27.78.26Z" style="fill: rgb(219, 219, 219); transform-origin: 175.725px 305.47px;" id="el4tdjzr095t5" class="animable"></path><path d="M278,356l-27.78.32c-9.31.13-18.68.21-28,.27h-.59V356l-.17-25.18-.1-25.17-.11-50.34v-1h1l55.83.13h.84v.84c0,16.89-.22,33.75-.33,50.56Zm0,0-.52-50.56c-.11-16.75-.32-33.45-.33-50.13l.85.85-55.83.12,1-1L223,305.69l-.09,25.17L222.74,356l-.59-.59q13.85.07,27.78.26Z" style="fill: rgb(219, 219, 219); transform-origin: 250.085px 305.45px;" id="elf5rjslz6u2t" class="animable"></path><path d="M352.25,356l-27.78.32q-14,.19-28.05.27h-.58V356l-.17-25.18-.09-25.17-.12-50.34v-1h1l55.83.13h.85v.84c0,16.89-.22,33.75-.33,50.56Zm0,0-.51-50.56c-.11-16.75-.33-33.45-.33-50.13l.84.85-55.83.12,1-1-.11,50.34-.1,25.17L297,356l-.59-.59c9.24.05,18.48.13,27.78.26Z" style="fill: rgb(219, 219, 219); transform-origin: 324.3px 305.45px;" id="el0vfvtjt8nhg" class="animable"></path><path d="M426.52,356l-27.78.32c-9.3.13-18.67.21-28,.27h-.59V356l-.17-25.18-.1-25.17-.11-50.34v-1h1l55.82.13h.85v.84c0,16.89-.22,33.75-.33,50.56Zm0,0L426,305.48c-.11-16.75-.32-33.45-.33-50.13l.84.85-55.82.12,1-1-.11,50.34-.09,25.17L371.29,356l-.59-.59c9.23.05,18.47.13,27.78.26Z" style="fill: rgb(219, 219, 219); transform-origin: 398.605px 305.45px;" id="elwko48dzv91h" class="animable"></path><path d="M156,264.87l19.66-.3c6.59-.11,13.24-.22,19.9-.26h.55v.56l.18,20.41c.08,6.81.1,13.61.12,20.41l.11,40.83v1h-1L156,347.37h-.85v-.85c0-6.85,0-13.71.11-20.55l.21-20.5Zm0,0,.53,41,.21,20.34c.09,6.77.1,13.51.12,20.27l-.86-.86,39.56-.11-1,1,.12-40.83c0-6.8,0-13.6.11-20.41l.18-20.41.56.56c-6.53-.05-13.07-.16-19.66-.26Z" style="fill: rgb(219, 219, 219); transform-origin: 175.835px 305.915px;" id="elfb3kv91csji" class="animable"></path><path d="M230.29,264.87l19.65-.3c6.59-.11,13.24-.22,19.9-.26h.55v.56l.18,20.41q.1,10.22.11,20.41l.12,40.83v1h-1l-39.55-.12h-.86v-.85c0-6.85,0-13.71.12-20.55l.21-20.5Zm0,0,.52,41,.21,20.34c.09,6.77.1,13.51.12,20.27l-.85-.86,39.55-.11-1,1,.12-40.83q0-10.2.11-20.41l.18-20.41.56.56c-6.53-.05-13.06-.16-19.65-.26Z" style="fill: rgb(219, 219, 219); transform-origin: 250.095px 305.915px;" id="elr1e2owtx5e" class="animable"></path><path d="M304.56,264.87l19.65-.3c6.6-.11,13.24-.22,19.9-.26h.56v.56l.18,20.41q.11,10.22.11,20.41l.12,40.83v1h-1l-39.55-.12h-.86v-.85c0-6.85,0-13.71.12-20.55l.21-20.5Zm0,0,.53,41,.21,20.34c.08,6.77.1,13.51.12,20.27l-.86-.86,39.55-.11-1,1,.12-40.83q0-10.2.12-20.41l.17-20.41.56.56c-6.52-.05-13.06-.16-19.65-.26Z" style="fill: rgb(219, 219, 219); transform-origin: 324.375px 305.915px;" id="eltp2akwefhs" class="animable"></path><path d="M378.83,264.87l19.66-.3c6.59-.11,13.24-.22,19.9-.26h.55v.56l.18,20.41q.12,10.22.12,20.41l.11,40.83v1h-1l-39.56-.12H378v-.85c0-6.85,0-13.71.12-20.55l.21-20.5Zm0,0,.53,41,.21,20.34c.09,6.77.1,13.51.12,20.27l-.86-.86,39.56-.11-1,1,.12-40.83q0-10.2.11-20.41l.18-20.41.56.56c-6.53-.05-13.07-.16-19.66-.26Z" style="fill: rgb(219, 219, 219); transform-origin: 398.675px 305.915px;" id="el1gw1j3k3d1p" class="animable"></path><rect x="50.6" y="208.5" width="398.8" height="26.75" style="fill: rgb(199, 199, 199); transform-origin: 250px 221.875px;" id="el74ifj9m9ggl" class="animable"></rect><rect x="38.42" y="206.6" width="423.17" height="19.84" style="fill: rgb(235, 235, 235); transform-origin: 250.005px 216.52px;" id="el4v6m3am7rpw" class="animable"></rect><polygon points="70.77 174.82 70.77 206.6 53.62 206.6 53.62 174.82 58.25 166.96 59.83 157.34 59.52 157.13 59.52 156.55 60.07 156.33 59.52 156.2 59.52 155.24 64.85 155.24 64.85 156.2 64.32 156.33 64.85 156.55 64.85 157.13 64.55 157.34 66.13 166.96 70.77 174.82" style="fill: rgb(219, 219, 219); transform-origin: 62.195px 180.92px;" id="elb2mnrfco1bd" class="animable"></polygon><rect x="53.62" y="184.36" width="17.15" height="14.89" style="fill: rgb(166, 166, 166); transform-origin: 62.195px 191.805px;" id="elt1v9aw0ajk" class="animable"></rect><polygon points="90.31 174.82 90.31 206.6 73.17 206.6 73.17 174.82 77.8 166.96 79.38 157.34 79.06 157.13 79.06 156.55 79.61 156.33 79.06 156.2 79.06 155.24 84.4 155.24 84.4 156.2 83.86 156.33 84.4 156.55 84.4 157.13 84.1 157.34 85.68 166.96 90.31 174.82" style="fill: rgb(219, 219, 219); transform-origin: 81.74px 180.92px;" id="el6efe5p302su" class="animable"></polygon><rect x="73.16" y="184.36" width="17.15" height="14.89" style="fill: rgb(166, 166, 166); transform-origin: 81.735px 191.805px;" id="elry93hx0x92" class="animable"></rect><polygon points="433.89 174.82 433.89 206.6 416.74 206.6 416.74 174.82 421.37 166.96 422.95 157.34 422.64 157.13 422.64 156.55 423.19 156.33 422.64 156.2 422.64 155.24 427.97 155.24 427.97 156.2 427.44 156.33 427.97 156.55 427.97 157.13 427.67 157.34 429.25 166.96 433.89 174.82" style="fill: rgb(219, 219, 219); transform-origin: 425.315px 180.92px;" id="elanb7mfd4g9" class="animable"></polygon><rect x="416.74" y="184.36" width="17.15" height="14.89" style="fill: rgb(166, 166, 166); transform-origin: 425.315px 191.805px;" id="elefnckhvbxo9" class="animable"></rect><rect x="43.6" y="97.95" width="166.05" height="7.88" style="fill: rgb(235, 235, 235); transform-origin: 126.625px 101.89px;" id="elpy30oz44k5a" class="animable"></rect><polygon points="86.63 66.16 86.63 97.95 69.48 97.95 69.48 66.16 74.11 58.3 75.69 48.68 75.38 48.48 75.38 47.89 75.93 47.67 75.38 47.55 75.38 46.58 80.72 46.58 80.72 47.55 80.18 47.67 80.72 47.89 80.72 48.48 80.42 48.68 82 58.3 86.63 66.16" style="fill: rgb(219, 219, 219); transform-origin: 78.055px 72.265px;" id="el4m74c2ffl3q" class="animable"></polygon><rect x="69.48" y="75.7" width="17.15" height="14.89" style="fill: rgb(166, 166, 166); transform-origin: 78.055px 83.145px;" id="eli7wirtitf9e" class="animable"></rect><polygon points="108.79 66.16 108.79 97.95 91.65 97.95 91.65 66.16 96.28 58.3 97.86 48.68 97.54 48.48 97.54 47.89 98.1 47.67 97.54 47.55 97.54 46.58 102.88 46.58 102.88 47.55 102.34 47.67 102.88 47.89 102.88 48.48 102.58 48.68 104.16 58.3 108.79 66.16" style="fill: rgb(219, 219, 219); transform-origin: 100.22px 72.265px;" id="elij1to9fdno" class="animable"></polygon><rect x="91.65" y="75.7" width="17.15" height="14.89" style="fill: rgb(166, 166, 166); transform-origin: 100.225px 83.145px;" id="elzvqck4p3mh" class="animable"></rect><polygon points="130.96 66.16 130.96 97.95 113.81 97.95 113.81 66.16 118.44 58.3 120.02 48.68 119.71 48.48 119.71 47.89 120.26 47.67 119.71 47.55 119.71 46.58 125.05 46.58 125.05 47.55 124.51 47.67 125.05 47.89 125.05 48.48 124.75 48.68 126.33 58.3 130.96 66.16" style="fill: rgb(219, 219, 219); transform-origin: 122.385px 72.265px;" id="elaus5nmkdjsd" class="animable"></polygon><rect x="113.81" y="75.7" width="17.15" height="14.89" style="fill: rgb(166, 166, 166); transform-origin: 122.385px 83.145px;" id="el5pekrlxzcuq" class="animable"></rect><polygon points="153.12 66.16 153.12 97.95 135.97 97.95 135.97 66.16 140.61 58.3 142.19 48.68 141.87 48.48 141.87 47.89 142.43 47.67 141.87 47.55 141.87 46.58 147.21 46.58 147.21 47.55 146.67 47.67 147.21 47.89 147.21 48.48 146.91 48.68 148.49 58.3 153.12 66.16" style="fill: rgb(219, 219, 219); transform-origin: 144.545px 72.265px;" id="elb6igeamku68" class="animable"></polygon><rect x="135.98" y="75.7" width="17.15" height="14.89" style="fill: rgb(166, 166, 166); transform-origin: 144.555px 83.145px;" id="ely1dvwbaly6" class="animable"></rect><polygon points="59.85 130.4 55.85 105.9 63.72 105.9 67.72 130.4 59.85 130.4" style="fill: rgb(235, 235, 235); transform-origin: 61.785px 118.15px;" id="el4v0qk1irt7c" class="animable"></polygon><polygon points="64.64 111.56 56.77 111.56 55.85 105.9 63.72 105.9 64.64 111.56" style="fill: rgb(219, 219, 219); transform-origin: 60.245px 108.73px;" id="elljxfnklb7h" class="animable"></polygon><polygon points="193.42 130.4 197.42 105.9 189.54 105.9 185.54 130.4 193.42 130.4" style="fill: rgb(235, 235, 235); transform-origin: 191.48px 118.15px;" id="elu7j0ct4i5wb" class="animable"></polygon><polygon points="188.62 111.56 196.49 111.56 197.41 105.9 189.54 105.9 188.62 111.56" style="fill: rgb(219, 219, 219); transform-origin: 193.015px 108.73px;" id="elgq5z8xjq9zm" class="animable"></polygon><rect x="269.77" y="97.95" width="166.05" height="7.88" style="fill: rgb(235, 235, 235); transform-origin: 352.795px 101.89px;" id="elip2zajq1p6" class="animable"></rect><polygon points="312.8 66.16 312.8 97.95 295.65 97.95 295.65 66.16 300.28 58.3 301.86 48.68 301.55 48.48 301.55 47.89 302.1 47.67 301.55 47.55 301.55 46.58 306.88 46.58 306.88 47.55 306.35 47.67 306.88 47.89 306.88 48.48 306.58 48.68 308.16 58.3 312.8 66.16" style="fill: rgb(219, 219, 219); transform-origin: 304.225px 72.265px;" id="elvm8871malyg" class="animable"></polygon><rect x="295.65" y="75.7" width="17.15" height="14.89" style="fill: rgb(166, 166, 166); transform-origin: 304.225px 83.145px;" id="elg6mt9qdnvwj" class="animable"></rect><polygon points="334.96 66.16 334.96 97.95 317.81 97.95 317.81 66.16 322.45 58.3 324.03 48.68 323.71 48.48 323.71 47.89 324.26 47.67 323.71 47.55 323.71 46.58 329.05 46.58 329.05 47.55 328.51 47.67 329.05 47.89 329.05 48.48 328.75 48.68 330.33 58.3 334.96 66.16" style="fill: rgb(219, 219, 219); transform-origin: 326.385px 72.265px;" id="el298w9ieatvh" class="animable"></polygon><rect x="317.81" y="75.7" width="17.15" height="14.89" style="fill: rgb(166, 166, 166); transform-origin: 326.385px 83.145px;" id="elm59m6q0g22d" class="animable"></rect><polygon points="418.54 66.16 418.54 97.95 401.39 97.95 401.39 66.16 406.03 58.3 407.61 48.68 407.29 48.48 407.29 47.89 407.84 47.67 407.29 47.55 407.29 46.58 412.63 46.58 412.63 47.55 412.09 47.67 412.63 47.89 412.63 48.48 412.33 48.68 413.91 58.3 418.54 66.16" style="fill: rgb(219, 219, 219); transform-origin: 409.965px 72.265px;" id="el33ailj26vt5" class="animable"></polygon><rect x="401.39" y="75.7" width="17.15" height="14.89" style="fill: rgb(166, 166, 166); transform-origin: 409.965px 83.145px;" id="elwy34bzx5qs8" class="animable"></rect><polygon points="393.84 66.16 393.84 97.95 376.69 97.95 376.69 66.16 381.33 58.3 382.91 48.68 382.59 48.48 382.59 47.89 383.14 47.67 382.59 47.55 382.59 46.58 387.93 46.58 387.93 47.55 387.39 47.67 387.93 47.89 387.93 48.48 387.63 48.68 389.21 58.3 393.84 66.16" style="fill: rgb(219, 219, 219); transform-origin: 385.265px 72.265px;" id="el9np34xcs9ds" class="animable"></polygon><rect x="376.69" y="75.7" width="17.15" height="14.89" style="fill: rgb(166, 166, 166); transform-origin: 385.265px 83.145px;" id="elqmu4z3adp6" class="animable"></rect><polygon points="286.01 130.4 282.01 105.9 289.89 105.9 293.89 130.4 286.01 130.4" style="fill: rgb(235, 235, 235); transform-origin: 287.95px 118.15px;" id="el1ylc6ey39xp" class="animable"></polygon><polygon points="290.81 111.56 282.94 111.56 282.02 105.9 289.89 105.9 290.81 111.56" style="fill: rgb(219, 219, 219); transform-origin: 286.415px 108.73px;" id="elt65sjsqxnka" class="animable"></polygon><polygon points="419.58 130.4 423.58 105.9 415.71 105.9 411.71 130.4 419.58 130.4" style="fill: rgb(235, 235, 235); transform-origin: 417.645px 118.15px;" id="els60qmpv4bxr" class="animable"></polygon><polygon points="414.79 111.56 422.66 111.56 423.58 105.9 415.71 105.9 414.79 111.56" style="fill: rgb(219, 219, 219); transform-origin: 419.185px 108.73px;" id="elmqewmnh2l7o" class="animable"></polygon></g><g id="freepik--Shadow--inject-4" class="animable" style="transform-origin: 250px 439.89px;"><ellipse cx="250" cy="439.89" rx="198.22" ry="19.42" style="fill: rgb(235, 235, 235); transform-origin: 250px 439.89px;" id="eldmqoxrdtgan" class="animable"></ellipse></g><g id="freepik--Plant--inject-4" class="animable animator-active" style="transform-origin: 59.3195px 324.77px;"><path d="M88,297.51C76.41,313.17,64.36,331.33,61.43,351c0,.3.44.39.5.1a116.83,116.83,0,0,1,5.12-15.72c7.59-2.09,15-3.81,19-11.35,4.07-7.75,3.55-17.86,2.78-26.3C88.82,297.23,88.2,297.21,88,297.51Z" style="fill: #FFC100; transform-origin: 75.3961px 324.295px;" id="el74jbdl0ma9n" class="animable"></path><path d="M67.16,335.19c5.19-11.65,11.86-23.34,20.33-32.93.06-.06.15,0,.09.1-5.54,6.82-9.76,14.25-13.87,21.81,3.82-3.88,8-7.36,11.64-11.48.07-.08.18,0,.12.12-3.6,4.31-7.53,9-12.22,12.2q-1.89,3.48-3.81,7c.31-.18.64-.34,1-.49.06,0,.11.05,0,.08-.36.18-.71.37-1.08.53-.61,1.1-1.21,2.2-1.84,3.3C67.39,335.66,67.05,335.44,67.16,335.19Z" style="fill: rgb(38, 50, 56); transform-origin: 77.3691px 318.881px;" id="eltja04g9wpp" class="animable"></path><path d="M71,331.13a67.77,67.77,0,0,0,8.87-5.92c.08-.06.19,0,.11.11a46.87,46.87,0,0,1-8.85,6C71,331.42,70.88,331.21,71,331.13Z" style="fill: rgb(38, 50, 56); transform-origin: 75.4792px 328.266px;" id="el6yjhdxp332" class="animable"></path><path d="M60.09,348c0,.24.43.23.42,0,.06-6.46,0-13,.1-19.45,1.66-3.34,5.21-5.19,7.69-7.87a34.62,34.62,0,0,0,4.61-6.42,46.11,46.11,0,0,0,5.34-17.83c.69-6.91-1.94-29.73-4.85-28.94-1.51.41-6.4,11.71-7.7,15.45a107.21,107.21,0,0,0-4.6,18.94C58.74,317.11,58.93,332.73,60.09,348Z" style="fill: #FFC100; transform-origin: 68.809px 307.823px;" id="el5mw7xpgs6dr" class="animable"></path><path d="M60,320.16l0,0c.36-8.18,2.2-16.44,3.92-24.37,1.86-8.55,4-16.59,8.43-24.22.08-.14.29,0,.22.13a90.26,90.26,0,0,0-6.77,18.59c.29-.46.65-.9,1-1.33.12-.18.4,0,.28.16A11.67,11.67,0,0,1,65.74,291s0,0-.06,0c-1.51,6.11-2.6,12.36-3.53,18.59l.21-.24c0-.05.12,0,.09.07s-.24.41-.37.62c-.47,3.16-.9,6.32-1.34,9.45,5.63-4.82,10.44-10.49,13.16-17.48a0,0,0,1,1,0,0c-2.66,7.25-6.85,13.7-13.3,18.1-.12.85-.23,1.69-.35,2.53,0,.17-.31.13-.31,0,0-.75,0-1.5.07-2.24A.17.17,0,0,1,60,320.16Z" style="fill: rgb(38, 50, 56); transform-origin: 66.92px 297.132px;" id="el2imcvbjfmw9" class="animable"></path><path d="M62.7,308.31c4.3-6.43,8.32-12.67,11.47-19.77a.08.08,0,0,1,.14.06c-2.65,7.06-6.37,14.2-11.4,19.87A.13.13,0,0,1,62.7,308.31Z" style="fill: rgb(38, 50, 56); transform-origin: 68.4921px 298.517px;" id="elx6oggl970ie" class="animable"></path><path d="M68.42,287c1.78-3.15,3.66-6.22,5.34-9.44,0-.09.17,0,.13.08a48.81,48.81,0,0,1-5.2,9.52A.16.16,0,1,1,68.42,287Z" style="fill: rgb(38, 50, 56); transform-origin: 71.1376px 282.395px;" id="el332iqp5hx9m" class="animable"></path><path d="M67.72,288.33a0,0,0,0,1,0,.05S67.68,288.33,67.72,288.33Z" style="fill: rgb(38, 50, 56); transform-origin: 67.7111px 288.355px;" id="elmmfhjsp3de" class="animable"></path><path d="M55.71,329.35a65.59,65.59,0,0,1-1.51,12.73c.07.46.14.92.2,1.4a60.64,60.64,0,0,0,2.28-14.2.43.43,0,0,0,0-.44h0a94.18,94.18,0,0,0-1.43-19.24c-2-11.88-6.37-23.28-14.66-32.18a.59.59,0,0,0-.91.19c-3.34,8.5-2.18,18.64.67,27.12a49.64,49.64,0,0,0,6.57,12.89C49.78,321.6,53.4,325,55.71,329.35Z" style="fill: #FFC100; transform-origin: 47.1923px 310.38px;" id="el83ktbfzmv4d" class="animable"></path><path d="M41.59,281.39c7.85,12.74,13.32,27.85,14,42.9,0,.27-.44.34-.48.07-.18-1.35-.39-2.7-.61-4h0c-3.25-3.11-6.58-6.39-8.91-10.28,0-.06.06-.15.11-.08a107.27,107.27,0,0,0,8.66,9.42c-.57-3.33-1.23-6.61-2-9.84-.21-.24-.42-.48-.62-.73s.09-.39.23-.23l.19.21a111.9,111.9,0,0,0-4.11-13c-2-2.39-4.23-4.45-5.69-7.32a.06.06,0,0,1,.11-.06c1.17,1.64,2.3,3.29,3.63,4.82.53.61,1.11,1.17,1.66,1.77a100.18,100.18,0,0,0-6.43-13.4A.18.18,0,0,1,41.59,281.39Z" style="fill: rgb(38, 50, 56); transform-origin: 48.4348px 302.933px;" id="elq66gfrlf9x" class="animable"></path><path d="M43.18,297.11c2.54,3.41,5.43,6.67,7.79,10.2.07.1-.08.21-.16.13-3-2.84-5.6-6.73-7.8-10.23C42.94,297.1,43.11,297,43.18,297.11Z" style="fill: rgb(38, 50, 56); transform-origin: 46.9908px 302.265px;" id="ely8o5pva2eno" class="animable"></path><path d="M51.33,308.1l.1.11a.08.08,0,0,1-.11.12l-.11-.11C51.13,308.15,51.25,308,51.33,308.1Z" style="fill: rgb(38, 50, 56); transform-origin: 51.3196px 308.209px;" id="eltwoyk1896l" class="animable"></path><path d="M29.29,305.89a39.12,39.12,0,0,0,8.29,19.44,20.59,20.59,0,0,0,6.72,5.24c2.91,1.44,6,3.1,9,4.28a58.45,58.45,0,0,1,3.18,11.28c.1-.33.19-.67.29-1-1.93-16.6-12.67-30.79-26.41-39.9A.67.67,0,0,0,29.29,305.89Z" style="fill: #FFC100; transform-origin: 43.0234px 325.609px;" id="elnjsdc3yx8u" class="animable"></path><path d="M34,310.79c-.1-.09,0-.26.14-.18a56.17,56.17,0,0,1,17.5,21.57c.1.23-.21.43-.34.2-.64-1.12-1.29-2.2-2-3.27h0c-3.13-.59-6.1-2.8-8.43-4.89-.06-.06,0-.15.09-.1a19.59,19.59,0,0,0,4,2.79c1.28.65,2.65,1.06,4,1.58-1.16-1.85-2.37-3.61-3.63-5.33a36.48,36.48,0,0,1-9.43-5.3c-.09-.06,0-.21.09-.15a93.39,93.39,0,0,0,8.76,4.68,79.25,79.25,0,0,0-6.18-7.21c-1.07-.56-2.15-1.13-3.18-1.73-.09-.05,0-.19.06-.16a11.27,11.27,0,0,1,2.44,1.2C36.68,313.24,35.41,312,34,310.79Z" style="fill: rgb(38, 50, 56); transform-origin: 42.8095px 321.536px;" id="elq2v049gxjec" class="animable"></path><path d="M34.33,316.52a3.94,3.94,0,0,1,.53.38s0,.11-.07.09a4.37,4.37,0,0,1-.55-.32C34.15,316.61,34.23,316.46,34.33,316.52Z" style="fill: rgb(38, 50, 56); transform-origin: 34.5304px 316.749px;" id="elsju3zfdgyo" class="animable"></path><polygon points="78.17 382.07 40.52 382.07 43.56 347.79 44.23 340.23 74.46 340.23 75.13 347.79 78.17 382.07" style="fill: rgb(69, 90, 100); transform-origin: 59.345px 361.15px;" id="el57nxkzvkoqr" class="animable"></polygon><polygon points="75.13 347.79 43.56 347.79 44.23 340.23 74.46 340.23 75.13 347.79" style="fill: rgb(38, 50, 56); transform-origin: 59.345px 344.01px;" id="elxwsohwtiyys" class="animable"></polygon><rect x="42.43" y="334.94" width="33.84" height="7.48" style="fill: rgb(69, 90, 100); transform-origin: 59.35px 338.68px;" id="eljbijxe169jf" class="animable"></rect></g><g id="freepik--Floor--inject-4" class="animable" style="transform-origin: 250px 382.07px;"><polygon points="35.33 382.07 89 381.83 142.66 381.74 250 381.57 357.34 381.74 411 381.83 464.67 382.07 411 382.32 357.34 382.4 250 382.57 142.66 382.4 89 382.31 35.33 382.07" style="fill: rgb(38, 50, 56); transform-origin: 250px 382.07px;" id="elinfm91x8dkc" class="animable"></polygon></g><g id="freepik--Chairs--inject-4" class="animable" style="transform-origin: 250px 328.535px;"><rect x="94.25" y="365.8" width="39.09" height="3.16" style="fill: rgb(199, 199, 199); transform-origin: 113.795px 367.38px;" id="elvp4n7efkn6" class="animable"></rect><polygon points="97.51 256.43 97.3 271.4 95.98 365.8 95.94 368.96 95.35 410.6 93.14 410.6 92.56 368.96 92.52 365.8 91.2 271.4 90.99 256.43 97.51 256.43" style="fill: rgb(199, 199, 199); transform-origin: 94.25px 333.515px;" id="elwetvw3m2mw9" class="animable"></polygon><polygon points="90.99 256.43 97.51 256.43 97.3 271.4 91.2 271.4 90.99 256.43" style="fill: rgb(166, 166, 166); transform-origin: 94.25px 263.915px;" id="elmls7v12tezm" class="animable"></polygon><polygon points="136.59 256.43 136.38 271.4 134.44 410.6 132.22 410.6 131.64 368.96 131.6 365.8 130.28 271.4 130.07 256.43 136.59 256.43" style="fill: rgb(199, 199, 199); transform-origin: 133.33px 333.515px;" id="elet72mirama8" class="animable"></polygon><polygon points="136.59 256.43 136.38 271.4 130.28 271.4 130.07 256.43 136.59 256.43" style="fill: rgb(166, 166, 166); transform-origin: 133.33px 263.915px;" id="el2fxwil2i5m7" class="animable"></polygon><rect x="74.73" y="365.8" width="38.37" height="3.16" style="fill: rgb(199, 199, 199); transform-origin: 93.915px 367.38px;" id="elwjcwxl0u10m" class="animable"></rect><polygon points="77.98 256.43 77.78 271.4 76.45 365.8 76.41 368.96 75.83 410.6 73.62 410.6 71.67 271.4 71.47 256.43 77.98 256.43" style="fill: rgb(199, 199, 199); transform-origin: 74.725px 333.515px;" id="el7t6irfaalcc" class="animable"></polygon><polygon points="71.47 256.43 77.98 256.43 77.78 271.4 71.67 271.4 71.47 256.43" style="fill: rgb(166, 166, 166); transform-origin: 74.725px 263.915px;" id="elmzi32nyjse" class="animable"></polygon><polygon points="116.36 256.43 116.15 271.4 114.83 365.8 114.78 368.96 114.2 410.6 111.99 410.6 111.41 368.96 111.37 365.8 110.05 271.4 109.84 256.43 116.36 256.43" style="fill: rgb(199, 199, 199); transform-origin: 113.1px 333.515px;" id="eljdojn6srfbq" class="animable"></polygon><polygon points="109.84 256.43 116.36 256.43 116.15 271.4 110.05 271.4 109.84 256.43" style="fill: rgb(166, 166, 166); transform-origin: 113.1px 263.915px;" id="el8nk71a7d8si" class="animable"></polygon><rect x="68.88" y="246.47" width="71.1" height="11.2" style="fill: #FFC100; transform-origin: 104.43px 252.07px;" id="elwwp3dn80ym" class="animable"></rect><g id="el6r6qurs69rv"><rect x="68.88" y="246.47" width="56.26" height="11.2" style="fill: rgb(38, 50, 56); opacity: 0.1; transform-origin: 97.01px 252.07px;" class="animable" id="el1v77k9l3wjt"></rect></g><rect x="385.39" y="365.8" width="39.09" height="3.16" style="fill: rgb(199, 199, 199); transform-origin: 404.935px 367.38px;" id="el71zb8d8b86i" class="animable"></rect><polygon points="388.65 256.43 388.45 271.4 387.13 365.8 387.08 368.96 386.5 410.6 384.29 410.6 383.71 368.96 383.67 365.8 382.35 271.4 382.14 256.43 388.65 256.43" style="fill: rgb(199, 199, 199); transform-origin: 385.395px 333.515px;" id="el4is8kmstznn" class="animable"></polygon><polygon points="382.14 256.43 388.65 256.43 388.45 271.4 382.35 271.4 382.14 256.43" style="fill: rgb(166, 166, 166); transform-origin: 385.395px 263.915px;" id="elsjqrngd5kt" class="animable"></polygon><polygon points="427.74 256.43 427.53 271.4 425.58 410.6 423.37 410.6 422.79 368.96 422.75 365.8 421.43 271.4 421.22 256.43 427.74 256.43" style="fill: rgb(199, 199, 199); transform-origin: 424.48px 333.515px;" id="elecnqixmaaqv" class="animable"></polygon><polygon points="427.74 256.43 427.53 271.4 421.43 271.4 421.22 256.43 427.74 256.43" style="fill: rgb(166, 166, 166); transform-origin: 424.48px 263.915px;" id="eldu5t4zplkpl" class="animable"></polygon><rect x="365.88" y="365.8" width="38.37" height="3.16" style="fill: rgb(199, 199, 199); transform-origin: 385.065px 367.38px;" id="elp0elousc5z" class="animable"></rect><polygon points="369.13 256.43 368.92 271.4 367.6 365.8 367.56 368.96 366.98 410.6 364.77 410.6 362.82 271.4 362.61 256.43 369.13 256.43" style="fill: rgb(199, 199, 199); transform-origin: 365.87px 333.515px;" id="elhffj2d8afg" class="animable"></polygon><polygon points="362.61 256.43 369.13 256.43 368.92 271.4 362.82 271.4 362.61 256.43" style="fill: rgb(166, 166, 166); transform-origin: 365.87px 263.915px;" id="elaqiwhzm5be" class="animable"></polygon><polygon points="407.5 256.43 407.3 271.4 405.97 365.8 405.93 368.96 405.35 410.6 403.14 410.6 402.56 368.96 402.51 365.8 401.19 271.4 400.99 256.43 407.5 256.43" style="fill: rgb(199, 199, 199); transform-origin: 404.245px 333.515px;" id="elg140fnw1s4" class="animable"></polygon><polygon points="400.99 256.43 407.5 256.43 407.3 271.4 401.19 271.4 400.99 256.43" style="fill: rgb(166, 166, 166); transform-origin: 404.245px 263.915px;" id="elwt6abmg6pei" class="animable"></polygon><rect x="360.02" y="246.47" width="71.1" height="11.2" style="fill: #FFC100; transform-origin: 395.57px 252.07px;" id="ell22xpwk4l4f" class="animable"></rect><g id="elxzjwm1u0dqf"><rect x="360.02" y="246.47" width="56.26" height="11.2" style="fill: rgb(38, 50, 56); opacity: 0.1; transform-origin: 388.15px 252.07px;" class="animable" id="elbzygqkf00d"></rect></g><rect x="288.58" y="365.8" width="39.09" height="3.16" style="fill: rgb(199, 199, 199); transform-origin: 308.125px 367.38px;" id="el9254k5tds8f" class="animable"></rect><polygon points="291.84 256.43 291.63 271.4 290.31 365.8 290.27 368.96 289.69 410.6 287.48 410.6 286.9 368.96 286.85 365.8 285.53 271.4 285.32 256.43 291.84 256.43" style="fill: rgb(199, 199, 199); transform-origin: 288.58px 333.515px;" id="el9k51mmo5hy6" class="animable"></polygon><polygon points="285.32 256.43 291.84 256.43 291.63 271.4 285.53 271.4 285.32 256.43" style="fill: rgb(166, 166, 166); transform-origin: 288.58px 263.915px;" id="elca1e08j5yi" class="animable"></polygon><polygon points="330.92 256.43 330.72 271.4 328.77 410.6 326.56 410.6 325.98 368.96 325.94 365.8 324.62 271.4 324.41 256.43 330.92 256.43" style="fill: rgb(199, 199, 199); transform-origin: 327.665px 333.515px;" id="el3l7tho02zd2" class="animable"></polygon><polygon points="330.92 256.43 330.72 271.4 324.62 271.4 324.41 256.43 330.92 256.43" style="fill: rgb(166, 166, 166); transform-origin: 327.665px 263.915px;" id="elhjdsy7te9au" class="animable"></polygon><rect x="269.06" y="365.8" width="38.37" height="3.16" style="fill: rgb(199, 199, 199); transform-origin: 288.245px 367.38px;" id="eln4vr75kmqhm" class="animable"></rect><polygon points="272.32 256.43 272.11 271.4 270.79 365.8 270.75 368.96 270.17 410.6 267.95 410.6 266.01 271.4 265.8 256.43 272.32 256.43" style="fill: rgb(199, 199, 199); transform-origin: 269.06px 333.515px;" id="el7mk5484w70u" class="animable"></polygon><polygon points="265.8 256.43 272.32 256.43 272.11 271.4 266.01 271.4 265.8 256.43" style="fill: rgb(166, 166, 166); transform-origin: 269.06px 263.915px;" id="el9ny66a2ttx" class="animable"></polygon><polygon points="310.69 256.43 310.48 271.4 309.16 365.8 309.12 368.96 308.54 410.6 306.33 410.6 305.75 368.96 305.7 365.8 304.38 271.4 304.17 256.43 310.69 256.43" style="fill: rgb(199, 199, 199); transform-origin: 307.43px 333.515px;" id="elecmis5y69rk" class="animable"></polygon><polygon points="304.17 256.43 310.69 256.43 310.48 271.4 304.38 271.4 304.17 256.43" style="fill: rgb(166, 166, 166); transform-origin: 307.43px 263.915px;" id="elqrdhbbjns39" class="animable"></polygon><rect x="263.21" y="246.47" width="71.1" height="11.2" style="fill: #FFC100; transform-origin: 298.76px 252.07px;" id="eli8nyc4d9a1n" class="animable"></rect><g id="elnjsld3we50n"><rect x="263.21" y="246.47" width="56.26" height="11.2" style="fill: rgb(38, 50, 56); opacity: 0.1; transform-origin: 291.34px 252.07px;" class="animable" id="el4lmf6u17ffw"></rect></g></g><g id="freepik--Lines--inject-4" class="animable animator-hidden" style="transform-origin: 250px 130.62px;"><path d="M249.51,97.4a24.53,24.53,0,0,1-.59-5.16,23.82,23.82,0,0,1,.4-5.18,23.76,23.76,0,0,1,.6,5.16A24.52,24.52,0,0,1,249.51,97.4Z" style="fill: rgb(38, 50, 56); transform-origin: 249.418px 92.23px;" id="eli4p0sjd4w8" class="animable"></path><path d="M225.9,104a27.07,27.07,0,0,1-5.33-8.86,23.88,23.88,0,0,1,3.09,4.18A23.44,23.44,0,0,1,225.9,104Z" style="fill: rgb(38, 50, 56); transform-origin: 223.235px 99.57px;" id="ely14h23h0qz" class="animable"></path><path d="M208.75,121.49a26.79,26.79,0,0,1-9.05-5,24.11,24.11,0,0,1,4.77,2.06A24.64,24.64,0,0,1,208.75,121.49Z" style="fill: rgb(38, 50, 56); transform-origin: 204.225px 118.99px;" id="elfpwg4is2koi" class="animable"></path><path d="M202.65,145.24a24.53,24.53,0,0,1-5.16.59,23.82,23.82,0,0,1-5.18-.4,26.72,26.72,0,0,1,10.34-.19Z" style="fill: rgb(38, 50, 56); transform-origin: 197.48px 145.334px;" id="el7cdns7u646s" class="animable"></path><path d="M209.24,168.85a24.39,24.39,0,0,1-4.18,3.09,23.44,23.44,0,0,1-4.68,2.24,27.07,27.07,0,0,1,8.86-5.33Z" style="fill: rgb(38, 50, 56); transform-origin: 204.81px 171.515px;" id="els9xk1zdhwkf" class="animable"></path><path d="M291.25,168a24.14,24.14,0,0,1,4.77,2.07A22.76,22.76,0,0,1,300.3,173a27,27,0,0,1-9.05-5Z" style="fill: rgb(38, 50, 56); transform-origin: 295.775px 170.5px;" id="elwtk14p24zu" class="animable"></path><path d="M297.35,144.26a26.72,26.72,0,0,1,10.34-.19,23.21,23.21,0,0,1-5.16.59A23.87,23.87,0,0,1,297.35,144.26Z" style="fill: rgb(38, 50, 56); transform-origin: 302.52px 144.164px;" id="elgnz6ve9qrgw" class="animable"></path><path d="M290.76,120.65a24.45,24.45,0,0,1,4.18-3.1,24,24,0,0,1,4.68-2.24,23.5,23.5,0,0,1-4.17,3.1A24.08,24.08,0,0,1,290.76,120.65Z" style="fill: rgb(38, 50, 56); transform-origin: 295.19px 117.98px;" id="el9t3ep60yqd" class="animable"></path><path d="M273.25,103.5a24.14,24.14,0,0,1,2.07-4.77,23.75,23.75,0,0,1,2.94-4.28,23.8,23.8,0,0,1-2.07,4.76A24.18,24.18,0,0,1,273.25,103.5Z" style="fill: rgb(38, 50, 56); transform-origin: 275.755px 98.975px;" id="el38fntqe7g8t" class="animable"></path></g><g id="freepik--character-2--inject-4" class="animable" style="transform-origin: 331.275px 272.092px;"><path d="M301.89,446.17c2.17.7,64.2-.1,66.54-1.63.9-.57,1.31-9.62,1.49-20.56v-.34c.05-2.26.08-4.58.08-6.93,0-.33,0-.65,0-1,.09-15.8-.16-32.18-.16-32.18l-41.5.41,1.25,31.88,0,1.26.25,6.6,0,.68s-23.6,10.93-26,12.88S299.71,445.48,301.89,446.17Z" style="fill: rgb(235, 148, 129); transform-origin: 335.456px 414.978px;" id="el4sw9m6e0bk" class="animable"></path><path d="M301.89,446.17c2.17.7,64.2-.1,66.54-1.63.9-.57,1.31-9.62,1.49-20.56v-.34c.05-2.26.08-4.58.08-6.93,0-.33,0-.65,0-1l-40.41.11,0,1.26.25,6.6,0,.68s-23.6,10.93-26,12.88S299.71,445.48,301.89,446.17Z" style="fill: rgb(235, 235, 235); transform-origin: 335.446px 431.068px;" id="elul0przw6lmh" class="animable"></path><path d="M301.88,446.17c1.35.44,25.38.29,44.19-.24,11.75-.32,21.46-.8,22.36-1.39s1.3-9.36,1.48-20.1c0-.15,0-.3,0-.45s0-.24,0-.36l-40,.08,0,.68s-23.61,10.92-26,12.88S299.71,445.48,301.88,446.17Z" style="fill: #FFC100; transform-origin: 335.409px 435.029px;" id="el16scxmiy005" class="animable"></path><path d="M302.56,443.76c10.45-.4,52.65-1,63-.59.08,0,.08.07,0,.07-10.35.62-52.55.87-63,.69C302.34,443.92,302.33,443.76,302.56,443.76Z" style="fill: rgb(38, 50, 56); transform-origin: 334.006px 443.51px;" id="el9ddxvtj7hcr" class="animable"></path><path d="M325.45,423.88c4.1-.82,9.14-.25,12.32,2.64.13.11,0,.28-.17.24a58.1,58.1,0,0,0-12.13-2.36A.26.26,0,0,1,325.45,423.88Z" style="fill: rgb(38, 50, 56); transform-origin: 331.511px 425.152px;" id="elsgs898mm2ag" class="animable"></path><path d="M322.5,425.71c4.1-.82,9.15-.25,12.33,2.64.12.11,0,.28-.17.24a57.56,57.56,0,0,0-12.14-2.36A.26.26,0,0,1,322.5,425.71Z" style="fill: rgb(38, 50, 56); transform-origin: 328.564px 426.982px;" id="elv055kbe5hv" class="animable"></path><path d="M319.55,427.54c4.11-.82,9.15-.26,12.33,2.63.12.12,0,.29-.17.25a57.59,57.59,0,0,0-12.13-2.36A.26.26,0,0,1,319.55,427.54Z" style="fill: rgb(38, 50, 56); transform-origin: 325.617px 428.811px;" id="elilmfirq1pi" class="animable"></path><path d="M321.9,420.81c2.94,2.23,6.74,3.1,10.15,4.32a.51.51,0,0,0,.64-.52c.07,0,.13-.07.1-.15a22,22,0,0,0-6.46-9.35c-1.74-1.42-4.76-2.38-6.35-.13S320.18,419.51,321.9,420.81Zm-1.09-3.29c-.78-4.51,4.09-2.2,5.33-1.1a23.05,23.05,0,0,1,2.21,2.32,63.88,63.88,0,0,1,3.89,5.38c-1.64-.7-3.32-1.25-5-1.89C325.27,421.47,321.24,420,320.81,417.52Z" style="fill: rgb(38, 50, 56); transform-origin: 326.081px 419.393px;" id="elll13yivkt0r" class="animable"></path><path d="M346.44,418c-1-2.56-4.19-2.31-6.21-1.33a21.91,21.91,0,0,0-8.43,7.61c-.05.07,0,.13.06.16a.51.51,0,0,0,.5.66c3.6-.4,7.5-.37,10.87-1.86C345.2,422.38,347.42,420.42,346.44,418Zm-8.75,5.38c-1.76.24-3.53.39-5.29.69a64.81,64.81,0,0,1,5-4.33,23.32,23.32,0,0,1,2.68-1.76c1.46-.78,6.74-1.91,4.94,2.3C344.06,422.61,339.8,423.11,337.69,423.39Z" style="fill: rgb(38, 50, 56); transform-origin: 339.229px 420.538px;" id="elde0imiwvcvp" class="animable"></path><path d="M346.07,445.93c11.75-.32,21.46-.8,22.36-1.39s1.3-9.36,1.48-20.1C365.09,428.74,353.12,439.41,346.07,445.93Z" style="fill: rgb(38, 50, 56); transform-origin: 357.99px 435.185px;" id="el9wn97wt5avp" class="animable"></path><path d="M382.58,204.87s-9.31,104.82-10.83,112.82c-.35,1.82-.57,11.73-.71,24.46-.33,27.79-.13,77.9-.13,77.9H327.18s1.3-86.83,3.23-102.81,14.31-112.37,14.31-112.37Z" style="fill: rgb(55, 71, 79); transform-origin: 354.88px 312.46px;" id="eltbgxrnumn3" class="animable"></path><path d="M329.16,412.43c6.82-.14,4.86-.2,11.68-.26,3.34,0,25.29-.23,28.41.29.06,0,.06.13,0,.14-3.12.52-25.07.32-28.41.29-6.82-.06-4.86-.12-11.68-.26A.1.1,0,0,1,329.16,412.43Z" style="fill: rgb(38, 50, 56); transform-origin: 349.177px 412.536px;" id="elg97x0fgxkpn" class="animable"></path><path d="M362.6,362.8q.07-9.53.14-19c0-6.14,0-12.29.33-18.43.59-12.42,3.11-24.64,4.9-36.93s3.29-24.62,4.65-37c1.52-13.85,2.86-27.73,4.28-41.59,0-.09.16-.09.15,0-2.06,24.76-4.36,49.5-7.79,74.11q-1.27,9.18-2.79,18.32c-1,6.17-2,12.35-2.52,18.59s-.56,12.23-.62,18.36q-.09,9.51-.19,19c-.13,14.08-.27,35.75-.41,49.83a.21.21,0,0,1-.42,0C362.41,395.5,362.5,375.35,362.6,362.8Z" style="fill: rgb(38, 50, 56); transform-origin: 369.68px 309.026px;" id="elji9c57l88k" class="animable"></path><path d="M391.8,204.87s-18.53,104.82-20.05,112.82c-.35,1.82-.57,11.73-.71,24.46v0L350.19,204.87Z" style="fill: rgb(38, 50, 56); transform-origin: 370.995px 273.51px;" id="elnhsssxc8z8h" class="animable"></path><path d="M352.66,449.87c2.22.54,64-4.65,66.26-6.35.86-.62.63-9.68,0-20.61,0-.11,0-.22,0-.34-.11-2.25-.25-4.57-.41-6.92,0-.32,0-.64-.06-1-1-15.76-2.44-32.08-2.44-32.08L374.66,386l3.5,31.71.14,1.26.71,6.56.08.67s-22.78,12.58-25,14.7S350.44,449.33,352.66,449.87Z" style="fill: rgb(235, 148, 129); transform-origin: 385.515px 416.24px;" id="elxgqx5x0p3lp" class="animable"></path><path d="M352.66,449.87c2.22.54,64-4.65,66.26-6.35.86-.62.63-9.68,0-20.61,0-.11,0-.22,0-.34-.11-2.25-.25-4.57-.41-6.92,0-.32,0-.64-.06-1l-40.3,3,.14,1.26.71,6.56.08.67s-22.78,12.58-25,14.7S350.44,449.33,352.66,449.87Z" style="fill: rgb(235, 235, 235); transform-origin: 385.513px 432.28px;" id="el4kl024w7jg4" class="animable"></path><path d="M352.66,449.87c2.22.54,64-4.65,66.26-6.35.86-.62.63-9.68,0-20.61,0-.11,0-.22,0-.34L379,425.48l.08.67s-22.78,12.58-25,14.7S350.44,449.33,352.66,449.87Z" style="fill: #FFC100; transform-origin: 385.513px 436.24px;" id="elph3n1omdeqb" class="animable"></path><path d="M353.16,447.41c10.4-1.13,52.45-4.71,62.81-5,.09,0,.09.05,0,.06-10.28,1.35-52.36,4.59-62.81,5.15C353,447.59,352.94,447.44,353.16,447.41Z" style="fill: rgb(38, 50, 56); transform-origin: 384.527px 445.015px;" id="elcf3mwfvl08i" class="animable"></path><path d="M374.58,426c4-1.11,9.11-.91,12.49,1.75.13.11,0,.29-.16.26a57.52,57.52,0,0,0-12.27-1.5A.26.26,0,0,1,374.58,426Z" style="fill: rgb(38, 50, 56); transform-origin: 380.757px 426.689px;" id="elmr7eps9ystg" class="animable"></path><path d="M371.77,428c4-1.11,9.11-.9,12.49,1.75.13.11,0,.29-.16.26a58.16,58.16,0,0,0-12.27-1.49A.27.27,0,0,1,371.77,428Z" style="fill: rgb(38, 50, 56); transform-origin: 377.954px 428.69px;" id="el01l1b74enz5s" class="animable"></path><path d="M369,430c4-1.11,9.11-.9,12.49,1.76.13.1,0,.28-.16.25A58.16,58.16,0,0,0,369,430.55.27.27,0,0,1,369,430Z" style="fill: rgb(38, 50, 56); transform-origin: 375.134px 430.69px;" id="elam0n6u6rk6m" class="animable"></path><path d="M370.83,423.16c3.09,2,6.94,2.61,10.43,3.58a.51.51,0,0,0,.6-.57A.11.11,0,0,0,382,426a22,22,0,0,0-7.11-8.86c-1.83-1.3-4.92-2-6.34.31S369,422,370.83,423.16Zm-1.32-3.22c-1.1-4.43,3.93-2.48,5.24-1.47a24.28,24.28,0,0,1,2.37,2.17c1.56,1.58,2.87,3.36,4.26,5.08-1.68-.58-3.4-1-5.11-1.53C374.24,423.57,370.11,422.39,369.51,419.94Z" style="fill: rgb(38, 50, 56); transform-origin: 375.045px 421.343px;" id="el3pghqr6m70d" class="animable"></path><path d="M395.11,418.62c-1.2-2.47-4.34-2-6.29-.89a22,22,0,0,0-7.87,8.19.1.1,0,0,0,.07.16c0,.31.17.69.54.62,3.57-.65,7.46-.9,10.72-2.63C394.18,423.07,396.25,421,395.11,418.62Zm-8.34,6c-1.75.36-3.5.64-5.23,1.06,1.54-1.59,3-3.24,4.7-4.68a24.24,24.24,0,0,1,2.56-1.94c1.4-.88,6.58-2.38,5.08,1.94C393.06,423.37,388.85,424.18,386.77,424.61Z" style="fill: rgb(38, 50, 56); transform-origin: 388.183px 421.768px;" id="elkfj7ataa658" class="animable"></path><path d="M377.23,422.41l43.69-1.85S409,324.7,408.77,318.81c-.57-15.29-10.73-114-10.73-114H344.68s3.37,22.78,9.13,37.22a66.59,66.59,0,0,1,11.16,5.1s5,65.26,5.18,73.4C370.52,336.65,377.23,422.41,377.23,422.41Z" style="fill: rgb(55, 71, 79); transform-origin: 382.8px 313.61px;" id="elr2xkcfizyng" class="animable"></path><path d="M378.39,414.4c6.81-.43,4.85-.4,11.67-.75,3.33-.18,25.25-1.3,28.39-.91.07,0,.07.12,0,.14-3.09.64-25,1.38-28.36,1.49-6.82.22-4.86.09-11.69.23C378.27,414.61,378.27,414.41,378.39,414.4Z" style="fill: rgb(38, 50, 56); transform-origin: 398.402px 413.629px;" id="el4hyf73aalb2" class="animable"></path><path d="M394.13,210.69c2,24.85,4,49.7,6.29,74.53s4.95,49.81,8.2,74.61c1.81,13.86,3.83,33.38,6,47.2,0,.09-.13.13-.15,0-4.4-24.54-7.63-55-10.39-79.76s-5-49.6-7-74.44c-1.13-14.06-2.16-28.12-3.23-42.17C393.8,210.49,394.11,210.49,394.13,210.69Z" style="fill: rgb(38, 50, 56); transform-origin: 404.232px 308.825px;" id="el55cdbh8ru25" class="animable"></path><path d="M351.9,241.07A82.57,82.57,0,0,1,365,247.16a.15.15,0,0,1-.12.27c-4.4-1.89-8.89-3.7-13.18-5.83A.29.29,0,0,1,351.9,241.07Z" style="fill: rgb(38, 50, 56); transform-origin: 358.317px 244.251px;" id="eleyoqvlvg0al" class="animable"></path><path d="M350.5,210.87c0-.15.28-.19.28,0,0,5.22.3,9.82.74,14.7.21,2.27,2,14.8,6,13.89.66-.16,1-.8,1.1-1.8a16.35,16.35,0,0,0-.52-3.84c-.44-2.62-.79-5.25-1-7.9a72.06,72.06,0,0,1,.16-14.83.13.13,0,0,1,.26,0,135.82,135.82,0,0,0,1.19,20.46c.5,3.26,2.14,8.17-1.27,8.67s-5.72-7.71-6.14-10A75.38,75.38,0,0,1,350.5,210.87Z" style="fill: rgb(38, 50, 56); transform-origin: 354.878px 225.492px;" id="elayh20koqy2n" class="animable"></path><path d="M357.38,239.77a22.09,22.09,0,0,1,.88,2.6,5.85,5.85,0,0,1,.37,2.14.15.15,0,0,1-.27.05,7.56,7.56,0,0,1-.92-2.07c-.3-.81-.61-1.6-.89-2.42A.44.44,0,0,1,357.38,239.77Z" style="fill: rgb(38, 50, 56); transform-origin: 357.577px 242.052px;" id="el19prnrvvf3c" class="animable"></path><path d="M375.17,215a7.39,7.39,0,0,1,.16-1.63.08.08,0,0,1,.16,0,6.65,6.65,0,0,1,.19,1.41c.05.54.12,1.08.18,1.62a24.07,24.07,0,0,0,.58,3.27,11.63,11.63,0,0,0,3,5.39,15.55,15.55,0,0,0,5.08,3.35,59,59,0,0,0,6.51,1.87c.09,0,.07.15,0,.16A18.82,18.82,0,0,1,384,229a15.06,15.06,0,0,1-5.29-3.38,11.73,11.73,0,0,1-3.09-5.55,16.47,16.47,0,0,1-.43-3.28A16.1,16.1,0,0,1,375.17,215Z" style="fill: rgb(38, 50, 56); transform-origin: 383.122px 221.865px;" id="el6ybksl4mvla" class="animable"></path><path d="M370.22,148.26c-2.52,8.05-24.11,46.27-36.68,49.73-10.25,2.83-38.58-15.14-41.92-16.58-9.15-3.94,11.59-30.22,16.22-26.62,7.74,6,18.06,16.05,19.7,15.51,5.73-1.91,23.83-19.92,35.3-29.19C369.75,135.52,373,139.36,370.22,148.26Z" style="fill: rgb(235, 148, 129); transform-origin: 330.264px 168.395px;" id="elbl5ngb6z5kg" class="animable"></path><path d="M358,179.13l-19.12-18s11.3-11.73,21-19.28,17.38-6.42,9.93,12S358,179.13,358,179.13Z" style="fill: #FFC100; transform-origin: 355.839px 158.3px;" id="elsgy4bskw4i" class="animable"></path><path d="M359.94,174.4c-7.8-6.4-15-14.29-16.32-15.57-.06-.06.05-.16.11-.09,1.26,1.33,10.48,9.47,16.33,15.56C360.12,174.37,360,174.46,359.94,174.4Z" style="fill: rgb(38, 50, 56); transform-origin: 351.839px 166.568px;" id="elxubc4kzfzrp" class="animable"></path><g id="elb6zhy4d2vnm"><path d="M369.8,153.85c-7.45,18.37-11.8,25.29-11.8,25.29l-13.44-12.63,23-28.8C372.76,136.49,375.07,140.86,369.8,153.85Z" style="opacity: 0.1; transform-origin: 358.673px 158.327px;" class="animable" id="eljc2t2ob1bn"></path></g><path d="M302.3,185.28c3.5-.71,11.64-24.45,9.24-27.22a14.19,14.19,0,0,0-3-2.17h0a51.82,51.82,0,0,1-7.33-13.28c-1.93-5.74-4.14-14.49-7.27-13.56-4.56,1.33-3.1,12.73-1.85,19.22-3.41-1.14-6.45-1.81-8.36-1.55-6.35.87-12.08,23.51-6.49,26.86C282.69,176.8,298.8,186,302.3,185.28Z" style="fill: rgb(235, 148, 129); transform-origin: 293.473px 157.151px;" id="ellyiyk99hz7r" class="animable"></path><g id="eldbp3wbpgqxr"><path d="M242.26,178.81l-.63,5.45,38.71,4.51.64-5.45-2.52-.29.44-3.77,11.5,1.34,3.78-32.45-11.5-1.34.81-6.94-28.25-3.3c-.22,0-.45,0-.67,0l-4.22-.49-4.77,41a1.43,1.43,0,0,0,0,.29l-.21,1.83Zm39.85-27.11,7.1.82-2.65,22.67-7.09-.82Z" style="fill: rgb(235, 235, 235); opacity: 0.7; transform-origin: 267.905px 162.425px;" class="animable" id="elksjr0q4j56n"></path></g><g id="elq3l8is5xlo"><rect x="251.11" y="141.05" width="26.27" height="39.69" style="fill: #FFC100; transform-origin: 264.245px 160.895px; transform: rotate(-173.35deg);" class="animable" id="eleq9hsgqxx2h"></rect></g><g id="el6xx9hkp93vn"><polygon points="264.28 180.88 274.99 182.13 279.59 142.71 277.45 142.46 264.28 180.88" style="opacity: 0.1; transform-origin: 271.935px 162.295px;" class="animable" id="elymu95hd9ilt"></polygon></g><g id="el6e29ths6i5"><g style="opacity: 0.1; transform-origin: 256.002px 171.462px;" class="animable" id="el9bli4hgo8ia"><path d="M252.73,173.12a1.8,1.8,0,1,1-.29,2.53A1.8,1.8,0,0,1,252.73,173.12Z" id="el75e5h49rva8" class="animable" style="transform-origin: 253.849px 174.53px;"></path><path d="M252.92,166.87a1.27,1.27,0,1,1-.2,1.79A1.27,1.27,0,0,1,252.92,166.87Z" id="elgoi1g9gf0uc" class="animable" style="transform-origin: 253.71px 167.864px;"></path><path d="M258.5,174.51a.9.9,0,1,1-.15,1.27A.91.91,0,0,1,258.5,174.51Z" id="elu5d7fbqwzy" class="animable" style="transform-origin: 259.056px 175.219px;"></path></g></g><path d="M281.22,145.81l-30.36-3.54a4.72,4.72,0,0,1-4.15-5.25h0a4.73,4.73,0,0,1,5.25-4.16l30.36,3.54a4.75,4.75,0,0,1,4.16,5.26h0A4.74,4.74,0,0,1,281.22,145.81Z" style="fill: rgb(235, 235, 235); transform-origin: 266.594px 139.335px;" id="elxu4qu9iqtrk" class="animable"></path><path d="M269.78,160.4h0a4.29,4.29,0,0,0,4.76-3.77l1.37-11.76a4.29,4.29,0,0,0-3.77-4.76h0a4.29,4.29,0,0,0-4.76,3.77L266,155.64A4.28,4.28,0,0,0,269.78,160.4Z" style="fill: rgb(235, 235, 235); transform-origin: 270.955px 150.255px;" id="elbh10fez386c" class="animable"></path><path d="M265.75,142.28l-.78,6.66a.91.91,0,0,1,1.8.21l.78-6.66a.91.91,0,0,0-.8-1A.9.9,0,0,0,265.75,142.28Z" style="fill: rgb(235, 235, 235); transform-origin: 266.263px 145.317px;" id="elslluosvfx0g" class="animable"></path><path d="M261.53,154.9h0a2.73,2.73,0,0,0,3-2.4l1.33-11.39a2.73,2.73,0,0,0-2.39-3h0a2.74,2.74,0,0,0-3,2.4l-1.33,11.39A2.74,2.74,0,0,0,261.53,154.9Z" style="fill: rgb(235, 235, 235); transform-origin: 262.5px 146.505px;" id="elfhe6r066d17" class="animable"></path><path d="M281.28,134.81a6.48,6.48,0,0,1-8.62,6.82,6.4,6.4,0,0,1-4.22-5.34,6.47,6.47,0,0,1,8.61-6.82A6.4,6.4,0,0,1,281.28,134.81Z" style="fill: rgb(235, 235, 235); transform-origin: 274.859px 135.549px;" id="elpxldhe7m66" class="animable"></path><path d="M271.28,133.2a8.9,8.9,0,1,1-6.13-7.75A8.9,8.9,0,0,1,271.28,133.2Z" style="fill: rgb(235, 235, 235); transform-origin: 262.409px 133.917px;" id="elogh1icbmm6" class="animable"></path><path d="M273.86,133.5a1.92,1.92,0,1,0,2.13-1.68A1.93,1.93,0,0,0,273.86,133.5Z" style="fill: rgb(255, 255, 255); transform-origin: 275.767px 133.728px;" id="el5mnbv4ccc0d" class="animable"></path><path d="M263.38,129.33a1.92,1.92,0,1,0,2.13-1.68A1.92,1.92,0,0,0,263.38,129.33Z" style="fill: rgb(255, 255, 255); transform-origin: 265.287px 129.557px;" id="el9btznhzh77v" class="animable"></path><path d="M277.5,137.68a1.17,1.17,0,1,0,1.3-1A1.16,1.16,0,0,0,277.5,137.68Z" style="fill: rgb(255, 255, 255); transform-origin: 278.659px 137.841px;" id="elnrzszfgcvd" class="animable"></path><path d="M270.63,157.14a1.18,1.18,0,1,0,1.31-1A1.17,1.17,0,0,0,270.63,157.14Z" style="fill: rgb(255, 255, 255); transform-origin: 271.797px 157.311px;" id="elmmn3fz5gyek" class="animable"></path><path d="M293.62,147.35c1.63,2.91-2.73,3.17-2.73,3.17s6.36,1.14,6.88,4.78-4.78,3.64-5.16,3.66c.34.06,6.16,1.26,6.3,5s-5.16,3.08-5.51,3c.3.16,4.21,2.33,3.68,5.18-.91,4.9-11.07-.39-14.86,1a14.22,14.22,0,0,1,.34,1.39s-8.33-1.59-10.07-4.54c-1.46-2.47,1.58-4.06,1.58-4.06s-3.32-1.21-3.53-4.13c-.1-1.5,2.21-3,2.21-3a4.35,4.35,0,0,1-2.64-3.69c0-2.09,2.29-3.27,2.29-3.27s-2-2.2-1.36-4.34C272.37,143.18,290.12,141.14,293.62,147.35Z" style="fill: rgb(235, 148, 129); transform-origin: 284.511px 158.982px;" id="elegm1oianqjh" class="animable"></path><path d="M272.74,151.59c-.06,0-.09-.07,0-.09a31,31,0,0,1,18.41-1c.2.05.19.39,0,.37A63.46,63.46,0,0,0,272.74,151.59Z" style="fill: rgb(38, 50, 56); transform-origin: 281.99px 150.572px;" id="elu1tcj9rk82i" class="animable"></path><path d="M272.65,158.76c-.06,0-.09-.1,0-.12a29,29,0,0,1,20.16.13c.22.09.33.4.06.31C288.37,157.63,278.32,157.61,272.65,158.76Z" style="fill: rgb(38, 50, 56); transform-origin: 282.811px 157.996px;" id="elr709qcve98d" class="animable"></path><path d="M293.79,167.31c-6.36-2.33-12.83-2.39-19.49-1.49-.08,0-.09-.12,0-.15,3.14-1.32,7.44-1.45,10.79-1.27a17.91,17.91,0,0,1,8.81,2.69C294,167.16,293.93,167.36,293.79,167.31Z" style="fill: rgb(38, 50, 56); transform-origin: 284.092px 165.827px;" id="eltdpn8p0qlti" class="animable"></path><path d="M291,150.45c.23.06-.12.33.11.4,1,.3,6.59,2.62,6.4,4.79-.17,1.73-2.61,2.72-3.69,2.73l-2.73,0,2.57.92a11,11,0,0,1,3.18,1.73,4,4,0,0,1,1.7,2.79,2.3,2.3,0,0,1-1.55,2.43,7,7,0,0,1-3.45.17l-3.19-.55,2.82,1.55a10.79,10.79,0,0,1,2.16,1.58,4.26,4.26,0,0,1,1.33,2.12,2.06,2.06,0,0,1-.7,2.05,4.66,4.66,0,0,1-2.47.64,36.69,36.69,0,0,1-5.58-.53c-.94-.13-1.89-.26-2.83-.35a6.79,6.79,0,0,0-2.84.18,7.54,7.54,0,0,1,2.8.08c.93.16,1.86.36,2.78.56a31.25,31.25,0,0,0,5.68.84,5.4,5.4,0,0,0,3-.67,3,3,0,0,0,1.16-3,5.36,5.36,0,0,0-1.58-2.67,11.6,11.6,0,0,0-2.38-1.79l-.37,1a7.92,7.92,0,0,0,4.09-.17,3.31,3.31,0,0,0,1.75-1.39,3.79,3.79,0,0,0,.48-2.16,5.06,5.06,0,0,0-2.14-3.54,12.29,12.29,0,0,0-3.53-1.85l-.16,1c1.38-.06,4.23-.86,4.82-3.52C298.85,152.24,292.21,150.65,291,150.45Z" style="fill: rgb(38, 50, 56); transform-origin: 290.951px 162.521px;" id="el5hniiaesv16" class="animable"></path><path d="M290.89,150.52a6.71,6.71,0,0,0,1.88-.81,1.56,1.56,0,0,0,.76-1.37,3.11,3.11,0,0,0-.79-1.61q-.64-.78-1.41-1.56a5.28,5.28,0,0,1,1.93,1.05,3.15,3.15,0,0,1,1.2,2.06,2.1,2.1,0,0,1-1.34,2.06A3.59,3.59,0,0,1,290.89,150.52Z" style="fill: rgb(38, 50, 56); transform-origin: 292.676px 147.895px;" id="elfini6cxb4gd" class="animable"></path><path d="M403.16,222.27c-.15.16-65.08-1.89-65.64-2.58-.8-1,13.1-65.44,24.13-79.09,2.76-3.41,12.05-4.34,15.7-.55,10.57,11,12.48,18.83,15,26.13,1.87,5.41,4,14.59,5.87,24C401.32,205.64,403.72,221.67,403.16,222.27Z" style="fill: #FFC100; transform-origin: 370.364px 179.938px;" id="elq9grejto9z" class="animable"></path><g id="el9urp39u8tq"><polygon points="364.05 160.32 373.47 160.95 372.94 169.94 367.93 172.22 363.45 169.45 364.05 160.32" style="opacity: 0.1; transform-origin: 368.46px 166.27px;" class="animable" id="elp2fqbm5b9yj"></polygon></g><path d="M380.87,144.84c13.71,11.44,39.06,43.71,35.27,50-8.6,14.23-26.4,29.19-33.83,33.67-3.21,1.94-22.15-20.1-19.41-23,3.29-3.5,25.9-19.88,25.71-21.13s-9.37-17.43-14.44-30.66C367.89,137.26,375.15,140.07,380.87,144.84Z" style="fill: rgb(235, 148, 129); transform-origin: 389.576px 184.89px;" id="eltmg8p4xbprl" class="animable"></path><path d="M375.09,200.44s-11.38-.37-18.84-.27c-4.16.06-11.28.8-14.32,2.24-4.54,2.16-22.16,14.08-19.36,18.41,2.53,3.93,16.37-8.24,16.37-8.24s-15.05,11-11.13,15.21,17.72-11.66,17.72-11.66S330.32,227.82,335,231.47c3.57,2.76,16.88-10.86,16.88-10.86s-13,10.13-9.45,13.13c3.92,3.32,17-8.49,17-8.49,10.3,6.1,17.68,5.37,22.85,3.24C383.52,228,375.09,200.44,375.09,200.44Z" style="fill: rgb(235, 148, 129); transform-origin: 352.337px 217.241px;" id="elwok8wu9c06" class="animable"></path><path d="M343.2,209c-11.7,7.28-15.21,14.44-15.08,14.27,3.11-4.05,9.12-9.12,10.81-10.51s2.63-2.31,4.33-3.7C343.3,209,343.24,209,343.2,209Z" style="fill: rgb(38, 50, 56); transform-origin: 335.695px 216.136px;" id="el0b45w4remfue" class="animable"></path><path d="M349,214.48A47.06,47.06,0,0,0,336.2,225c-.12.18,0,.19.14,0,2.11-1.82,10.54-8.84,12.73-10.55A0,0,0,0,0,349,214.48Z" style="fill: rgb(38, 50, 56); transform-origin: 342.61px 219.794px;" id="el7vb7ap5kwrm" class="animable"></path><path d="M354.36,218.87a34.71,34.71,0,0,0-9.68,8.47c-.14.17,0,.18.18,0,3.17-2.88,5.63-5.16,9.58-8.39C354.5,218.94,354.44,218.82,354.36,218.87Z" style="fill: rgb(38, 50, 56); transform-origin: 349.544px 223.165px;" id="elzfajaj6a2zc" class="animable"></path><path d="M405.84,167l-23.78,11.08s-6.69-14.84-10.11-26.64.49-18.53,14.79-4.79S405.84,167,405.84,167Z" style="fill: #FFC100; transform-origin: 388.315px 158.54px;" id="elqt103j3px3" class="animable"></path><path d="M401.6,163.44c-8.8,4.92-18.76,8.72-20.45,9.51-.08,0-.13-.1,0-.14,1.7-.68,12.64-6.29,20.45-9.52C401.64,163.26,401.69,163.39,401.6,163.44Z" style="fill: rgb(38, 50, 56); transform-origin: 391.36px 168.118px;" id="elv9uwtjnoe2" class="animable"></path><path d="M381.86,178.45c-1.42-2.95-2.78-6.21-4-9.26-.42-1.07-.79-2.15-1.17-3.22-.65-1.08-1.18-2.24-1.74-3.36-.05-.1.1-.16.15-.07l1,1.86c-.5-1.48-1-3-1.43-4.48,0,0,.06-.08.08,0,1.15,3,2.36,6.06,3.59,9.07s2.36,6.09,3.67,9.06c0,0,2.84-1.3,2.84-1.24S381.87,178.48,381.86,178.45Z" style="fill: rgb(38, 50, 56); transform-origin: 379.76px 169.167px;" id="elfg9g44tk9z" class="animable"></path><path d="M364.8,148.77c2.69.53,9.08-3.69,11.92-7.63.19-.27.12-3.38.22-7.16.07-2.29.21-4.84.49-7.16l-15,1.73a37.07,37.07,0,0,1,.3,9.08,5.18,5.18,0,0,1-.22.94,1.55,1.55,0,0,0,0,.15C362,140.5,360.59,147.94,364.8,148.77Z" style="fill: rgb(235, 148, 129); transform-origin: 369.649px 137.818px;" id="elpyvxk59j2cs" class="animable"></path><path d="M362.53,138.57a.5.5,0,0,0,0,.16A10,10,0,0,0,364,139c8.3.84,11.57-9,12.38-12.05l-13.91,1.6a38,38,0,0,1,.31,9.09A8.62,8.62,0,0,1,362.53,138.57Z" style="fill: rgb(38, 50, 56); transform-origin: 369.425px 133px;" id="elocy3r3sp9ko" class="animable"></path><path d="M380.14,107.19c1.57,5.2-1.21,20.21-4.92,23.55-5.37,4.84-14.15,5.28-18.26-1.17-4-6.26,0-25.76,4.13-28.79C367.19,96.31,377.81,99.5,380.14,107.19Z" style="fill: rgb(235, 148, 129); transform-origin: 367.947px 116.565px;" id="elxjj5ohjkex" class="animable"></path><path d="M366.32,115.53s.06.06.06.1c-.23,1-.32,2.19.53,2.7,0,0,0,.07,0,.06C365.8,118,365.94,116.44,366.32,115.53Z" style="fill: rgb(38, 50, 56); transform-origin: 366.477px 116.96px;" id="elg68rpx8wxwj" class="animable"></path><path d="M367.42,114.65c1.65.19,1.15,3.47-.38,3.29S366,114.49,367.42,114.65Z" style="fill: rgb(38, 50, 56); transform-origin: 367.273px 116.296px;" id="elunaq6bcxzua" class="animable"></path><path d="M360.34,114.4s-.09,0-.1.08c-.12,1-.43,2.17-1.4,2.36,0,0,0,.06,0,.06C360,116.92,360.38,115.39,360.34,114.4Z" style="fill: rgb(38, 50, 56); transform-origin: 359.591px 115.65px;" id="elkjkwidnpqei" class="animable"></path><path d="M359.59,113.2c-1.62-.38-2.25,2.88-.75,3.23S360.94,113.51,359.59,113.2Z" style="fill: rgb(38, 50, 56); transform-origin: 359.166px 114.813px;" id="el98biyx2d8zf" class="animable"></path><path d="M369,113.34a11.67,11.67,0,0,1-1.21-.64,2.15,2.15,0,0,1-1.1-.89.71.71,0,0,1,.24-.82,1.74,1.74,0,0,1,1.76.09,2.49,2.49,0,0,1,1.29,1.32A.74.74,0,0,1,369,113.34Z" style="fill: rgb(38, 50, 56); transform-origin: 368.335px 112.096px;" id="el62o5fjadxfk" class="animable"></path><path d="M358.64,111.74a12.27,12.27,0,0,0,1.36-.13,2.25,2.25,0,0,0,1.36-.41.71.71,0,0,0,.09-.85,1.76,1.76,0,0,0-1.67-.59,2.56,2.56,0,0,0-1.69.73A.75.75,0,0,0,358.64,111.74Z" style="fill: rgb(38, 50, 56); transform-origin: 359.725px 110.735px;" id="elohogj2amans" class="animable"></path><path d="M365.81,125.11c-.28.2-.57.49-.95.46a2.79,2.79,0,0,1-1.05-.42s-.07,0-.05,0a1.38,1.38,0,0,0,1.2.75,1.08,1.08,0,0,0,.94-.77C365.93,125.11,365.85,125.08,365.81,125.11Z" style="fill: rgb(38, 50, 56); transform-origin: 364.831px 125.499px;" id="eldou6rvoa7pq" class="animable"></path><path d="M365.21,121.9a3.56,3.56,0,0,1-2.55,1.19,4.84,4.84,0,0,1-1.25-.14,1.05,1.05,0,0,1-.24-.06l-.21-.07a.25.25,0,0,1-.17-.26h0s0-.06,0-.1h0v-.09c.1-.78.36-2,.36-2-.31.1-1.87.53-1.78.13a52.78,52.78,0,0,1,2.94-10.27.1.1,0,0,1,.19,0c-.57,3.25-1.7,6.38-2.32,9.64a6,6,0,0,1,1.71-.25c.1,0-.54,2.27-.56,2.63v0a4.86,4.86,0,0,0,3.76-.57C365.21,121.75,365.28,121.83,365.21,121.9Z" style="fill: rgb(38, 50, 56); transform-origin: 362.302px 116.626px;" id="elzb72zgzeu8" class="animable"></path><path d="M361.93,122.63a4.12,4.12,0,0,0,1.45,1.52,1.82,1.82,0,0,0,1.11.24c.85-.09,1-.83.93-1.49a4.3,4.3,0,0,0-.22-1A5.37,5.37,0,0,1,361.93,122.63Z" style="fill: rgb(38, 50, 56); transform-origin: 363.683px 123.15px;" id="elcpx3wk1p9f" class="animable"></path><path d="M363.38,124.15a1.82,1.82,0,0,0,1.11.24c.85-.09,1-.83.93-1.49A1.94,1.94,0,0,0,363.38,124.15Z" style="fill: rgb(255, 155, 188); transform-origin: 364.408px 123.644px;" id="eluvoz394ekq" class="animable"></path><path d="M378.81,118.63c-2.6-.26-2.08-6.62-2.08-6.62s-3.94-.89-5.66-6.42c0,0-5.25,3-9.51,2-6.67-1.5-6.12-10.23-3.53-11.91,3.67-2.37,9.87,1.57,9.87,1.57s9.73-2.27,12.32,4.35a4.94,4.94,0,0,1,4.38,5.12C384.69,111.5,380.75,118.83,378.81,118.63Z" style="fill: rgb(38, 50, 56); transform-origin: 370.417px 106.778px;" id="elznql69zfg9" class="animable"></path><path d="M377.63,112.8a8.87,8.87,0,0,1-4.9-3,6.62,6.62,0,0,1-1.29-6c0-.11-.14-.16-.17,0a7.66,7.66,0,0,0,.8,6.43,6.18,6.18,0,0,0,5.54,2.72C377.71,113,377.75,112.82,377.63,112.8Z" style="fill: rgb(38, 50, 56); transform-origin: 374.301px 108.331px;" id="elco8czfzppnp" class="animable"></path><path d="M385.06,104c-1.26-1.73-3.27-2.08-5.27-2.1-.11,0-.11.19,0,.18a5.58,5.58,0,0,1,4.86,2.91c.94,1.62.63,3.6.15,5.32a14,14,0,0,1-5.93,8.09c-.05,0,0,.1.05.08a14,14,0,0,0,6.64-8.85C386,107.8,386.21,105.59,385.06,104Z" style="fill: rgb(38, 50, 56); transform-origin: 382.38px 110.191px;" id="elcos8aj8cyih" class="animable"></path><path d="M368.15,97.61a6.6,6.6,0,0,0-3.57-3A7.88,7.88,0,0,0,359,95a4.42,4.42,0,0,0-2.48,3.68,7.81,7.81,0,0,0,1.55,5s.09,0,.06,0a7.8,7.8,0,0,1-1.18-4.56,4.12,4.12,0,0,1,2.56-3.52c2.81-1.11,6.83-.73,8.52,2.15A.09.09,0,0,0,368.15,97.61Z" style="fill: rgb(38, 50, 56); transform-origin: 362.348px 98.977px;" id="elc0undly8x2l" class="animable"></path><path d="M376.9,119.42s3.5-4.78,5.68-3.52-.54,8.24-3.15,9.15a2.63,2.63,0,0,1-3.49-1.5Z" style="fill: rgb(235, 148, 129); transform-origin: 379.657px 120.474px;" id="elogqxjhhx0xk" class="animable"></path><path d="M381.75,117.88a0,0,0,0,1,0,.07c-1.83.7-2.82,2.36-3.53,4.08a1.45,1.45,0,0,1,2.18-.34s0,.11-.05.09a1.61,1.61,0,0,0-1.79.53,7.7,7.7,0,0,0-.89,1.42c-.09.16-.38.07-.31-.12v0C377.39,121.26,379.26,118.06,381.75,117.88Z" style="fill: rgb(38, 50, 56); transform-origin: 379.55px 120.846px;" id="elefmpa6p19gi" class="animable"></path></g><g id="freepik--character-1--inject-4" class="animable" style="transform-origin: 161.022px 274.441px;"><path d="M119.4,148C99.88,165.17,82.82,185.64,84,193.51c1.63,10.59,16.38,31.15,25,41.12,2.54,2.93,24.93-17.3,22.22-20.44-3.28-3.78-20.55-23.1-20.75-23.56-.43-1,12-28.24,15.1-34.67C130.83,145.21,128.07,140.33,119.4,148Z" style="fill: rgb(173, 99, 89); transform-origin: 107.695px 189.592px;" id="elgdyo45u07u" class="animable"></path><path d="M122.79,248.92c-5.61-3.19-14.51-14.19-15.64-17.67s17.08-19.25,20.76-18.51,21.71,12.94,24.14,19.06S128.59,252.23,122.79,248.92Z" style="fill: rgb(173, 99, 89); transform-origin: 129.655px 231.063px;" id="eln50f6gpyaqo" class="animable"></path><path d="M146.43,223.14c-3.42.09-1.36,4.07-1.36,4.07s-4.34-5-7.83-3.55-.69,6.12-.51,6.46c-.23-.26-4.34-4.76-7.69-2.94s0,6.17.22,6.45c-.29-.18-4.26-2.48-6.49-.52-3.83,3.37,6.15,9.54,6.93,13.6,0,0-6.73,2.11-6.91,2.21,0,0,9.37,6.07,14.79,4.71a3.58,3.58,0,0,0,2.76-3.52s2.8,2.29,5.49.94c1.37-.7,1.48-3.52,1.48-3.52s2.33,1.74,4.64.39c1.85-1.07,1.67-3.74,1.67-3.74s3,.64,4.54-1.07C161.26,239.67,153.74,223,146.43,223.14Z" style="fill: rgb(173, 99, 89); transform-origin: 140.387px 238.484px;" id="elndcmx31paw" class="animable"></path><path d="M153.66,243.76a0,0,0,1,0,.09,0A31.78,31.78,0,0,0,145,227c-.15-.14-.45,0-.31.23A65.06,65.06,0,0,1,153.66,243.76Z" style="fill: rgb(38, 50, 56); transform-origin: 149.202px 235.352px;" id="el2vv3u6mfg47" class="animable"></path><path d="M147.38,247.6c0,.07.14,0,.12,0-1.2-6.28-4.9-13.34-10.69-17.68-.2-.15-.53-.09-.31.1C140.13,233.15,145.42,242,147.38,247.6Z" style="fill: rgb(38, 50, 56); transform-origin: 141.965px 238.733px;" id="eljql6xq3tfxc" class="animable"></path><path d="M128.76,233.46c5.39,4.39,8.84,10.06,11.54,16.39,0,.08.15,0,.14-.06-.48-3.45-2.62-7.31-4.55-10.17a18.26,18.26,0,0,0-7-6.34C128.79,233.22,128.64,233.37,128.76,233.46Z" style="fill: rgb(38, 50, 56); transform-origin: 134.578px 241.575px;" id="elg5ce5eqaio" class="animable"></path><path d="M145.07,227.21a21.16,21.16,0,0,0-3-2.38,7.08,7.08,0,0,0-3.43-1.28,2.34,2.34,0,0,0-1.56.53,3.36,3.36,0,0,0-1,1.4,4.09,4.09,0,0,0,.49,3.29l1.41,2.42-2.16-1.79a11.4,11.4,0,0,0-3.2-1.89,4.12,4.12,0,0,0-3.35,0,2.34,2.34,0,0,0-1.32,2.64,7,7,0,0,0,1.66,3.13l2.16,2.52L129,234.1a11.08,11.08,0,0,0-2.53-1.08,4.48,4.48,0,0,0-2.56-.06,2.14,2.14,0,0,0-1.44,1.7,4.69,4.69,0,0,0,.74,2.51,36.15,36.15,0,0,0,3.39,4.64c.61.76,1.22,1.52,1.79,2.31a6.8,6.8,0,0,1,1.33,2.59,7.55,7.55,0,0,0-1.54-2.42c-.62-.74-1.29-1.45-2-2.16a31.87,31.87,0,0,1-3.72-4.56,5.48,5.48,0,0,1-1-3,3,3,0,0,1,2-2.58,5.47,5.47,0,0,1,3.18,0,12.22,12.22,0,0,1,2.83,1.16l-.69.86a8.16,8.16,0,0,1-2-3.69,3.35,3.35,0,0,1,.31-2.27,3.87,3.87,0,0,1,1.64-1.57,5.2,5.2,0,0,1,4.25,0,12.58,12.58,0,0,1,3.48,2.13l-.76.64a4.88,4.88,0,0,1-.4-4.1,4.22,4.22,0,0,1,1.29-1.66,3,3,0,0,1,2-.59,7.19,7.19,0,0,1,3.59,1.61A16.76,16.76,0,0,1,145.07,227.21Z" style="fill: rgb(38, 50, 56); transform-origin: 133.265px 234.802px;" id="el4303gelgjb4" class="animable"></path><path d="M131.35,214.28s27.18,3.08,20.77,13.12c-1.91,3-13.29,12.95-15.34,10.7-2.64-2.9,1.33-7.95,4.33-10.72,0,0-9.39.25-11.52-6.24A6.77,6.77,0,0,1,131.35,214.28Z" style="fill: rgb(173, 99, 89); transform-origin: 141.194px 226.354px;" id="elgera5d07la7" class="animable"></path><path d="M152.6,226.53a14.42,14.42,0,0,1-2.35,3.45,31.7,31.7,0,0,1-2.95,3,47.55,47.55,0,0,1-6.69,5.06,7.56,7.56,0,0,1-2,.9,3,3,0,0,1-1.27.07,2,2,0,0,1-1.2-.67,3.46,3.46,0,0,1-.87-2.28,6.64,6.64,0,0,1,.4-2.24,12.49,12.49,0,0,1,2.22-3.71,29.14,29.14,0,0,1,2.93-3l.35.84a16.84,16.84,0,0,1-3.19-.33,16.24,16.24,0,0,1-3.05-.92,10.84,10.84,0,0,1-2.7-1.66,8.11,8.11,0,0,1-2-2.43,9.31,9.31,0,0,0,2.18,2.16,11.24,11.24,0,0,0,2.73,1.36,14.93,14.93,0,0,0,2.95.71,15.36,15.36,0,0,0,3,.14l1.24-.06-.89.9a31.14,31.14,0,0,0-2.73,3,12.42,12.42,0,0,0-2,3.41c-.41,1.18-.5,2.57.23,3.35s2,.17,3.12-.46a40.13,40.13,0,0,0,3.44-2.22c1.13-.79,2.24-1.59,3.32-2.44A27,27,0,0,0,152.6,226.53Z" style="fill: rgb(38, 50, 56); transform-origin: 141.415px 230.829px;" id="elqpbwrqk94v" class="animable"></path><path d="M98.71,163.2l21.19,10.59s5.21-12.68,8.48-22.92-3.68-10.19-13-2C104.62,158.33,98.71,163.2,98.71,163.2Z" style="fill: #FFC100; transform-origin: 113.955px 158.365px;" id="el4meaeqsft7" class="animable"></path><path d="M122.34,150.13a1.57,1.57,0,1,1-1.56-1.57A1.56,1.56,0,0,1,122.34,150.13Zm-3.06,23.35.62.31s.21-.5.56-1.39A1.56,1.56,0,0,0,119.28,173.48ZM113,160.66a1.57,1.57,0,1,0,1.56,1.56A1.56,1.56,0,0,0,113,160.66Z" style="fill: rgb(255, 255, 255); transform-origin: 116.88px 161.175px;" id="elexfw6pqt0kg" class="animable"></path><path d="M103.32,160.72c1.84.85,7.47,3.25,9,3.94,2.88,1.34,5.8,2.65,8.59,4.16,0,0,0,.05,0,0-3-1.09-6-2.43-8.88-3.75-1.45-.65-7.35-3.47-8.7-4.23C103.16,160.83,103.22,160.67,103.32,160.72Z" style="fill: rgb(38, 50, 56); transform-origin: 112.066px 164.776px;" id="el3s755bcfgwl" class="animable"></path><path d="M126.19,157c-.42,1.34-.87,2.68-1.34,4,.26-.46.51-.93.76-1.39,0-.09.19,0,.15.07a21.91,21.91,0,0,1-1.25,2.28c-1.42,4-3,8-4.58,11.92a12.09,12.09,0,0,1-1.68-.9c-.1-.06-.1-.15,0-.1.32.17,1.46.64,1.52.69A158.63,158.63,0,0,1,126.06,157,.07.07,0,0,1,126.19,157Z" style="fill: rgb(38, 50, 56); transform-origin: 122.183px 165.418px;" id="el5m0dyb1oupe" class="animable"></path><g id="ellojo9zs434"><path d="M128.38,150.87c-3.27,10.24-8.48,22.92-8.48,22.92l-16.51-8.25,21.29-22.4C128.55,142.19,130.38,144.6,128.38,150.87Z" style="opacity: 0.1; transform-origin: 116.294px 158.365px;" class="animable" id="elscpcu5fg2l"></path></g><path d="M116.82,208.32s11.84,106.28,12.09,107.62c0,.18,1.13,80.9,1.13,80.9h39.78s1.2-67.56-.44-83.33c-2.09-20.11-16.28-105.19-16.28-105.19Z" style="fill: rgb(173, 99, 89); transform-origin: 143.532px 302.58px;" id="eltx3kwpzillj" class="animable"></path><path d="M198.19,441.23c-2.18.72-64.3.33-66.66-1.19-.9-.56-1.37-9.61-1.63-20.57v-.35c-.06-2.25-.1-4.58-.12-6.94,0-.32,0-.64,0-1-.19-15.81,0-33.69,0-33.69h40.31l.14,33.53,0,1.27-.21,6.61,0,.68s23.72,10.78,26.13,12.73S200.36,440.52,198.19,441.23Z" style="fill: rgb(173, 99, 89); transform-origin: 164.43px 409.535px;" id="eldb3yqp5wrdf" class="animable"></path><path d="M180.34,423.71a.61.61,0,0,1-.24-.12Z" style="fill: #FFC100; transform-origin: 180.22px 423.65px;" id="elu3rluf4uu9h" class="animable"></path><path d="M199.41,441.63c-1.45.47-28.33.46-47.9,0-4.52-.12-8.66-.26-12-.42-4.61-.23-7.7-.49-8.2-.81-.86-.56-2.08-25.92-1.84-28.91l41,.25.15,7.8s24.22,11,26.68,13S201.62,440.9,199.41,441.63Z" style="fill: rgb(38, 50, 56); transform-origin: 164.917px 426.734px;" id="elk6tlmegzql9" class="animable"></path><path d="M197.93,439.09c-10.64-.34-53.57-.68-64.11-.2-.08,0-.08.06,0,.06,10.54.56,53.47.56,64.1.31C198.15,439.25,198.15,439.09,197.93,439.09Z" style="fill: rgb(69, 90, 100); transform-origin: 165.927px 439.036px;" id="el6zrdabcgqv2" class="animable"></path><path d="M171.51,417.17c-4.18-.81-9.31-.2-12.53,2.76-.12.11,0,.29.18.25a58.11,58.11,0,0,1,12.33-2.48A.27.27,0,0,0,171.51,417.17Z" style="fill: rgb(69, 90, 100); transform-origin: 165.326px 418.514px;" id="elbcnz581bi6v" class="animable"></path><path d="M174.52,419c-4.18-.81-9.31-.2-12.53,2.76-.12.11,0,.29.18.25a58.74,58.74,0,0,1,12.33-2.48A.27.27,0,0,0,174.52,419Z" style="fill: rgb(69, 90, 100); transform-origin: 168.336px 420.344px;" id="elwycpu2ax7ps" class="animable"></path><path d="M177.53,420.85c-4.19-.81-9.31-.2-12.53,2.76-.12.12,0,.29.18.25a59.38,59.38,0,0,1,12.33-2.48A.27.27,0,0,0,177.53,420.85Z" style="fill: rgb(69, 90, 100); transform-origin: 171.345px 422.194px;" id="eln4ca2wbb3ke" class="animable"></path><path d="M180.53,422.69c-4.18-.81-9.3-.2-12.52,2.76-.12.12,0,.29.18.25a59.42,59.42,0,0,1,12.32-2.48A.27.27,0,0,0,180.53,422.69Z" style="fill: rgb(69, 90, 100); transform-origin: 174.35px 424.034px;" id="eli9bes4k9vh9" class="animable"></path><path d="M116.82,208.32S128.66,314.6,128.92,316c0,.07.16,11.09.35,25L153.21,209c-.07-.47-.11-.72-.11-.72Z" style="fill: rgb(38, 50, 56); transform-origin: 135.015px 274.64px;" id="el2sod7da2unz" class="animable"></path><path d="M153.1,208.32s-11.47,25.55-16.52,37.8c0,0,14.32,76.08,13.37,85.6-1.58,15.77-24.19,67.72-24.19,67.72l-38.38-13s19.91-50.49,20.62-56.25c.47-3.82-13.28-77.42-14-78.9-9.22-18.09,1.69-42.93,1.69-42.93Z" style="fill: rgb(173, 99, 89); transform-origin: 120.24px 303.88px;" id="elb63z5dd13ua" class="animable"></path><path d="M133.81,454.41c-2.29-.15-59.74-23.78-61.36-26.07-.62-.86,2.33-9.43,6.2-19.69l.12-.32c.8-2.11,1.63-4.29,2.49-6.48.12-.3.24-.6.35-.91,5.74-14.73,12-29.9,12-29.9l38.25,13.87-12.69,31-.51,1.15L116,423.16l-.27.63s18,18.88,19.46,21.59S136.09,454.57,133.81,454.41Z" style="fill: rgb(173, 99, 89); transform-origin: 104.182px 412.726px;" id="elvzvmhdkewp" class="animable"></path><path d="M123.83,431.48q-.18-.15-.18-.21Z" style="fill: #FFC100; transform-origin: 123.74px 431.375px;" id="eluexb6a7d27i" class="animable"></path><path d="M134.79,455.24c-1.51-.11-26.43-10.19-44.4-18-4.15-1.8-7.94-3.48-11-4.88-4.18-1.94-6.94-3.34-7.29-3.82-.59-.85,7.78-24.81,9.12-27.49l37.89,15.57-2.79,7.29s18.32,19.3,19.87,22.06S137.12,455.38,134.79,455.24Z" style="fill: rgb(38, 50, 56); transform-origin: 104.556px 428.146px;" id="elbejs717v2wr" class="animable"></path><path d="M134.37,452.32C124.63,448,85,431.63,75,428.12c-.08,0-.1,0,0,.07,9.56,4.46,49.37,20.54,59.32,24.29C134.51,452.56,134.58,452.41,134.37,452.32Z" style="fill: rgb(69, 90, 100); transform-origin: 104.715px 440.311px;" id="elnhxe5hoivco" class="animable"></path><path d="M118.09,422.11c-3.58-2.32-8.56-3.68-12.65-2.14-.16.06-.07.29.07.3a58.59,58.59,0,0,1,12.36,2.32A.27.27,0,0,0,118.09,422.11Z" style="fill: rgb(69, 90, 100); transform-origin: 111.777px 420.955px;" id="ellotu8sn79q" class="animable"></path><path d="M120.18,424.94c-3.57-2.32-8.55-3.67-12.64-2.13-.16.06-.07.28.07.29A59.23,59.23,0,0,1,120,425.42.26.26,0,0,0,120.18,424.94Z" style="fill: rgb(69, 90, 100); transform-origin: 113.882px 423.788px;" id="elyhmcvalr0ff" class="animable"></path><path d="M122.29,427.77c-3.58-2.31-8.56-3.67-12.65-2.13-.16.06-.07.28.07.3a58.59,58.59,0,0,1,12.36,2.32A.27.27,0,0,0,122.29,427.77Z" style="fill: rgb(69, 90, 100); transform-origin: 115.99px 426.629px;" id="eljq854vbu08" class="animable"></path><path d="M124.39,430.61c-3.58-2.32-8.56-3.67-12.65-2.13-.16,0-.07.28.07.29a59.23,59.23,0,0,1,12.36,2.32A.27.27,0,0,0,124.39,430.61Z" style="fill: rgb(69, 90, 100); transform-origin: 118.077px 429.459px;" id="el7n112ujptyf" class="animable"></path><path d="M153.1,208.32s19.17,95.54,20,108.06,6.26,86.2,4,88.58-48.58.77-48.58.77-3.69,5.47-5.24,5.81c-3.79.84-51.23-20.11-53.63-26.31-.75-2,25.56-55.81,26-58.77S90.31,255,90.14,253.07s-2.79-13.91-.87-25.21a69.31,69.31,0,0,1,6.38-19.54Z" style="fill: rgb(38, 50, 56); transform-origin: 123.64px 309.942px;" id="els5446uj6t5" class="animable"></path><path d="M146.25,370.88c2.27-6.79,4.46-13.62,6.71-20.42a155.75,155.75,0,0,0,5.49-19.63,86.77,86.77,0,0,0,1-20.68c-.4-7.83-1.24-15.65-1.15-23.5a.13.13,0,0,1,.26,0c.22,14,3.53,27.88,2.11,41.89-.7,6.86-2.75,13.51-5,20-2.34,6.68-4.77,13.34-7.19,20-1.37,3.77-2.71,7.55-4.1,11.31s-2.92,7.67-4.36,11.51c0,.13-.25.07-.2-.06C141.92,384.49,144,377.65,146.25,370.88Z" style="fill: rgb(55, 71, 79); transform-origin: 150.418px 338.976px;" id="el83y72iycan5" class="animable"></path><path d="M159.57,355.68c.38-2.16.82-4.31,1.23-6.47.82-4.31,1.68-8.61,2.49-12.93.46-2.44,1-4.88,1.47-7.32.07-.3.59-.22.55.09-1.27,8.62-3,17.18-4.88,25.69a71.68,71.68,0,0,1-1.79,7.25c0,.08-.17.06-.16,0C158.69,359.86,159.2,357.77,159.57,355.68Z" style="fill: rgb(55, 71, 79); transform-origin: 161.896px 345.407px;" id="ela4eesoiyku4" class="animable"></path><path d="M95.65,208.32H153.1l-4-26.69a14,14,0,0,0,2.16-11c-2.67-10.6-14.44-24.29-15.51-25.21A12.16,12.16,0,0,0,123,143.83C109,150.31,95.65,208.32,95.65,208.32Z" style="fill: rgb(173, 99, 89); transform-origin: 124.375px 175.515px;" id="el3q90x08ewgo" class="animable"></path><path d="M95.65,203.82,153.1,202l-4-20.32a14,14,0,0,0,2.16-11c-2.67-10.6-14.44-24.29-15.51-25.21A12.16,12.16,0,0,0,123,143.83C109,150.31,95.65,203.82,95.65,203.82Z" style="fill: #FFC100; transform-origin: 124.375px 173.274px;" id="els8g2vw64tvk" class="animable"></path><path d="M122.34,150.13a1.57,1.57,0,1,1-1.56-1.57A1.56,1.56,0,0,1,122.34,150.13Zm14.06-1.57a1.57,1.57,0,1,0,1.57,1.57A1.56,1.56,0,0,0,136.4,148.56Zm-30.89,23.86c-.37,1-.73,1.93-1.08,2.89a1.45,1.45,0,0,0,.72.18,1.56,1.56,0,0,0,.36-3.07Zm15.27,0a1.56,1.56,0,1,0,1.56,1.56A1.56,1.56,0,0,0,120.78,172.37Zm15.62,0a1.56,1.56,0,1,0,1.57,1.56A1.56,1.56,0,0,0,136.4,172.37Zm15.11.09a1.56,1.56,0,0,0,0,2.92A11.78,11.78,0,0,0,151.51,172.46ZM113,160.66a1.57,1.57,0,1,0,1.56,1.56A1.56,1.56,0,0,0,113,160.66Zm15.63,0a1.57,1.57,0,1,0,1.56,1.56A1.56,1.56,0,0,0,128.59,160.66Zm15.63,0a1.57,1.57,0,1,0,1.56,1.56A1.56,1.56,0,0,0,144.22,160.66Zm-39.07,35.51a1.57,1.57,0,1,0,1.56,1.57A1.57,1.57,0,0,0,105.15,196.17Zm15.63,0a1.57,1.57,0,1,0,1.56,1.57A1.57,1.57,0,0,0,120.78,196.17Zm15.62,0a1.57,1.57,0,1,0,1.57,1.57A1.56,1.56,0,0,0,136.4,196.17Zm15.55,0a1.56,1.56,0,0,0,.08,3.12,1.5,1.5,0,0,0,.52-.09Zm-39-11.71a1.56,1.56,0,1,0,1.56,1.56A1.56,1.56,0,0,0,113,184.47Zm15.63,0a1.56,1.56,0,1,0,1.56,1.56A1.56,1.56,0,0,0,128.59,184.47Zm15.63,0a1.56,1.56,0,1,0,1.56,1.56A1.56,1.56,0,0,0,144.22,184.47Z" style="fill: rgb(255, 255, 255); transform-origin: 128.1px 173.935px;" id="elgdyvi5oj5cl" class="animable"></path><path d="M132.32,179.81a48.22,48.22,0,0,1,8.06,0c1.33.14,2.66.34,4,.58.67.12,1.33.21,2,.3a7.65,7.65,0,0,0,2.08.06c.06,0,.08.1,0,.11a12.64,12.64,0,0,1-1.94.31,12.2,12.2,0,0,1-1.91-.06c-1.36-.13-2.71-.32-4.06-.46-2.74-.28-5.47-.57-8.2-.63C132.21,180.06,132.2,179.82,132.32,179.81Z" style="fill: rgb(38, 50, 56); transform-origin: 140.375px 180.412px;" id="elftjbo1ugs7f" class="animable"></path><path d="M126.32,183.6a54.32,54.32,0,0,1,6.44-1.53,32.76,32.76,0,0,1,3.29-.36c.53,0,1-.07,1.58-.09s1.17,0,1.75,0c.06,0,.08.1,0,.1-.55,0-1.08.2-1.62.28l-1.64.25-3.26.5c-2.19.31-4.36.64-6.53,1C126.23,183.82,126.21,183.63,126.32,183.6Z" style="fill: rgb(38, 50, 56); transform-origin: 132.839px 182.688px;" id="elp0z4iv09lb" class="animable"></path><path d="M108.37,128.7a2.7,2.7,0,0,0-1.08,2.83,2.73,2.73,0,0,0,3.08,2.08,2.84,2.84,0,0,0,0,1.16,3,3,0,0,0,3.34,2.3,2.45,2.45,0,0,0,0,1,2.74,2.74,0,0,0,3.28,2.05,2.7,2.7,0,0,0,1.53-1,2.73,2.73,0,0,0,3.22,1.82,2.52,2.52,0,0,0,1-.5c0,.08,0,.17,0,.25a2.74,2.74,0,0,0,5.2.43,2.71,2.71,0,0,0,3.08,1.51,2.76,2.76,0,0,0,2-1.91,3.06,3.06,0,0,0,2,.22,2.94,2.94,0,0,0,1.88-1.38,3,3,0,0,0,4.59-2.38,2.78,2.78,0,0,0,1.07,0,2.73,2.73,0,0,0,2.11-2.92,2.8,2.8,0,0,0,1.32,0,3,3,0,0,0,2.26-3.61,2.83,2.83,0,0,0-.38-.91,1.56,1.56,0,0,0,.47-.06,2.73,2.73,0,0,0,2.06-3.27,2.61,2.61,0,0,0-.72-1.3,3,3,0,0,0,1.18-5,3,3,0,0,0,1.28-3.2,3,3,0,0,0-1.68-2.05,2.72,2.72,0,0,0-.93-3.94,3,3,0,0,0-2.07-4.92,2.73,2.73,0,0,0-2.9-3.41,2.72,2.72,0,0,0,0-1.3A3,3,0,0,0,141.1,99a2.9,2.9,0,0,0-.66.25,2.76,2.76,0,0,0-.07-.49,3,3,0,0,0-3.61-2.25,2.48,2.48,0,0,0-.7.27A2.78,2.78,0,0,0,136,96a3,3,0,0,0-5.54-.84,3,3,0,0,0-2.83-.86,3,3,0,0,0-1.85,1.29,2.73,2.73,0,0,0-5,.42,2.68,2.68,0,0,0-2.27-.48,2.72,2.72,0,0,0-2.1,2.38A3,3,0,0,0,114,97.4a3,3,0,0,0-2.34,3,2.6,2.6,0,0,0-1,0,2.74,2.74,0,0,0-2,3.29,2.65,2.65,0,0,0,.39.89l-.18,0a3,3,0,0,0-2.25,3.62,2.55,2.55,0,0,0,.32.82,2.58,2.58,0,0,0-.73.06,2.73,2.73,0,0,0-.82,5,2.73,2.73,0,0,0,.36,4.34,3,3,0,0,0,1.16,5.59,2.68,2.68,0,0,0-.75,2.54A2.76,2.76,0,0,0,108.37,128.7Z" style="fill: rgb(38, 50, 56); transform-origin: 128.147px 118.225px;" id="elp40yxkff4ea" class="animable"></path><path d="M126.48,145.65c.27,1,5.34,7.48,10,7.12,1.51-.13,1.22-8.43,1.22-8.43l.12-.62,1.64-8.65-10.29-6.15-1.49-.81s-.29,2.4-.63,5.38c0,.14,0,.28,0,.43s0,.33-.06.48c0,.45-.11.91-.16,1.36s-.07.68-.09,1.05-.06.72-.1,1.08A56,56,0,0,0,126.48,145.65Z" style="fill: rgb(173, 99, 89); transform-origin: 132.937px 140.447px;" id="els4lpwrbj4fq" class="animable"></path><path d="M127.05,133.49a17.66,17.66,0,0,0,10.77,10.23l1.64-8.65-10.29-6.15-1.49-.81S127.39,130.51,127.05,133.49Z" style="fill: rgb(38, 50, 56); transform-origin: 133.255px 135.915px;" id="elhqxl5ejgpbq" class="animable"></path><path d="M151.32,120.16c3,15.16-5.71,18.68-9,19.33-3,.59-13.14,2.22-17.72-12.54s1.52-21,8.23-22.67S148.3,105,151.32,120.16Z" style="fill: rgb(173, 99, 89); transform-origin: 137.474px 121.839px;" id="el7rnc9qwxqfl" class="animable"></path><path d="M148.37,118.21a9.45,9.45,0,0,1-1.07-.09,1.66,1.66,0,0,1-1.06-.29.56.56,0,0,1-.09-.67,1.35,1.35,0,0,1,1.29-.48,2,2,0,0,1,1.34.54A.59.59,0,0,1,148.37,118.21Z" style="fill: rgb(38, 50, 56); transform-origin: 147.507px 117.434px;" id="eloimo58scy1" class="animable"></path><path d="M138.81,119.43c.35-.09.67-.23,1-.35a1.75,1.75,0,0,0,1-.56.55.55,0,0,0-.09-.66,1.35,1.35,0,0,0-1.37-.15,2,2,0,0,0-1.16.86A.59.59,0,0,0,138.81,119.43Z" style="fill: rgb(38, 50, 56); transform-origin: 139.501px 118.514px;" id="eld37t57gg9kg" class="animable"></path><path d="M141.22,122.13s-.08.06-.07.1c.19,1,.23,2.25-.65,2.74,0,0,0,.07,0,.06C141.64,124.69,141.56,123.08,141.22,122.13Z" style="fill: rgb(38, 50, 56); transform-origin: 140.971px 123.58px;" id="el2oqr6r1conp" class="animable"></path><path d="M140.12,121.18c-1.69.13-1.31,3.5.26,3.38S141.54,121.07,140.12,121.18Z" style="fill: rgb(38, 50, 56); transform-origin: 140.2px 122.87px;" id="ell9w3w8s0i2r" class="animable"></path><path d="M139.48,121.43c-.27.23-.53.6-.88.67s-.75-.23-1.06-.54c0,0-.06,0,0,0,.06.65.38,1.29,1.09,1.31s1-.61,1.12-1.28C139.71,121.51,139.59,121.34,139.48,121.43Z" style="fill: rgb(38, 50, 56); transform-origin: 138.632px 122.137px;" id="elrkj6v3tfhws" class="animable"></path><path d="M146.8,121.12s.09,0,.09.08c.08,1,.34,2.24,1.33,2.49a0,0,0,0,1,0,.06C147,123.71,146.71,122.12,146.8,121.12Z" style="fill: rgb(38, 50, 56); transform-origin: 147.502px 122.435px;" id="el2estxise0cv" class="animable"></path><path d="M147.62,119.93c1.67-.31,2.16,3.06.61,3.34S146.22,120.18,147.62,119.93Z" style="fill: rgb(38, 50, 56); transform-origin: 147.975px 121.598px;" id="el60x09uh9cbl" class="animable"></path><path d="M148.36,120.05c.29.14.6.42.92.4s.59-.43.77-.82c0,0,0,0,.06,0,.11.64,0,1.34-.6,1.56s-1-.3-1.29-.92C148.18,120.18,148.24,120,148.36,120.05Z" style="fill: rgb(38, 50, 56); transform-origin: 149.178px 120.436px;" id="elbnemqnlxwp" class="animable"></path><path d="M142.08,131.11c.27.23.54.55.92.55a2.7,2.7,0,0,0,1.11-.33s.07,0,0,0a1.39,1.39,0,0,1-1.29.65,1.11,1.11,0,0,1-.89-.87C142,131.1,142,131.07,142.08,131.11Z" style="fill: rgb(38, 50, 56); transform-origin: 143.036px 131.537px;" id="elair49vau9s6" class="animable"></path><path d="M146,126.79s.41,1.53.5,2.27c0,.07-.17.12-.42.17,0,0,0,0,0,0a3.5,3.5,0,0,1-3.55-.88.08.08,0,0,1,.09-.12,5.3,5.3,0,0,0,3.31.52c0-.21-.79-2.6-.67-2.62a6.26,6.26,0,0,1,1.72.17c-.76-3.22-2-6.29-2.74-9.51a.1.1,0,0,1,.19-.07,53.61,53.61,0,0,1,3.38,10.11C147.87,127.24,146.29,126.88,146,126.79Z" style="fill: rgb(38, 50, 56); transform-origin: 145.164px 123.024px;" id="elr5prxane8ne" class="animable"></path><path d="M146,129a4.39,4.39,0,0,1-1.44,1.61,1.92,1.92,0,0,1-1.14.28c-.87-.06-1-.82-1-1.5a4.76,4.76,0,0,1,.19-1.06A5.53,5.53,0,0,0,146,129Z" style="fill: rgb(38, 50, 56); transform-origin: 144.21px 129.612px;" id="elyqn3zvhyrw" class="animable"></path><path d="M144.52,130.58a1.92,1.92,0,0,1-1.14.28c-.87-.06-1-.82-1-1.5A2,2,0,0,1,144.52,130.58Z" style="fill: rgb(255, 155, 188); transform-origin: 143.45px 130.102px;" id="elwx14kdhyf6b" class="animable"></path><path d="M125.56,127.89c2.54-.32,2-5.68,2-5.68s5.08-1,5.23-8.7a11.54,11.54,0,0,1-1,6.51s8.75-2.82,11-11.1c0,0-.71,4.13-1.84,5.78a10.68,10.68,0,0,0,4.73-5.27s2.48,4,3.93,4.94c0,0-3.64-15.59-17.81-10.89,0,0-9,2.5-10.72,10.38S125.56,127.89,125.56,127.89Z" style="fill: rgb(38, 50, 56); transform-origin: 135.194px 115.243px;" id="elb2algoql3cr" class="animable"></path><path d="M123.66,126.27c.72,2-4.94-7.25-5-8.76s2-9.15,8-12.91c5-3.14,11.67-2,12.83-1.74a9.33,9.33,0,0,1,3.62,1.51s-8.73-1.58-15.72,1.27C124,107,121,118.61,123.66,126.27Z" style="fill: #FFC100; transform-origin: 130.884px 114.498px;" id="elucecohq8hq" class="animable"></path><path d="M123.86,104.2s1.2-4.62,5-6.28c0,0,1,4,.06,5.68-.5.85-3.51,2.07-4,1.66A7.23,7.23,0,0,1,123.86,104.2Z" style="fill: #FFC100; transform-origin: 126.591px 101.631px;" id="elnghn2bzua29" class="animable"></path><g id="el2376mczpf56"><path d="M123.86,104.2a7.86,7.86,0,0,0,1,1.06.2.2,0,0,0,.08,0,.29.29,0,0,0,.11,0h.09a4.54,4.54,0,0,0,1.73-.44,9.1,9.1,0,0,0-.94-1.56,2.72,2.72,0,0,0-1.51-.72A10.1,10.1,0,0,0,123.86,104.2Z" style="fill: rgb(5, 4, 0); opacity: 0.1; transform-origin: 125.365px 103.903px;" class="animable" id="elybncp0uket"></path></g><path d="M123.06,105s-5.75.84-8,2.84a7.75,7.75,0,0,0,5.29,2.29c1.33-.06,4.25-3.41,3.85-4A5.73,5.73,0,0,0,123.06,105Z" style="fill: #FFC100; transform-origin: 119.649px 107.565px;" id="elzftysastqlc" class="animable"></path><g id="elbgnnbilumoj"><path d="M121.76,105.27a3.46,3.46,0,0,0,.66,1.79,2.94,2.94,0,0,0,1,.68c.56-.71.9-1.34.75-1.58a5.86,5.86,0,0,0-1.11-1.13S122.55,105.11,121.76,105.27Z" style="fill: rgb(5, 4, 0); opacity: 0.1; transform-origin: 122.983px 106.385px;" class="animable" id="elc0spiilgljh"></path></g><path d="M122.87,106.46a1.89,1.89,0,1,0,0-2.68A1.89,1.89,0,0,0,122.87,106.46Z" style="fill: #FFC100; transform-origin: 124.203px 105.12px;" id="el8ud22p5t68c" class="animable"></path><path d="M127.26,126.58s-3.88-4.42-5.92-3,1.25,8.11,3.9,8.78a2.62,2.62,0,0,0,3.33-1.78Z" style="fill: rgb(173, 99, 89); transform-origin: 124.637px 127.893px;" id="elq814hexneb" class="animable"></path><path d="M122.33,125.48a0,0,0,0,0,0,.07c1.87.53,3,2.08,3.85,3.73a1.45,1.45,0,0,0-2.19-.15.06.06,0,0,0,.06.09,1.61,1.61,0,0,1,1.82.36,7.59,7.59,0,0,1,1,1.33c.1.15.38,0,.3-.14l0,0C126.93,128.44,124.8,125.44,122.33,125.48Z" style="fill: rgb(38, 50, 56); transform-origin: 124.757px 128.226px;" id="elvip7i2wfval" class="animable"></path><g id="el0hvpt2cwxcis"><path d="M248.93,179l-.09-1.91c0-.1,0-.2,0-.3L246.77,134l-4.4.22a4.07,4.07,0,0,0-.7,0l-29.48,1.42.34,7.25-12,.58,1.63,33.87,12-.58.19,3.94-2.64.13.28,5.69,40.42-1.95-.28-5.69Zm-35-7.38-7.41.35-1.14-23.66,7.41-.36Z" style="fill: rgb(235, 235, 235); opacity: 0.7; transform-origin: 226.47px 160.26px;" class="animable" id="elm84itddqeuh"></path></g><g id="elzaer0hvb74"><rect x="217" y="138.15" width="27.27" height="41.21" style="fill: #FFC100; transform-origin: 230.635px 158.755px; transform: rotate(-2.76deg);" class="animable" id="elqi9xl2fsle"></rect></g><g id="elh5289zjxpz9"><polygon points="229.19 179.46 218.01 180 216.02 138.84 218.26 138.73 229.19 179.46" style="opacity: 0.1; transform-origin: 222.605px 159.365px;" class="animable" id="elvoy1az2pdz"></polygon></g><g id="elg5d8e1xzcs"><g style="opacity: 0.1; transform-origin: 238.224px 170.442px;" class="animable" id="el4skykfs47vd"><path d="M241.7,172.23a1.87,1.87,0,1,0,.13,2.64A1.87,1.87,0,0,0,241.7,172.23Z" id="elkvr2dqd7zsm" class="animable" style="transform-origin: 240.444px 173.615px;"></path><path d="M241.94,165.74a1.32,1.32,0,1,0,.09,1.87A1.33,1.33,0,0,0,241.94,165.74Z" id="el1fz1r889kb7i" class="animable" style="transform-origin: 241.053px 166.72px;"></path><path d="M235.63,173.27a.93.93,0,1,0,.06,1.32A.93.93,0,0,0,235.63,173.27Z" id="elhfvn5y7pvl" class="animable" style="transform-origin: 235.006px 173.96px;"></path></g></g><path d="M214.11,141.94l31.7-1.53a4.93,4.93,0,0,0,4.68-5.15h0a4.92,4.92,0,0,0-5.15-4.67l-31.7,1.53a4.92,4.92,0,0,0-4.68,5.14h0A4.92,4.92,0,0,0,214.11,141.94Z" style="fill: rgb(235, 235, 235); transform-origin: 229.725px 136.265px;" id="elw0ejm9xqzoo" class="animable"></path><path d="M224.94,157.86h0a4.46,4.46,0,0,1-4.67-4.24l-.59-12.28a4.46,4.46,0,0,1,4.24-4.67h0a4.46,4.46,0,0,1,4.67,4.24l.59,12.28A4.46,4.46,0,0,1,224.94,157.86Z" style="fill: rgb(235, 235, 235); transform-origin: 224.43px 147.265px;" id="eluinx7crcg6m" class="animable"></path><path d="M230.39,139.37l.33,6.95a.91.91,0,0,0-1-.89.93.93,0,0,0-.89,1l-.34-6.95a.94.94,0,0,1,.89-1A.93.93,0,0,1,230.39,139.37Z" style="fill: rgb(235, 235, 235); transform-origin: 229.604px 142.453px;" id="elg4hgrn8tqxa" class="animable"></path><path d="M233.87,152.73h0a2.82,2.82,0,0,1-3-2.69l-.58-11.9a2.83,2.83,0,0,1,2.7-3h0a2.82,2.82,0,0,1,3,2.69l.58,11.9A2.83,2.83,0,0,1,233.87,152.73Z" style="fill: rgb(235, 235, 235); transform-origin: 233.43px 143.935px;" id="ely6n1j3zi70g" class="animable"></path><path d="M214.83,130.54a6.71,6.71,0,0,0,8.45,7.66A6.65,6.65,0,0,0,228,133a6.71,6.71,0,1,0-13.2-2.43Z" style="fill: rgb(235, 235, 235); transform-origin: 221.415px 131.767px;" id="el2beyuf8kvny" class="animable"></path><path d="M225.3,129.57a9.24,9.24,0,1,0,6.89-7.59A9.24,9.24,0,0,0,225.3,129.57Z" style="fill: rgb(235, 235, 235); transform-origin: 234.438px 130.943px;" id="el7gssh9sas8d" class="animable"></path><path d="M222.6,129.7a2,2,0,1,1-2.08-1.89A2,2,0,0,1,222.6,129.7Z" style="fill: rgb(255, 255, 255); transform-origin: 220.603px 129.808px;" id="eld7gphrnx9le" class="animable"></path><path d="M233.75,126.13a2,2,0,1,1-2.08-1.9A2,2,0,0,1,233.75,126.13Z" style="fill: rgb(255, 255, 255); transform-origin: 231.752px 126.228px;" id="elp98k12t79s" class="animable"></path><path d="M218.54,133.78a1.22,1.22,0,1,1-2.43.11,1.22,1.22,0,0,1,1.16-1.27A1.2,1.2,0,0,1,218.54,133.78Z" style="fill: rgb(255, 255, 255); transform-origin: 217.329px 133.884px;" id="elasyc2l2ypyv" class="animable"></path><path d="M224.28,154.42a1.22,1.22,0,1,1-1.27-1.16A1.22,1.22,0,0,1,224.28,154.42Z" style="fill: rgb(255, 255, 255); transform-origin: 223.061px 154.479px;" id="elcnjx84dchad" class="animable"></path><path d="M120.87,158.37c5.32,13.39,18.65,40,28.33,41.37,7,1,35-16.86,42.06-23.12,6.84-6.05-14.69-25.66-18.95-22.39-6,4.62-19.62,17.28-22.38,17.53-1.93.17-5-4.28-21.94-19.68C119.37,144.26,118.1,151.37,120.87,158.37Z" style="fill: rgb(173, 99, 89); transform-origin: 156.074px 174.222px;" id="elk63q3474n0i" class="animable"></path><path d="M209.59,147.77a4.4,4.4,0,0,1-.4,5,6.51,6.51,0,0,1,3.11,3.16c1,2.49-2.46,5.15-2.46,5.15a8,8,0,0,1,2.74,3.86c.72,2.48-2.39,5.66-2.39,5.66a7.06,7.06,0,0,1,.28,4.91c-1.51,4.27-8.26,5.77-12.54,6.77s-17.34-.19-19.86-.16l-6.59-27.23s11.49-9.54,23.07-10.56C198.93,143.94,207.74,144.88,209.59,147.77Z" style="fill: rgb(173, 99, 89); transform-origin: 192.084px 163.463px;" id="elnr71yo3e7ra" class="animable"></path><path d="M208.9,152.37c-4.76-.7-9.46,0-14.2.5-.1,0-.08.18,0,.17,4.71-.53,9.46-.11,14.17-.44A.12.12,0,0,0,208.9,152.37Z" style="fill: rgb(38, 50, 56); transform-origin: 201.803px 152.558px;" id="el7m9jbbqdvok" class="animable"></path><path d="M209.66,160.74a13.22,13.22,0,0,0-3.26.26c-1.15.18-2.3.37-3.44.58-2.28.42-4.56.89-6.82,1.43-.1,0-.09.18,0,.16,2.27-.41,4.56-.79,6.85-1.11q1.73-.24,3.45-.45a14.84,14.84,0,0,0,3.24-.55A.17.17,0,0,0,209.66,160.74Z" style="fill: rgb(38, 50, 56); transform-origin: 202.926px 161.949px;" id="elyfywzcviz4j" class="animable"></path><path d="M210.09,170.62a8.67,8.67,0,0,0-2.93.39l-3.11.62c-2.08.4-4.16.8-6.25,1.13-.11,0-.09.18,0,.17,2.13-.33,4.26-.62,6.39-1l3.13-.53a8.1,8.1,0,0,0,2.79-.72A.06.06,0,0,0,210.09,170.62Z" style="fill: rgb(38, 50, 56); transform-origin: 203.918px 171.772px;" id="el2m83w78v7oe" class="animable"></path><path d="M127.61,182.12l17.84-15.58s-9.74-9.64-18-16.55-10.83-.47-6.79,11.26C125.35,174.81,127.61,182.12,127.61,182.12Z" style="fill: #FFC100; transform-origin: 132.115px 164.634px;" id="el11xhmay5h1j" class="animable"></path><path d="M122.34,150.13a1.57,1.57,0,1,1-1.56-1.57A1.56,1.56,0,0,1,122.34,150.13Zm14.06,22.24a1.55,1.55,0,0,0-.88,2.84l2.28-2A1.57,1.57,0,0,0,136.4,172.37Zm-7.81-11.71a1.57,1.57,0,1,0,1.56,1.56A1.56,1.56,0,0,0,128.59,160.66Z" style="fill: rgb(255, 255, 255); transform-origin: 128.5px 161.885px;" id="el0j7yih8qjbse" class="animable"></path><path d="M120.43,162.33c.42.78.75,1.61,1.1,2.42l.07.15c-.49-1.73-1-3.46-1.34-5.22a.06.06,0,1,1,.11,0c1.41,3.75,2.52,7.62,3.78,11.43s2.34,7.6,3.54,10.69c0-.07,2.42-1.86,2.73-2.1.12-.1.25-.06,0,.16s-3,2.95-3,2.84a106.24,106.24,0,0,1-3.94-11.38c-.47-1.58-1-3.16-1.42-4.75-.3-.53-.6-1.06-.86-1.6a13.54,13.54,0,0,1-1-2.53C120.24,162.31,120.38,162.23,120.43,162.33Z" style="fill: rgb(38, 50, 56); transform-origin: 125.381px 171.15px;" id="elb2f4u8ykcfq" class="animable"></path><path d="M127.06,176.91c1.49-1.38,5.86-5.67,7.06-6.78,2.32-2.15,4.65-4.36,7.1-6.37,0,0,.05,0,0,0-2.15,2.37-4.52,4.59-6.84,6.79-1.15,1.09-6,5.47-7.22,6.44C127.1,177.1,127,177,127.06,176.91Z" style="fill: rgb(38, 50, 56); transform-origin: 134.142px 170.399px;" id="elyvfbu533an" class="animable"></path><path d="M132.33,154.35c1.08.9,2.15,1.82,3.2,2.76l-1-1.23c-.06-.07.07-.17.13-.1a17.77,17.77,0,0,1,1.63,2c3.13,2.81,6.31,5.8,9.29,8.76a13,13,0,0,1-1.47,1.21c-.1.07-.18,0-.09,0,.27-.23,1.14-1.11,1.21-1.15a156.79,156.79,0,0,1-13-12.13A.07.07,0,0,1,132.33,154.35Z" style="fill: rgb(38, 50, 56); transform-origin: 138.891px 161.057px;" id="elqv18cgsp08k" class="animable"></path></g><defs>     <filter id="active" height="200%">         <feMorphology in="SourceAlpha" result="DILATED" operator="dilate" radius="2"></feMorphology>                <feFlood flood-color="#32DFEC" flood-opacity="1" result="PINK"></feFlood>        <feComposite in="PINK" in2="DILATED" operator="in" result="OUTLINE"></feComposite>        <feMerge>            <feMergeNode in="OUTLINE"></feMergeNode>            <feMergeNode in="SourceGraphic"></feMergeNode>        </feMerge>    </filter>    <filter id="hover" height="200%">        <feMorphology in="SourceAlpha" result="DILATED" operator="dilate" radius="2"></feMorphology>                <feFlood flood-color="#ff0000" flood-opacity="0.5" result="PINK"></feFlood>        <feComposite in="PINK" in2="DILATED" operator="in" result="OUTLINE"></feComposite>        <feMerge>            <feMergeNode in="OUTLINE"></feMergeNode>            <feMergeNode in="SourceGraphic"></feMergeNode>        </feMerge>            <feColorMatrix type="matrix" values="0   0   0   0   0                0   1   0   0   0                0   0   0   0   0                0   0   0   1   0 "></feColorMatrix>    </filter></defs></svg>