<svg width="500" height="500" viewBox="0 0 500 500" fill="none" xmlns="http://www.w3.org/2000/svg">
<path d="M30.0933 324.648L87.2543 325.233L144.405 325.453L258.727 325.867L373.049 325.453L430.199 325.233L487.36 324.648L430.199 324.039L373.049 323.844L258.727 323.429L144.405 323.844L87.2543 324.063L30.0933 324.648Z" fill="#263238"/>
<path d="M44.3737 264.138V324.147H12V264.138L20.74 249.3L23.7225 231.141L23.1373 230.763V229.65L24.1755 229.234L23.1373 229.008V227.177H33.2175V229.008L32.1982 229.234L33.2175 229.65V230.763L32.6512 231.141L35.6338 249.3L44.3737 264.138Z" fill="#DBDBDB"/>
<path d="M44.3737 282.147H12V310.255H44.3737V282.147Z" fill="#A6A6A6"/>
<path d="M86.2054 264.138V324.147H53.8506V264.138L62.5905 249.3L65.5731 231.141L64.969 230.763V229.65L66.0261 229.234L64.969 229.008V227.177H75.0492V229.008L74.0299 229.234L75.0492 229.65V230.763L74.4829 231.141L77.4655 249.3L86.2054 264.138Z" fill="#DBDBDB"/>
<path d="M86.2243 282.147H53.8506V310.255H86.2243V282.147Z" fill="#A6A6A6"/>
<path d="M128.055 264.138V324.147H95.6812V264.138L104.421 249.3L107.404 231.141L106.818 230.763V229.65L107.857 229.234L106.818 229.008V227.177H116.899V229.008L115.879 229.234L116.899 229.65V230.763L116.332 231.141L119.315 249.3L128.055 264.138Z" fill="#DBDBDB"/>
<path d="M128.055 282.147H95.6812V310.255H128.055V282.147Z" fill="#A6A6A6"/>
<path d="M169.886 264.138V324.147H137.513V264.138L146.272 249.3L149.254 231.141L148.65 230.763V229.65L149.707 229.234L148.65 229.008V227.177H158.73V229.008L157.711 229.234L158.73 229.65V230.763L158.164 231.141L161.146 249.3L169.886 264.138Z" fill="#DBDBDB"/>
<path d="M169.905 282.147H137.531V310.255H169.905V282.147Z" fill="#A6A6A6"/>
<path d="M151.431 341.108H110.02C108.056 341.108 110.02 278.57 110.02 271.592C110.02 264.614 121.988 246.572 121.988 242.667V210.549H139.499V242.619C139.499 246.572 151.479 264.65 151.479 271.544C151.479 278.438 153.383 341.108 151.431 341.108Z" fill="white"/>
<path d="M151.431 341.108H129.592H118.746H110.213C110.149 341.118 110.084 341.118 110.02 341.108C109.979 341.096 109.941 341.074 109.91 341.045C109.878 341.016 109.854 340.979 109.839 340.939C109.731 340.723 109.657 340.491 109.622 340.252C109.538 339.794 109.49 339.336 109.441 338.89C109.14 335.275 109.116 331.659 109.068 327.971C109.02 324.283 109.068 320.74 109.068 317.052C109.116 309.773 109.212 302.497 109.357 295.226L109.767 273.4C109.746 272.479 109.778 271.557 109.863 270.64C109.885 270.174 109.961 269.713 110.092 269.266C110.179 268.814 110.292 268.367 110.43 267.928C110.974 266.174 111.626 264.456 112.382 262.782C113.84 259.444 115.516 256.202 117.203 252.96C118.022 251.333 118.854 249.718 119.613 248.078C120.438 246.498 121.1 244.839 121.59 243.125L121.674 242.51V232.278C121.674 225.047 121.674 217.772 121.674 210.452V210.03H122.084H139.547H139.921V210.404V227.06V235.388V241.631C139.875 242.297 139.948 242.967 140.138 243.607C141.068 246.205 142.196 248.727 143.512 251.152C144.718 253.634 146.043 256.093 147.261 258.588C148.51 261.079 149.628 263.633 150.611 266.241C150.852 266.892 151.045 267.567 151.262 268.229C151.442 268.908 151.587 269.596 151.696 270.29C151.779 270.986 151.816 271.687 151.804 272.387V274.472L152.383 307.772C152.455 313.328 152.503 318.884 152.491 324.428C152.491 327.212 152.491 329.984 152.395 332.756C152.395 334.142 152.31 335.54 152.238 336.926C152.238 337.613 152.142 338.3 152.069 338.999C152.069 339.336 151.997 339.686 151.937 340.023C151.913 340.198 151.877 340.372 151.828 340.542C151.623 340.831 151.551 341.048 151.431 341.108ZM151.431 341.108C151.599 341.048 151.623 340.831 151.684 340.686C151.744 340.542 151.768 340.349 151.792 340.168C151.816 339.987 151.889 339.481 151.913 339.144C151.985 338.444 152.033 337.758 152.069 337.059C152.13 335.673 152.166 334.287 152.202 332.901C152.25 330.129 152.25 327.353 152.202 324.573C152.202 319.029 152.106 313.473 152.009 307.929L151.238 274.629V272.544C151.238 272.195 151.238 271.845 151.238 271.508L151.141 270.495C151.029 269.817 150.88 269.145 150.695 268.483C150.479 267.832 150.286 267.169 150.045 266.53C149.056 263.941 147.93 261.406 146.67 258.937C145.465 256.455 144.151 253.996 142.886 251.525C141.544 249.077 140.387 246.53 139.427 243.909C139.229 243.216 139.148 242.495 139.186 241.775V235.532V227.204V210.549L139.559 210.922H122.096L122.518 210.5C122.518 217.78 122.518 225.055 122.518 232.327V242.559L122.409 243.306C121.902 245.092 121.211 246.82 120.348 248.464C119.553 250.103 118.709 251.718 117.878 253.285C116.203 256.527 114.515 259.745 113.057 263.059C111.599 266.373 110.189 269.736 110.442 273.4L109.911 295.226C109.743 302.505 109.61 309.781 109.514 317.052C109.466 320.692 109.445 324.332 109.453 327.971C109.453 331.587 109.453 335.203 109.767 338.818C109.767 339.264 109.851 339.722 109.936 340.156C109.972 340.367 110.033 340.573 110.116 340.771C110.116 340.903 110.442 340.831 110.635 340.855H113.37H118.83H129.677L151.431 341.108Z" fill="#263238"/>
<path d="M148.381 337.106H113.068C111.393 337.106 113.068 278.172 113.068 272.218C113.068 266.265 124.674 248.114 124.674 244.703V230H136.726V244.703C136.726 248.066 148.345 266.289 148.345 272.218C148.345 278.148 150.044 337.106 148.381 337.106Z" fill="#FFC100"/>
<g opacity="0.1">
<path d="M146.453 293.657C146.181 293.406 145.84 293.242 145.474 293.185C145.108 293.128 144.734 293.182 144.398 293.338C144.063 293.495 143.781 293.747 143.59 294.064C143.398 294.38 143.305 294.747 143.322 295.117C143.339 295.487 143.465 295.843 143.685 296.141C143.905 296.439 144.208 296.664 144.557 296.789C144.905 296.914 145.283 296.933 145.642 296.843C146.001 296.753 146.325 296.559 146.573 296.284C146.904 295.919 147.077 295.438 147.054 294.946C147.031 294.454 146.815 293.99 146.453 293.657V293.657Z" fill="black"/>
<path d="M135.992 251.356C135.719 251.112 135.38 250.955 135.017 250.903C134.655 250.852 134.285 250.909 133.955 251.067C133.625 251.225 133.349 251.477 133.162 251.791C132.974 252.106 132.884 252.468 132.903 252.834C132.921 253.199 133.047 253.551 133.265 253.845C133.483 254.14 133.783 254.363 134.127 254.487C134.471 254.611 134.845 254.63 135.2 254.543C135.555 254.455 135.877 254.265 136.124 253.995C136.289 253.813 136.416 253.6 136.499 253.369C136.581 253.138 136.617 252.893 136.605 252.648C136.593 252.403 136.532 252.163 136.427 251.941C136.322 251.719 136.174 251.52 135.992 251.356V251.356Z" fill="black"/>
<path d="M146.73 287.186C146.538 287.012 146.298 286.899 146.042 286.862C145.785 286.824 145.524 286.863 145.289 286.973C145.055 287.084 144.859 287.261 144.725 287.483C144.591 287.705 144.526 287.962 144.538 288.221C144.55 288.479 144.638 288.729 144.791 288.938C144.944 289.147 145.155 289.306 145.399 289.395C145.642 289.484 145.906 289.499 146.158 289.438C146.41 289.378 146.638 289.244 146.814 289.054C146.933 288.926 147.024 288.776 147.084 288.613C147.144 288.449 147.17 288.276 147.163 288.102C147.155 287.928 147.112 287.758 147.038 287.6C146.964 287.443 146.859 287.302 146.73 287.186Z" fill="black"/>
<path d="M127.918 329.393C127.657 329.159 127.314 329.037 126.964 329.055C126.614 329.074 126.285 329.23 126.05 329.489C125.815 329.748 125.692 330.09 125.709 330.439C125.726 330.788 125.881 331.116 126.14 331.351C126.399 331.586 126.74 331.709 127.09 331.692C127.439 331.675 127.767 331.52 128.002 331.261C128.238 331.002 128.361 330.66 128.345 330.31C128.329 329.959 128.176 329.63 127.918 329.393V329.393Z" fill="black"/>
<path d="M119.011 274.854C118.883 274.738 118.734 274.648 118.572 274.589C118.41 274.53 118.237 274.504 118.065 274.512C117.893 274.52 117.724 274.562 117.567 274.635C117.411 274.708 117.271 274.811 117.155 274.939C117.038 275.066 116.948 275.215 116.889 275.377C116.831 275.54 116.805 275.712 116.812 275.884C116.82 276.056 116.862 276.226 116.935 276.382C117.008 276.538 117.112 276.678 117.239 276.795C117.496 277.03 117.836 277.153 118.184 277.137C118.532 277.121 118.86 276.968 119.095 276.71C119.33 276.453 119.453 276.113 119.437 275.765C119.421 275.417 119.268 275.089 119.011 274.854Z" fill="black"/>
<path d="M140.403 294.743C140.266 294.617 140.095 294.535 139.911 294.507C139.727 294.479 139.539 294.506 139.37 294.585C139.202 294.663 139.06 294.79 138.964 294.95C138.868 295.109 138.821 295.293 138.829 295.479C138.838 295.665 138.901 295.844 139.011 295.994C139.122 296.144 139.274 296.257 139.449 296.32C139.624 296.384 139.814 296.393 139.994 296.349C140.175 296.304 140.338 296.206 140.464 296.069C140.548 295.978 140.613 295.872 140.656 295.756C140.699 295.64 140.718 295.517 140.712 295.393C140.707 295.27 140.677 295.149 140.623 295.037C140.57 294.925 140.496 294.825 140.403 294.743V294.743Z" fill="black"/>
<path d="M124.169 326.379C124.084 326.273 123.977 326.187 123.856 326.127C123.734 326.067 123.601 326.034 123.465 326.031C123.33 326.028 123.195 326.055 123.071 326.11C122.947 326.164 122.836 326.245 122.747 326.347C122.658 326.449 122.592 326.569 122.554 326.7C122.516 326.83 122.507 326.967 122.527 327.101C122.548 327.235 122.598 327.362 122.673 327.475C122.749 327.588 122.848 327.683 122.964 327.753C123.15 327.866 123.37 327.91 123.586 327.876C123.801 327.843 123.998 327.735 124.142 327.571C124.286 327.407 124.368 327.198 124.372 326.98C124.377 326.762 124.305 326.549 124.169 326.379V326.379Z" fill="black"/>
</g>
<path d="M140.946 206.271H120.506V210.549H140.946V206.271Z" fill="white"/>
<path d="M140.933 206.27C137.425 206.378 133.991 206.487 130.604 206.559C128.905 206.559 127.217 206.655 125.542 206.655H120.504L120.926 206.234V210.512L120.48 210.054L130.7 210.126C134.099 210.199 137.51 210.235 140.908 210.355L140.752 210.512L140.933 206.27ZM140.933 206.27L141.101 210.548V210.705H140.933C137.534 210.825 134.123 210.862 130.724 210.934L120.504 210.994H120.046V210.536V206.258V205.836H120.468H125.651C127.374 205.836 129.085 205.896 130.797 205.932C134.256 206.065 137.642 206.173 140.933 206.27Z" fill="#263238"/>
<path d="M140.946 201.315H120.506V205.594H140.946V201.315Z" fill="white"/>
<path d="M140.933 201.316C137.425 201.425 133.991 201.521 130.604 201.594C128.905 201.594 127.217 201.69 125.542 201.702H120.504L120.926 201.28V205.559L120.48 205.101L130.7 205.173C134.099 205.233 137.51 205.281 140.908 205.39L140.752 205.559L140.933 201.316ZM140.933 201.316L141.101 205.595V205.739H140.933C137.534 205.86 134.123 205.896 130.724 205.956L120.504 206.029H120.046V205.559V201.28V200.858H120.468H125.651C127.374 200.858 129.085 200.931 130.797 200.967C134.256 201.111 137.642 201.208 140.933 201.316Z" fill="#263238"/>
<path d="M127.869 322.006C134.958 322.006 140.704 312.892 140.704 301.65C140.704 290.408 134.958 281.294 127.869 281.294C120.78 281.294 115.034 290.408 115.034 301.65C115.034 312.892 120.78 322.006 127.869 322.006Z" fill="white"/>
<path d="M139.463 233.723H121.987V241.93H139.463V233.723Z" fill="#455A64"/>
<path d="M152.021 295.032H109.429V308.265H152.021V295.032Z" fill="#455A64"/>
<path d="M201.627 341.108H160.205C158.252 341.108 160.205 278.57 160.205 271.592C160.205 264.614 172.184 246.572 172.184 242.667V210.549H189.648V242.619C189.648 246.572 201.627 264.65 201.627 271.544C201.627 278.438 203.58 341.108 201.627 341.108Z" fill="white"/>
<path d="M201.627 341.108H179.789H168.87H160.349C160.285 341.118 160.22 341.118 160.156 341.108C160.024 341.108 160.012 341 159.963 340.939C159.864 340.721 159.795 340.49 159.758 340.252C159.674 339.794 159.626 339.336 159.578 338.89C159.264 335.275 159.252 331.659 159.204 327.971C159.156 324.283 159.204 320.74 159.204 317.052C159.252 309.773 159.349 302.497 159.493 295.226L159.903 273.4C159.884 272.479 159.912 271.558 159.987 270.64C160.021 270.176 160.097 269.716 160.216 269.266C160.307 268.814 160.424 268.367 160.566 267.928C161.111 266.174 161.763 264.456 162.518 262.782C163.977 259.432 165.652 256.202 167.339 252.96C168.159 251.333 168.99 249.718 169.75 248.078C170.574 246.498 171.236 244.839 171.726 243.125L171.81 242.51V232.278C171.81 225.047 171.81 217.772 171.81 210.452V210.03H172.232H189.696H190.069V210.404V227.06V235.388V241.631C190.023 242.297 190.097 242.967 190.286 243.607C191.216 246.205 192.344 248.727 193.661 251.152C194.866 253.634 196.18 256.093 197.409 258.588C198.658 261.079 199.777 263.633 200.759 266.241C201 266.892 201.193 267.567 201.41 268.229C201.627 268.892 201.76 269.591 201.844 270.29C201.928 270.986 201.964 271.687 201.953 272.387V274.472L202.543 307.772C202.615 313.328 202.664 318.884 202.652 324.428C202.652 327.212 202.652 329.984 202.543 332.756C202.543 334.142 202.471 335.54 202.386 336.926C202.386 337.613 202.302 338.3 202.23 338.999C202.23 339.336 202.157 339.686 202.097 340.023C202.074 340.198 202.037 340.372 201.989 340.542C201.82 340.831 201.796 341.048 201.627 341.108ZM201.627 341.108C201.796 341.048 201.82 340.831 201.88 340.686C201.941 340.542 201.953 340.349 201.977 340.168C202.001 339.987 202.073 339.481 202.109 339.144C202.182 338.444 202.218 337.758 202.254 337.059C202.326 335.673 202.362 334.287 202.398 332.901C202.447 330.129 202.447 327.353 202.398 324.573C202.398 319.029 202.33 313.481 202.194 307.929L201.434 274.629V272.544C201.434 272.195 201.434 271.845 201.434 271.508L201.326 270.495C201.223 269.816 201.078 269.144 200.892 268.483C200.675 267.832 200.482 267.169 200.241 266.53C199.253 263.941 198.127 261.406 196.867 258.937C195.661 256.455 194.348 253.996 193.082 251.525C191.74 249.077 190.584 246.53 189.623 243.909C189.428 243.215 189.343 242.495 189.37 241.775V235.532V227.204V210.549L189.744 210.922H172.28L172.702 210.5C172.702 217.78 172.702 225.055 172.702 232.327V242.559L172.594 243.306C172.082 245.092 171.388 246.821 170.521 248.464C169.725 250.103 168.894 251.718 168.05 253.285C166.387 256.527 164.7 259.745 163.229 263.059C161.759 266.373 160.361 269.736 160.614 273.4L159.987 295.322C159.819 302.602 159.682 309.877 159.578 317.149C159.578 320.764 159.517 324.38 159.578 328.068C159.638 331.756 159.578 335.299 159.891 338.915C159.891 339.36 159.975 339.818 160.06 340.252C160.097 340.463 160.157 340.67 160.24 340.867C160.24 341 160.554 340.927 160.759 340.951H163.495H168.942H179.861L201.627 341.108Z" fill="#263238"/>
<path d="M198.554 337.106H163.266C161.591 337.106 163.266 278.172 163.266 272.218C163.266 266.265 174.872 248.114 174.872 244.703V230H186.924V244.703C186.924 248.066 198.53 266.289 198.53 272.218C198.53 278.148 200.242 337.106 198.554 337.106Z" fill="#FFC100"/>
<g opacity="0.1">
<path d="M196.649 293.659C196.377 293.408 196.036 293.244 195.67 293.187C195.305 293.13 194.93 293.184 194.595 293.34C194.259 293.497 193.978 293.749 193.786 294.066C193.594 294.382 193.501 294.749 193.518 295.119C193.535 295.488 193.661 295.845 193.881 296.143C194.101 296.44 194.405 296.666 194.753 296.791C195.101 296.916 195.479 296.935 195.838 296.845C196.197 296.755 196.522 296.561 196.77 296.286C197.1 295.921 197.273 295.44 197.25 294.948C197.228 294.455 197.012 293.992 196.649 293.659V293.659Z" fill="black"/>
<path d="M186.188 251.357C185.914 251.109 185.573 250.949 185.207 250.895C184.842 250.841 184.468 250.897 184.135 251.055C183.801 251.214 183.522 251.468 183.332 251.785C183.142 252.102 183.051 252.468 183.07 252.837C183.088 253.206 183.216 253.561 183.436 253.857C183.656 254.154 183.96 254.378 184.308 254.503C184.656 254.627 185.033 254.645 185.391 254.555C185.749 254.465 186.073 254.27 186.321 253.997C186.485 253.815 186.612 253.602 186.695 253.371C186.777 253.14 186.813 252.894 186.801 252.649C186.789 252.404 186.728 252.164 186.623 251.942C186.518 251.721 186.37 251.522 186.188 251.357V251.357Z" fill="black"/>
<path d="M196.891 287.188C196.63 286.954 196.287 286.832 195.937 286.85C195.587 286.868 195.258 287.024 195.023 287.284C194.788 287.543 194.665 287.885 194.682 288.234C194.699 288.583 194.854 288.911 195.113 289.146C195.372 289.381 195.714 289.504 196.063 289.487C196.412 289.47 196.74 289.315 196.975 289.056C197.211 288.797 197.334 288.455 197.318 288.104C197.303 287.754 197.149 287.425 196.891 287.188Z" fill="black"/>
<path d="M178.065 329.394C177.871 329.221 177.631 329.11 177.374 329.074C177.118 329.038 176.856 329.079 176.623 329.191C176.389 329.303 176.194 329.482 176.062 329.705C175.93 329.927 175.866 330.184 175.88 330.443C175.893 330.702 175.983 330.951 176.137 331.159C176.292 331.366 176.504 331.524 176.748 331.612C176.992 331.699 177.256 331.713 177.507 331.65C177.759 331.588 177.986 331.453 178.161 331.262C178.395 331.001 178.517 330.658 178.499 330.308C178.48 329.958 178.324 329.629 178.065 329.394V329.394Z" fill="black"/>
<path d="M169.255 274.859C169.063 274.684 168.824 274.57 168.567 274.531C168.31 274.491 168.047 274.529 167.812 274.64C167.577 274.75 167.379 274.927 167.245 275.15C167.111 275.372 167.045 275.629 167.057 275.889C167.069 276.148 167.157 276.399 167.311 276.608C167.465 276.817 167.678 276.976 167.922 277.065C168.167 277.153 168.432 277.167 168.684 277.105C168.936 277.043 169.164 276.907 169.339 276.715C169.457 276.588 169.549 276.44 169.608 276.277C169.668 276.115 169.695 275.942 169.687 275.769C169.679 275.597 169.637 275.427 169.563 275.271C169.488 275.114 169.384 274.975 169.255 274.859V274.859Z" fill="black"/>
<path d="M190.599 294.743C190.508 294.661 190.402 294.598 190.287 294.558C190.172 294.517 190.049 294.5 189.927 294.506C189.805 294.513 189.686 294.544 189.575 294.597C189.465 294.65 189.367 294.724 189.285 294.815C189.201 294.905 189.136 295.01 189.094 295.125C189.051 295.24 189.032 295.363 189.038 295.485C189.043 295.608 189.073 295.728 189.126 295.838C189.179 295.949 189.254 296.048 189.346 296.129C189.534 296.232 189.751 296.267 189.963 296.23C190.174 296.192 190.365 296.083 190.506 295.921C190.647 295.759 190.728 295.554 190.736 295.34C190.744 295.126 190.679 294.915 190.551 294.743H190.599Z" fill="black"/>
<path d="M174.365 326.381C174.275 326.299 174.169 326.235 174.055 326.193C173.94 326.152 173.818 326.133 173.696 326.139C173.574 326.144 173.454 326.174 173.343 326.226C173.233 326.278 173.134 326.351 173.051 326.442C172.938 326.628 172.895 326.848 172.928 327.064C172.961 327.28 173.069 327.476 173.233 327.62C173.397 327.764 173.606 327.846 173.824 327.85C174.042 327.855 174.255 327.783 174.425 327.647C174.578 327.468 174.656 327.237 174.645 327.002C174.634 326.767 174.534 326.545 174.365 326.381Z" fill="black"/>
</g>
<path d="M191.141 206.271H170.701V210.549H191.141V206.271Z" fill="white"/>
<path d="M191.13 206.27C187.623 206.378 184.188 206.487 180.801 206.559C179.102 206.559 177.414 206.655 175.739 206.655H170.701L171.123 206.234V210.512L170.677 210.054L180.885 210.126C184.296 210.199 187.707 210.235 191.106 210.355L190.949 210.512L191.13 206.27ZM191.13 206.27L191.286 210.548V210.705H191.118C187.719 210.825 184.308 210.862 180.897 210.934L170.689 210.994H170.231V210.536V206.258V205.836H170.653H175.836C177.559 205.836 179.27 205.896 180.982 205.932C184.453 206.065 187.827 206.173 191.13 206.27Z" fill="#263238"/>
<path d="M191.141 201.315H170.701V205.594H191.141V201.315Z" fill="white"/>
<path d="M191.13 201.316C187.622 201.425 184.188 201.521 180.801 201.594C179.102 201.594 177.414 201.69 175.739 201.702H170.701L171.123 201.28V205.559L170.677 205.101L180.885 205.173C184.296 205.233 187.707 205.281 191.106 205.39L190.949 205.559L191.13 201.316ZM191.13 201.316L191.322 205.559V205.703H191.154C187.755 205.824 184.344 205.86 180.934 205.92L170.726 205.993H170.268V205.559V201.28V200.858H170.689H175.872C177.595 200.858 179.307 200.931 181.018 200.967C184.453 201.111 187.827 201.208 191.13 201.316Z" fill="#263238"/>
<path d="M178.065 322.006C185.154 322.006 190.9 312.892 190.9 301.65C190.9 290.408 185.154 281.294 178.065 281.294C170.976 281.294 165.229 290.408 165.229 301.65C165.229 312.892 170.976 322.006 178.065 322.006Z" fill="white"/>
<path d="M189.659 233.723H172.184V241.93H189.659V233.723Z" fill="#455A64"/>
<path d="M202.206 295.032H159.614V308.265H202.206V295.032Z" fill="#455A64"/>
<path d="M251.811 341.108H210.4C208.448 341.108 210.4 278.57 210.4 271.592C210.4 264.614 222.38 246.572 222.38 242.667V210.549H239.843V242.619C239.843 246.572 251.811 264.65 251.811 271.544C251.811 278.438 253.775 341.108 251.811 341.108Z" fill="white"/>
<path d="M251.811 341.108H229.985H219.066H210.605C210.537 341.118 210.468 341.118 210.4 341.108C210.36 341.094 210.324 341.071 210.293 341.042C210.261 341.013 210.237 340.978 210.219 340.939C210.12 340.721 210.051 340.49 210.015 340.252C209.931 339.802 209.871 339.347 209.834 338.89C209.52 335.275 209.508 331.659 209.448 327.971C209.388 324.283 209.448 320.74 209.448 317.052C209.496 309.773 209.593 302.497 209.737 295.226L210.135 273.4C210.135 272.484 210.135 271.604 210.232 270.64C210.265 270.176 210.341 269.716 210.461 269.266C210.551 268.814 210.668 268.367 210.81 267.928C211.351 266.175 211.999 264.456 212.75 262.782C214.221 259.444 215.896 256.202 217.571 252.96C218.391 251.333 219.222 249.718 219.982 248.079C220.802 246.498 221.461 244.838 221.946 243.125L222.043 242.51V232.278C222.043 225.047 222.043 217.772 222.043 210.452V210.03H222.464H239.928H240.301V210.404V227.06V235.388V241.631C240.267 242.297 240.341 242.964 240.518 243.607C241.458 246.201 242.586 248.722 243.893 251.152C245.098 253.634 246.424 256.093 247.641 258.588C248.899 261.076 250.022 263.631 251.003 266.241C251.232 266.892 251.425 267.567 251.654 268.229C251.883 268.892 252.004 269.591 252.088 270.29C252.166 270.987 252.202 271.687 252.197 272.387V274.472L252.787 307.772C252.847 313.328 252.896 318.884 252.884 324.428C252.884 327.212 252.884 329.984 252.787 332.756C252.787 334.142 252.715 335.54 252.631 336.926C252.631 337.613 252.546 338.3 252.474 338.999C252.474 339.336 252.402 339.686 252.341 340.023C252.281 340.361 252.269 340.373 252.233 340.542C252.197 340.71 251.992 341.048 251.811 341.108ZM251.811 341.108C251.992 341.048 252.016 340.831 252.076 340.686C252.136 340.542 252.148 340.349 252.173 340.168C252.197 339.987 252.269 339.481 252.305 339.144C252.377 338.445 252.414 337.758 252.45 337.059C252.522 335.673 252.558 334.287 252.582 332.901C252.643 330.129 252.643 327.357 252.643 324.573C252.643 319.029 252.574 313.481 252.438 307.929L251.666 274.629V272.544C251.666 272.195 251.666 271.845 251.666 271.508L251.57 270.495C251.467 269.816 251.322 269.144 251.136 268.483C250.919 267.832 250.726 267.169 250.485 266.53C249.497 263.941 248.371 261.406 247.111 258.937C245.906 256.455 244.592 253.996 243.326 251.525C241.979 249.079 240.823 246.533 239.867 243.909C239.666 243.216 239.581 242.495 239.614 241.775V235.532V227.204V210.549L239.988 210.922H222.525L222.946 210.5C222.946 217.78 222.946 225.055 222.946 232.327V242.559L222.838 243.306C222.326 245.092 221.632 246.821 220.765 248.464C219.97 250.103 219.126 251.718 218.294 253.285C216.631 256.527 214.944 259.745 213.474 263.059C212.003 266.373 210.605 269.736 210.858 273.4L210.328 295.226C210.159 302.457 210.003 309.785 209.918 317.052C209.918 320.668 209.846 324.283 209.858 327.971C209.87 331.659 209.858 335.203 210.183 338.818C210.215 339.267 210.271 339.713 210.352 340.156C210.378 340.369 210.439 340.577 210.533 340.771C210.533 340.903 210.846 340.831 211.051 340.855H213.775H219.234H230.154L251.811 341.108Z" fill="#263238"/>
<path d="M248.762 337.106H213.45C211.786 337.106 213.45 278.172 213.45 272.218C213.45 266.265 225.068 248.114 225.068 244.703V230H237.12V244.703C237.12 248.066 248.726 266.289 248.726 272.218C248.726 278.148 250.437 337.106 248.762 337.106Z" fill="#FFC100"/>
<g opacity="0.1">
<path d="M246.835 293.661C246.563 293.416 246.224 293.257 245.861 293.204C245.498 293.151 245.127 293.207 244.796 293.365C244.465 293.522 244.188 293.775 244 294.089C243.812 294.404 243.722 294.768 243.74 295.134C243.759 295.5 243.885 295.853 244.104 296.147C244.323 296.442 244.624 296.665 244.969 296.788C245.314 296.912 245.688 296.93 246.044 296.841C246.4 296.752 246.721 296.56 246.968 296.288C247.132 296.107 247.259 295.896 247.341 295.666C247.424 295.435 247.46 295.191 247.447 294.947C247.435 294.703 247.375 294.464 247.27 294.243C247.165 294.022 247.017 293.824 246.835 293.661V293.661Z" fill="black"/>
<path d="M236.386 251.356C236.112 251.108 235.77 250.948 235.405 250.894C235.039 250.84 234.666 250.896 234.332 251.054C233.999 251.213 233.719 251.467 233.53 251.784C233.34 252.101 233.249 252.467 233.267 252.836C233.286 253.205 233.414 253.56 233.634 253.856C233.854 254.153 234.158 254.377 234.506 254.502C234.853 254.626 235.23 254.644 235.589 254.554C235.947 254.464 236.27 254.269 236.518 253.996C236.683 253.814 236.81 253.601 236.893 253.37C236.975 253.139 237.011 252.893 236.999 252.648C236.987 252.403 236.926 252.163 236.821 251.941C236.716 251.72 236.568 251.521 236.386 251.356V251.356Z" fill="black"/>
<path d="M247.088 287.187C246.827 286.953 246.484 286.831 246.134 286.849C245.784 286.867 245.455 287.023 245.22 287.283C244.985 287.542 244.863 287.884 244.879 288.233C244.896 288.582 245.051 288.91 245.31 289.145C245.569 289.38 245.911 289.503 246.26 289.486C246.609 289.469 246.937 289.314 247.172 289.055C247.408 288.796 247.531 288.454 247.516 288.104C247.5 287.753 247.346 287.424 247.088 287.187V287.187Z" fill="black"/>
<path d="M228.298 329.393C228.104 329.22 227.864 329.109 227.608 329.073C227.351 329.037 227.09 329.078 226.856 329.19C226.623 329.302 226.428 329.481 226.295 329.704C226.163 329.926 226.1 330.183 226.113 330.442C226.126 330.701 226.216 330.95 226.37 331.158C226.525 331.366 226.737 331.523 226.981 331.611C227.225 331.698 227.489 331.712 227.741 331.649C227.992 331.587 228.22 331.452 228.394 331.261C228.629 331 228.75 330.657 228.732 330.307C228.714 329.957 228.558 329.628 228.298 329.393V329.393Z" fill="black"/>
<path d="M219.453 274.858C219.195 274.623 218.855 274.5 218.507 274.516C218.159 274.532 217.831 274.685 217.596 274.943C217.362 275.2 217.238 275.54 217.254 275.888C217.27 276.236 217.424 276.564 217.681 276.799C217.808 276.915 217.957 277.005 218.12 277.064C218.282 277.122 218.454 277.149 218.626 277.141C218.799 277.133 218.968 277.091 219.124 277.018C219.28 276.945 219.421 276.842 219.537 276.714C219.653 276.587 219.743 276.438 219.802 276.276C219.861 276.113 219.887 275.941 219.879 275.769C219.871 275.596 219.83 275.427 219.756 275.271C219.683 275.115 219.58 274.975 219.453 274.858V274.858Z" fill="black"/>
<path d="M240.797 294.743C240.625 294.583 240.399 294.494 240.164 294.494C239.929 294.494 239.703 294.583 239.532 294.743C239.447 294.833 239.382 294.938 239.34 295.053C239.297 295.168 239.278 295.29 239.284 295.413C239.289 295.535 239.319 295.656 239.372 295.766C239.425 295.877 239.5 295.976 239.592 296.057C239.682 296.139 239.787 296.203 239.902 296.245C240.017 296.287 240.139 296.305 240.261 296.3C240.383 296.294 240.503 296.264 240.614 296.212C240.724 296.16 240.823 296.087 240.905 295.997C241.043 295.81 241.108 295.58 241.088 295.35C241.068 295.119 240.964 294.903 240.797 294.743V294.743Z" fill="black"/>
<path d="M224.562 326.38C224.472 326.298 224.367 326.234 224.252 326.192C224.137 326.151 224.015 326.132 223.893 326.138C223.771 326.143 223.651 326.173 223.541 326.225C223.43 326.277 223.331 326.35 223.249 326.441C223.136 326.627 223.092 326.848 223.125 327.063C223.158 327.279 223.266 327.476 223.43 327.619C223.594 327.763 223.804 327.845 224.022 327.85C224.24 327.854 224.452 327.782 224.623 327.646C224.775 327.467 224.853 327.236 224.842 327.001C224.831 326.766 224.731 326.544 224.562 326.38V326.38Z" fill="black"/>
</g>
<path d="M241.326 206.271H220.886V210.549H241.326V206.271Z" fill="white"/>
<path d="M241.326 206.27C237.819 206.378 234.384 206.487 230.998 206.559C229.299 206.559 227.599 206.655 225.924 206.655H220.898L221.32 206.234V210.512L220.874 210.054L231.082 210.126C234.493 210.199 237.892 210.235 241.302 210.355L241.146 210.512L241.326 206.27ZM241.326 206.27L241.483 210.548V210.705H241.314C237.904 210.825 234.505 210.862 231.094 210.934L220.886 210.994H220.428V210.536V206.258V205.836H220.85H226.02C227.756 205.836 229.467 205.896 231.179 205.932C234.71 206.065 238.024 206.173 241.326 206.27Z" fill="#263238"/>
<path d="M241.326 201.315H220.886V205.594H241.326V201.315Z" fill="white"/>
<path d="M241.326 201.316C237.819 201.425 234.384 201.521 230.998 201.594C229.299 201.594 227.599 201.69 225.924 201.702H220.898L221.32 201.28V205.559L220.874 205.101L231.082 205.173C234.493 205.233 237.892 205.281 241.302 205.39L241.146 205.559L241.326 201.316ZM241.326 201.316L241.483 205.595V205.739H241.314C237.904 205.86 234.505 205.896 231.094 205.956L220.886 206.029H220.428V205.559V201.28V200.858H220.85H226.02C227.756 200.858 229.467 200.931 231.179 200.967C234.71 201.111 238.024 201.208 241.326 201.316Z" fill="#263238"/>
<path d="M228.262 322.006C235.351 322.006 241.098 312.892 241.098 301.65C241.098 290.408 235.351 281.294 228.262 281.294C221.173 281.294 215.427 290.408 215.427 301.65C215.427 312.892 221.173 322.006 228.262 322.006Z" fill="white"/>
<path d="M239.856 233.723H222.381V241.93H239.856V233.723Z" fill="#455A64"/>
<path d="M252.402 295.032H209.81V308.265H252.402V295.032Z" fill="#455A64"/>
<path opacity="0.5" d="M449.93 285.38V341.656L429.855 346.02H473.998L453.923 341.547V285.359C465.03 284.529 474.347 277.11 475.482 261.77C475.915 250.596 474.333 239.435 470.812 228.821H432.91C429.364 239.43 427.774 250.594 428.218 261.77C429.331 277.198 438.801 284.638 449.93 285.38Z" fill="#EBEBEB"/>
<path d="M431.949 260.919C432.952 274.666 441.768 280.863 451.871 280.863C461.974 280.863 470.789 274.688 471.793 260.941C471.957 258.529 471.957 256.108 471.793 253.696H431.927C431.782 256.102 431.79 258.514 431.949 260.919V260.919Z" fill="#FFC100"/>
<path opacity="0.5" d="M465.203 228.821H461.036C461.036 228.821 468.935 251.558 466.862 263.08C464.789 274.601 459.923 277.285 459.923 277.285C459.923 277.285 468.891 274.928 470.353 260.919C471.946 246.103 465.203 228.821 465.203 228.821Z" fill="white"/>
<path d="M340.418 342.203H393.246C395.733 342.203 393.246 255.269 393.246 246.366C393.246 237.463 374.414 209.097 374.414 204.013C374.414 198.928 374.414 154.152 374.414 154.152H359.358C359.358 154.152 359.358 198.972 359.358 204.013C359.358 209.053 340.505 237.464 340.483 246.323C340.461 255.182 337.93 342.203 340.418 342.203Z" fill="#263238"/>
<path d="M342.502 318.1L373.618 318.116L373.646 265.114L342.53 265.098L342.502 318.1Z" fill="#DBDBDB"/>
<path d="M359.337 204.01C359.007 205.9 358.365 207.721 357.438 209.4C358.377 212.717 360.93 221.161 366.625 221.619C372.32 222.078 376.641 209.989 376.641 209.989C375.6 208.125 374.863 206.107 374.459 204.01C374.459 199.013 374.459 154.172 374.459 154.172H359.359C359.359 154.172 359.359 198.97 359.337 204.01Z" fill="#EBEBEB"/>
<path d="M364.486 214.661C364.323 215.114 364.298 215.606 364.414 216.073C364.53 216.541 364.781 216.963 365.136 217.289C365.492 217.614 365.935 217.826 366.411 217.9C366.887 217.974 367.374 217.906 367.811 217.704C368.249 217.502 368.616 217.175 368.868 216.765C369.121 216.355 369.246 215.879 369.229 215.398C369.211 214.916 369.052 214.451 368.771 214.06C368.49 213.669 368.1 213.369 367.65 213.199C367.036 212.974 366.358 213.001 365.765 213.275C365.172 213.549 364.711 214.048 364.486 214.661V214.661Z" fill="#263238"/>
<path d="M359.413 147.702L374.12 147.71L374.124 140.007L359.417 140L359.413 147.702Z" fill="#FFC100"/>
<path opacity="0.2" d="M359.413 147.702L374.12 147.71L374.124 140.007L359.417 140L359.413 147.702Z" fill="black"/>
<path d="M361.752 153.77L371.812 153.775L371.815 147.687L361.755 147.682L361.752 153.77Z" fill="#FFC100"/>
<path opacity="0.2" d="M361.752 153.77L371.812 153.775L371.815 147.687L361.755 147.682L361.752 153.77Z" fill="black"/>
<path opacity="0.2" d="M361.692 149.089L371.752 149.962V147.736H361.692V149.089Z" fill="black"/>
<path d="M358.086 154.944L375.717 154.953L375.721 148.756L358.089 148.747L358.086 154.944Z" fill="#263238"/>
<path opacity="0.5" d="M368 179.978H372.584C372.584 179.978 363.872 204.981 366.169 217.663C368.465 230.346 373.775 233.294 373.775 233.294C373.775 233.294 363.928 230.69 362.319 215.292C360.618 199.002 368 179.978 368 179.978Z" fill="white"/>
<path d="M323.077 267.354V303.502C323.077 316.34 317.113 327.836 317.113 334.687V358.596H290.055V334.703C290.055 327.874 284.083 316.355 284.083 303.517V267.354H323.077Z" fill="#EBEBEB"/>
<path d="M320.77 284.1V304.64C320.77 315.961 314.7 326.091 314.7 332.138V352.413H292.43V332.138C292.43 326.068 286.359 315.961 286.359 304.64V281.702C290.867 281.702 292.801 284.843 300.503 285.458C306.975 285.974 316.028 282.408 320.77 284.1Z" fill="#FFC100"/>
<g opacity="0.1">
<path d="M315.33 316.074C315.088 315.853 314.786 315.709 314.462 315.66C314.138 315.611 313.807 315.66 313.511 315.799C313.214 315.939 312.966 316.163 312.797 316.444C312.629 316.725 312.547 317.049 312.563 317.376C312.579 317.704 312.692 318.019 312.887 318.282C313.082 318.545 313.351 318.744 313.66 318.854C313.968 318.964 314.303 318.98 314.62 318.899C314.938 318.819 315.225 318.647 315.444 318.403C315.736 318.079 315.889 317.651 315.867 317.215C315.846 316.779 315.653 316.368 315.33 316.074V316.074Z" fill="black"/>
<path d="M317.523 289.145C317.28 288.925 316.978 288.782 316.655 288.734C316.331 288.686 316 288.735 315.705 288.874C315.409 289.014 315.161 289.239 314.993 289.519C314.825 289.8 314.743 290.124 314.759 290.45C314.775 290.777 314.888 291.092 315.082 291.355C315.277 291.618 315.545 291.817 315.853 291.927C316.161 292.037 316.495 292.054 316.812 291.975C317.13 291.895 317.417 291.724 317.636 291.482C317.782 291.321 317.895 291.133 317.969 290.928C318.042 290.724 318.074 290.507 318.064 290.289C318.053 290.072 318 289.86 317.907 289.663C317.814 289.467 317.684 289.291 317.523 289.145V289.145Z" fill="black"/>
<path d="M315.542 310.33C315.429 310.226 315.297 310.146 315.153 310.093C315.009 310.041 314.856 310.018 314.703 310.025C314.55 310.032 314.4 310.069 314.261 310.134C314.123 310.2 313.998 310.292 313.896 310.406C313.739 310.576 313.637 310.789 313.602 311.018C313.567 311.247 313.6 311.481 313.698 311.69C313.796 311.9 313.954 312.075 314.152 312.195C314.351 312.315 314.58 312.373 314.811 312.362C315.042 312.352 315.265 312.273 315.451 312.135C315.637 311.998 315.778 311.808 315.856 311.591C315.935 311.373 315.947 311.137 315.891 310.912C315.835 310.688 315.713 310.485 315.542 310.33V310.33Z" fill="black"/>
<path d="M298.887 347.774C298.717 347.619 298.503 347.518 298.275 347.484C298.047 347.449 297.813 347.484 297.604 347.582C297.395 347.68 297.22 347.838 297.101 348.036C296.982 348.233 296.924 348.462 296.934 348.693C296.945 348.923 297.024 349.146 297.16 349.332C297.297 349.518 297.486 349.659 297.703 349.738C297.92 349.816 298.156 349.829 298.38 349.774C298.604 349.719 298.807 349.599 298.963 349.429C299.171 349.198 299.28 348.896 299.266 348.586C299.252 348.276 299.116 347.984 298.887 347.774V347.774Z" fill="black"/>
<path d="M291.033 291.156C290.92 291.049 290.787 290.966 290.642 290.912C290.497 290.858 290.342 290.833 290.187 290.839C290.032 290.845 289.879 290.882 289.739 290.947C289.598 291.013 289.472 291.106 289.367 291.221C289.263 291.336 289.183 291.47 289.131 291.617C289.079 291.763 289.057 291.918 289.066 292.073C289.075 292.228 289.114 292.38 289.183 292.519C289.251 292.659 289.346 292.783 289.463 292.886C289.693 293.087 289.994 293.191 290.299 293.173C290.605 293.155 290.892 293.019 291.098 292.792C291.303 292.565 291.412 292.267 291.4 291.961C291.388 291.655 291.256 291.366 291.033 291.156V291.156Z" fill="black"/>
<path d="M309.965 316.983C309.843 316.874 309.692 316.803 309.53 316.779C309.368 316.756 309.203 316.781 309.055 316.851C308.908 316.921 308.784 317.034 308.7 317.174C308.617 317.315 308.577 317.477 308.585 317.64C308.594 317.804 308.65 317.961 308.748 318.092C308.846 318.223 308.98 318.322 309.134 318.377C309.289 318.432 309.455 318.439 309.614 318.399C309.773 318.359 309.916 318.273 310.025 318.152C310.098 318.071 310.154 317.977 310.19 317.874C310.227 317.772 310.243 317.663 310.237 317.555C310.231 317.446 310.204 317.34 310.158 317.242C310.111 317.144 310.045 317.056 309.965 316.983Z" fill="black"/>
<path d="M295.564 345.098C295.483 345.025 295.389 344.969 295.286 344.932C295.184 344.896 295.075 344.88 294.967 344.886C294.858 344.892 294.752 344.918 294.654 344.965C294.556 345.012 294.468 345.078 294.395 345.158C294.286 345.28 294.215 345.431 294.191 345.593C294.168 345.755 294.193 345.92 294.263 346.068C294.333 346.215 294.446 346.339 294.587 346.422C294.727 346.506 294.889 346.546 295.053 346.538C295.216 346.529 295.373 346.473 295.504 346.375C295.635 346.277 295.734 346.143 295.789 345.988C295.844 345.834 295.852 345.667 295.811 345.509C295.771 345.35 295.685 345.207 295.564 345.098V345.098Z" fill="black"/>
</g>
<path d="M323.076 267.355L323.205 290.301L323.273 301.819C323.347 305.668 323.011 309.514 322.272 313.292C321.551 317.086 320.519 320.773 319.464 324.453C318.948 326.297 318.417 328.133 318.007 329.992C317.563 331.838 317.352 333.732 317.378 335.63L317.423 358.613V358.894H317.112L290.016 358.947H289.644V358.583V335.6C289.644 335.122 289.644 334.636 289.644 334.181C289.637 333.711 289.599 333.242 289.531 332.777C289.424 331.844 289.235 330.91 289.037 329.985C288.628 328.126 288.096 326.29 287.58 324.446C286.533 320.766 285.494 317.055 284.773 313.277C284.035 309.496 283.699 305.648 283.771 301.796V290.308L283.817 267.325V267.12H284.014L323.076 267.355ZM323.076 267.355L284.045 267.56L284.249 267.355L284.295 290.339V301.827C284.23 305.646 284.576 309.462 285.327 313.208C286.086 316.957 287.102 320.629 288.172 324.309C288.696 326.153 289.235 327.997 289.652 329.879C289.876 330.822 290.051 331.777 290.175 332.739C290.246 333.222 290.287 333.708 290.297 334.196C290.335 334.689 290.297 335.167 290.297 335.645V358.629L289.933 358.264L317.029 358.317L316.718 358.629L316.763 335.645C316.763 335.167 316.763 334.689 316.763 334.204C316.773 333.716 316.813 333.229 316.884 332.747C316.998 331.783 317.196 330.842 317.4 329.901C317.825 328.02 318.364 326.176 318.918 324.332C319.98 320.652 321.027 316.972 321.763 313.223C322.513 309.477 322.859 305.662 322.795 301.842L322.864 290.384L323.076 267.355Z" fill="#263238"/>
<path d="M326.164 264.373C326.164 265.082 326.025 265.785 325.753 266.44C325.482 267.096 325.084 267.691 324.582 268.193C324.08 268.695 323.485 269.093 322.829 269.364C322.174 269.636 321.471 269.775 320.762 269.775H307.673V279.571C307.634 280.371 307.288 281.124 306.708 281.676C306.129 282.228 305.359 282.536 304.558 282.536C303.758 282.536 302.988 282.228 302.408 281.676C301.828 281.124 301.483 280.371 301.444 279.571V275.481C301.446 275.345 301.42 275.21 301.369 275.084C301.318 274.958 301.242 274.843 301.146 274.747C301.05 274.651 300.935 274.575 300.809 274.524C300.683 274.473 300.548 274.447 300.412 274.45C300.279 274.446 300.147 274.47 300.023 274.518C299.899 274.567 299.787 274.64 299.691 274.732C299.596 274.825 299.52 274.935 299.468 275.057C299.416 275.179 299.388 275.311 299.387 275.444V282.933C299.387 284.233 298.871 285.479 297.952 286.399C297.032 287.318 295.786 287.834 294.486 287.834C293.186 287.834 291.939 287.318 291.02 286.399C290.1 285.479 289.584 284.233 289.584 282.933V269.775H285.881C284.448 269.775 283.074 269.206 282.061 268.193C281.048 267.18 280.479 265.806 280.479 264.373C280.479 262.94 281.048 261.566 282.061 260.553C283.074 259.54 284.448 258.97 285.881 258.97H287.08C287.081 258.406 287.144 257.844 287.27 257.294C287.577 255.995 288.23 254.804 289.161 253.848C290.091 252.892 291.263 252.206 292.553 251.863C293.842 251.521 295.201 251.534 296.483 251.903C297.765 252.271 298.924 252.98 299.835 253.955C300.925 251.968 302.649 250.402 304.732 249.508C306.814 248.614 309.137 248.442 311.328 249.021C313.52 249.6 315.455 250.895 316.825 252.701C318.195 254.507 318.921 256.719 318.888 258.986H320.739C321.45 258.982 322.154 259.118 322.811 259.387C323.469 259.656 324.067 260.052 324.571 260.552C325.075 261.053 325.475 261.648 325.749 262.304C326.022 262.959 326.163 263.663 326.164 264.373V264.373Z" fill="white"/>
<path d="M326.165 264.371C326.162 265.276 325.941 266.166 325.52 266.967C325.086 267.761 324.463 268.436 323.706 268.932C322.946 269.43 322.071 269.726 321.164 269.789C320.269 269.835 319.366 269.789 318.471 269.789H307.673L307.727 269.728L307.78 277.597V279.562C307.773 280.078 307.645 280.585 307.404 281.042C307.163 281.498 306.817 281.891 306.395 282.188C305.972 282.484 305.485 282.676 304.974 282.747C304.463 282.818 303.942 282.767 303.455 282.597C302.797 282.367 302.228 281.935 301.829 281.363C301.43 280.791 301.221 280.108 301.231 279.41V275.48C301.242 275.351 301.222 275.221 301.171 275.101C301.121 274.982 301.043 274.876 300.943 274.793C300.843 274.711 300.725 274.653 300.598 274.626C300.471 274.599 300.34 274.603 300.215 274.638C300.094 274.67 299.983 274.73 299.892 274.815C299.801 274.9 299.732 275.006 299.691 275.123C299.642 275.422 299.629 275.725 299.653 276.026V279.957V282.901C299.648 283.25 299.613 283.598 299.547 283.94C299.292 285.151 298.616 286.232 297.639 286.992C296.662 287.751 295.448 288.139 294.212 288.088C292.975 288.036 291.798 287.547 290.888 286.708C289.978 285.87 289.395 284.736 289.243 283.508C289.194 282.841 289.179 282.173 289.197 281.505V277.574V269.774L289.561 270.146H286.83C286.367 270.146 285.934 270.146 285.434 270.146C284.95 270.111 284.473 270.014 284.015 269.857C282.855 269.468 281.85 268.718 281.148 267.716C280.446 266.715 280.082 265.515 280.111 264.292C280.14 263.069 280.559 261.887 281.308 260.92C282.057 259.952 283.096 259.25 284.273 258.916C284.738 258.788 285.217 258.717 285.699 258.703C286.17 258.703 286.61 258.703 287.073 258.703L286.777 258.999C286.781 257.467 287.25 255.972 288.121 254.711C288.992 253.45 290.224 252.482 291.656 251.935C293.079 251.404 294.627 251.298 296.11 251.632C297.587 251.976 298.927 252.756 299.957 253.87L299.676 253.908C300.787 251.874 302.547 250.271 304.676 249.355C305.202 249.135 305.745 248.96 306.3 248.832C306.856 248.716 307.419 248.629 307.984 248.574C309.123 248.517 310.263 248.63 311.369 248.908C312.461 249.22 313.5 249.695 314.449 250.319C316.346 251.586 317.758 253.458 318.456 255.63C318.787 256.715 318.951 257.843 318.941 258.977V258.977C319.806 258.977 320.664 258.977 321.521 259.037C322.378 259.16 323.194 259.485 323.901 259.985C324.609 260.485 325.187 261.146 325.588 261.913C325.967 262.677 326.164 263.519 326.165 264.371V264.371ZM326.165 264.371C326.156 263.51 325.946 262.663 325.55 261.898C325.15 261.135 324.572 260.479 323.866 259.986C323.161 259.489 322.346 259.171 321.491 259.06C320.641 258.961 319.776 259.06 318.918 259.015C318.915 257.888 318.747 256.768 318.418 255.691C318.053 254.606 317.52 253.584 316.839 252.664C316.144 251.786 315.321 251.019 314.396 250.387C313.462 249.778 312.438 249.32 311.361 249.029C310.271 248.767 309.149 248.67 308.03 248.741C307.484 248.832 306.922 248.87 306.383 249.014C305.84 249.147 305.309 249.327 304.798 249.553C302.748 250.464 301.063 252.034 300.01 254.014L299.896 254.219L299.737 254.045C298.743 253 297.458 252.278 296.049 251.973C294.647 251.675 293.188 251.793 291.853 252.315C290.509 252.836 289.353 253.751 288.537 254.94C287.743 256.121 287.327 257.516 287.346 258.939V259.227H287.05C286.602 259.227 286.132 259.227 285.692 259.227C285.262 259.241 284.836 259.31 284.424 259.432C283.599 259.683 282.849 260.134 282.239 260.745C281.635 261.354 281.196 262.108 280.964 262.934C280.732 263.761 280.714 264.632 280.912 265.468C281.111 266.303 281.518 267.074 282.097 267.708C282.675 268.342 283.406 268.818 284.22 269.091C285.059 269.335 285.936 269.425 286.807 269.357H289.91V281.497C289.91 282.142 289.91 282.833 289.91 283.417C289.98 284.624 290.526 285.755 291.429 286.559C292.332 287.364 293.517 287.777 294.725 287.708C295.932 287.638 297.063 287.092 297.867 286.189C298.672 285.286 299.085 284.101 299.016 282.893V281.907V279.942V276.011V275.518C299.008 275.327 299.036 275.137 299.099 274.956C299.171 274.769 299.287 274.602 299.437 274.47C299.588 274.337 299.769 274.244 299.964 274.198C300.157 274.147 300.359 274.142 300.554 274.185C300.749 274.228 300.931 274.316 301.085 274.443C301.239 274.569 301.361 274.731 301.441 274.914C301.52 275.097 301.555 275.296 301.542 275.495V279.426C301.515 280.056 301.691 280.678 302.044 281.201C302.397 281.724 302.909 282.12 303.504 282.33C304.099 282.54 304.746 282.553 305.349 282.367C305.952 282.182 306.48 281.808 306.854 281.3C307.704 280.298 307.423 278.887 307.484 277.597L307.544 269.728V269.668H307.605L318.402 269.706C319.298 269.706 320.201 269.706 321.096 269.706C321.996 269.641 322.865 269.352 323.623 268.863C324.379 268.373 325.002 267.703 325.436 266.913C325.879 266.137 326.129 265.265 326.165 264.371V264.371Z" fill="#263238"/>
<path opacity="0.5" d="M408.892 298.54V354.815L388.795 359.179H432.938L412.863 354.706V298.518C423.97 297.689 433.287 290.27 434.422 274.93C434.867 263.755 433.285 252.592 429.752 241.98H391.806C388.26 252.589 386.663 263.752 387.093 274.93C388.315 290.357 397.676 297.798 408.892 298.54Z" fill="#EBEBEB"/>
<path d="M390.825 274.078C391.85 287.825 400.644 294.022 410.747 294.022C420.85 294.022 429.665 287.847 430.691 274.1C430.844 271.688 430.844 269.268 430.691 266.855H390.803C390.658 269.261 390.666 271.673 390.825 274.078V274.078Z" fill="#FFC100"/>
<path opacity="0.5" d="M424.122 241.98H419.955C419.955 241.98 427.854 264.718 425.781 276.239C423.708 287.76 418.842 290.444 418.842 290.444C418.842 290.444 427.81 288.087 429.272 274.079C430.821 259.262 424.122 241.98 424.122 241.98Z" fill="white"/>
</svg>
