<svg xmlns="http://www.w3.org/2000/svg" viewBox="0 0 500 500"><g id="freepik--background-complete--inject-71"><rect x="414.79" y="66.69" width="26.48" height="11.19" transform="translate(856.07 144.56) rotate(180)" style="fill:#ebebeb"></rect><rect x="429.56" y="52.58" width="26.48" height="11.19" transform="translate(885.61 116.34) rotate(180)" style="fill:#ebebeb"></rect><rect x="400.02" y="52.58" width="26.48" height="11.19" transform="translate(826.52 116.34) rotate(180)" style="fill:#ebebeb"></rect><rect x="58.73" y="52.58" width="26.48" height="11.19" transform="translate(143.93 116.34) rotate(180)" style="fill:#ebebeb"></rect><rect x="58.73" y="331.75" width="26.48" height="11.19" transform="translate(143.93 674.68) rotate(180)" style="fill:#ebebeb"></rect><rect x="43.96" y="317.64" width="26.48" height="11.19" transform="translate(114.39 646.47) rotate(180)" style="fill:#ebebeb"></rect><rect x="429.56" y="331.74" width="26.48" height="11.19" transform="translate(885.61 674.66) rotate(180)" style="fill:#ebebeb"></rect><rect x="385.75" y="172.45" width="26.48" height="11.19" style="fill:#ebebeb"></rect><rect x="370.98" y="186.56" width="26.48" height="11.19" style="fill:#ebebeb"></rect><polygon points="139.33 121.6 234.33 121.6 234.33 71.74 139.33 71.74 139.33 71.74 139.33 121.6 139.33 121.6" style="fill:#ebebeb"></polygon><polygon points="249.03 121.6 234.33 121.6 234.33 106.29 249.03 121.6" style="fill:#ebebeb"></polygon><rect x="148.42" y="80.36" width="76.81" height="0.95" style="fill:#fff"></rect><rect x="148.42" y="85.48" width="47.63" height="0.95" style="fill:#fff"></rect><rect x="148.42" y="95.71" width="65.25" height="0.95" style="fill:#fff"></rect><rect x="148.42" y="100.83" width="76.81" height="0.95" style="fill:#fff"></rect><rect x="148.42" y="105.94" width="76.81" height="0.95" style="fill:#fff"></rect><rect x="148.42" y="111.06" width="37.87" height="0.95" style="fill:#fff"></rect><rect x="268.08" y="49.28" width="95" height="28.97" style="fill:#dbdbdb"></rect><polygon points="253.38 78.25 268.08 78.25 268.08 62.94 253.38 78.25" style="fill:#dbdbdb"></polygon><rect x="277.36" y="57.24" width="68.99" height="0.95" style="fill:#fff"></rect><rect x="277.36" y="62.35" width="58.18" height="0.95" style="fill:#fff"></rect><rect x="277.36" y="67.47" width="62.51" height="0.95" style="fill:#fff"></rect><path d="M29,91a17,17,0,1,1,20.54,12.48A17,17,0,0,1,29,91Z" style="fill:#ebebeb"></path><path d="M54.15,89.09c-2.57,5.17-8.68,8.24-8.68,8.24s-6.1-3.07-8.67-8.24c-2.13-4.32-.78-9,2.6-10,4.83-1.46,6.07,7,6.07,7s1.24-8.42,6.09-7C54.93,80.1,56.28,84.77,54.15,89.09Z" style="fill:#fff"></path><path d="M437.54,309.33a17,17,0,1,1,17,17A17,17,0,0,1,437.54,309.33Z" style="fill:#ebebeb"></path><path d="M462.45,313.42c-3.71,4.42-10.37,6-10.37,6s-5.21-4.43-6.48-10.07c-1.06-4.7,1.36-8.91,4.88-9.11,5-.28,4.26,8.2,4.26,8.2s3.2-7.89,7.56-5.32C465.34,304.87,465.55,309.73,462.45,313.42Z" style="fill:#fff"></path></g><g id="freepik--Shadow--inject-71"><ellipse cx="249.56" cy="435.7" rx="205.47" ry="13.01" style="fill:#ebebeb"></ellipse></g><g id="freepik--Floor--inject-71"><polygon points="39.97 399.05 92.48 398.8 144.99 398.71 250 398.55 355.01 398.71 407.52 398.8 460.03 399.05 407.52 399.29 355.01 399.38 250 399.55 144.99 399.38 92.48 399.29 39.97 399.05" style="fill:#263238"></polygon></g><g id="freepik--Plant--inject-71"><path d="M271.81,334.81c-8.81,11.93-18,25.77-20.23,40.73,0,.23.34.3.39.08a89.62,89.62,0,0,1,3.9-12c5.79-1.59,11.47-2.9,14.51-8.65,3.1-5.91,2.71-13.61,2.12-20.05C272.46,334.6,272,334.58,271.81,334.81Z" style="fill:#CFD8DC"></path><path d="M256,363.53c4-8.88,9-17.8,15.5-25.1,0-.05.11,0,.07.07a106.35,106.35,0,0,0-10.58,16.63c2.92-3,6.11-5.61,8.88-8.75.05-.06.14,0,.09.09-2.75,3.29-5.74,6.86-9.32,9.3-1,1.77-1.92,3.54-2.9,5.31l.73-.37c.05,0,.08,0,0,.06-.27.14-.54.29-.82.41-.47.84-.93,1.68-1.4,2.51C256.13,363.88,255.87,363.72,256,363.53Z" style="fill:#263238"></path><path d="M258.9,360.43a52,52,0,0,0,6.76-4.51c.06-.05.14,0,.08.08a35.53,35.53,0,0,1-6.74,4.6C258.89,360.65,258.79,360.49,258.9,360.43Z" style="fill:#263238"></path><path d="M250.57,373.32a.16.16,0,0,0,.32,0c0-4.92,0-9.87.08-14.82,1.26-2.55,4-4,5.85-6a25.8,25.8,0,0,0,3.51-4.89A35.2,35.2,0,0,0,264.41,334c.52-5.27-1.48-22.66-3.7-22.05-1.15.31-4.88,8.92-5.87,11.77a82.2,82.2,0,0,0-3.51,14.44C249.53,349.75,249.68,361.65,250.57,373.32Z" style="fill:#CFD8DC"></path><path d="M250.53,352.07l0,0c.27-6.23,1.68-12.53,3-18.57C255,327,256.61,320.83,260,315a.1.1,0,0,1,.17.1A68.53,68.53,0,0,0,255,329.28c.23-.35.5-.68.73-1,.09-.13.31,0,.22.12a8.77,8.77,0,0,1-1,1.48,0,0,0,0,1,0,0c-1.16,4.66-2,9.42-2.69,14.17l.15-.18a0,0,0,0,1,.08.05c-.09.16-.19.32-.29.47-.35,2.41-.68,4.82-1,7.2a33.79,33.79,0,0,0,10-13.32s.05,0,0,0c-2,5.53-5.22,10.44-10.13,13.8-.09.64-.18,1.28-.28,1.92,0,.13-.23.1-.23,0q0-.86.06-1.71A.12.12,0,0,1,250.53,352.07Z" style="fill:#263238"></path><path d="M252.55,343A99.22,99.22,0,0,0,261.3,328c0-.06.13,0,.1,0a48.8,48.8,0,0,1-8.68,15.14A.11.11,0,0,1,252.55,343Z" style="fill:#263238"></path><path d="M256.91,326.76c1.36-2.4,2.79-4.74,4.07-7.19,0-.07.13,0,.1.06a37.31,37.31,0,0,1-4,7.26A.12.12,0,0,1,256.91,326.76Z" style="fill:#263238"></path><path d="M256.38,327.81a0,0,0,1,1,0,0A0,0,0,1,1,256.38,327.81Z" style="fill:#263238"></path><path d="M247.23,359.07a50.21,50.21,0,0,1-1.15,9.71l.15,1.06A46.28,46.28,0,0,0,248,359a.32.32,0,0,0,0-.33h0A71.39,71.39,0,0,0,246.9,344c-1.53-9-4.86-17.74-11.18-24.53a.44.44,0,0,0-.69.15c-2.55,6.47-1.66,14.2.51,20.67a37.7,37.7,0,0,0,5,9.81C242.71,353.17,245.47,355.75,247.23,359.07Z" style="fill:#CFD8DC"></path><path d="M236.47,322.52c6,9.71,10.15,21.23,10.66,32.7,0,.2-.34.26-.36,0-.15-1-.3-2-.47-3.07h0a39,39,0,0,1-6.79-7.84c0-.05.05-.11.09-.07a80.1,80.1,0,0,0,6.59,7.18c-.43-2.53-.93-5-1.54-7.49-.16-.18-.31-.37-.47-.56s.07-.29.18-.17l.14.16a86.15,86.15,0,0,0-3.13-9.94c-1.52-1.81-3.22-3.38-4.33-5.57a0,0,0,1,1,.08,0c.89,1.25,1.75,2.51,2.76,3.67.41.47.85.9,1.27,1.35a76.29,76.29,0,0,0-4.9-10.21C236.15,322.51,236.38,322.38,236.47,322.52Z" style="fill:#263238"></path><path d="M237.68,334.5c1.93,2.61,4.14,5.09,5.94,7.78,0,.08-.06.16-.13.1a40,40,0,0,1-5.94-7.8C237.5,334.5,237.62,334.43,237.68,334.5Z" style="fill:#263238"></path><path d="M243.89,342.88l.08.09c.06,0,0,.14-.09.08l-.08-.08C243.74,342.91,243.83,342.83,243.89,342.88Z" style="fill:#263238"></path><path d="M227.1,341.19A29.75,29.75,0,0,0,233.41,356a15.7,15.7,0,0,0,5.12,4c2.22,1.1,4.54,2.36,6.83,3.26a44,44,0,0,1,2.42,8.6c.08-.25.15-.51.23-.76-1.48-12.65-9.66-23.46-20.13-30.41A.51.51,0,0,0,227.1,341.19Z" style="fill:#CFD8DC"></path><path d="M230.71,344.93c-.07-.07,0-.2.11-.14a42.85,42.85,0,0,1,13.34,16.44c.08.18-.16.33-.26.16-.49-.86-1-1.69-1.49-2.5h0c-2.39-.45-4.66-2.13-6.43-3.73,0,0,0-.11.07-.07a14.68,14.68,0,0,0,3,2.12c1,.5,2,.81,3,1.21-.88-1.41-1.81-2.76-2.77-4.06a28,28,0,0,1-7.18-4c-.07-.05,0-.16.06-.12a70.42,70.42,0,0,0,6.68,3.57,59.61,59.61,0,0,0-4.71-5.49c-.82-.43-1.64-.86-2.43-1.32-.06,0,0-.15.05-.12a8,8,0,0,1,1.86.91C232.73,346.79,231.76,345.85,230.71,344.93Z" style="fill:#263238"></path><path d="M230.94,349.3a2.7,2.7,0,0,1,.4.29s0,.08-.05.06a2.86,2.86,0,0,1-.42-.24A.07.07,0,1,1,230.94,349.3Z" style="fill:#263238"></path><polygon points="264.35 399.25 235.65 399.25 237.97 373.13 238.48 367.36 261.52 367.36 262.03 373.13 264.35 399.25" style="fill:#455a64"></polygon><polygon points="262.03 373.13 237.97 373.13 238.48 367.36 261.52 367.36 262.03 373.13" style="fill:#263238"></polygon><rect x="237.11" y="363.33" width="25.79" height="5.7" style="fill:#455a64"></rect></g><g id="freepik--character-2--inject-71"><path d="M437.37,103.57H291.3a14.91,14.91,0,0,0-14.77,15.05V419.31a14.92,14.92,0,0,0,14.77,15.05H437.37a14.92,14.92,0,0,0,14.79-15.05V118.62A14.92,14.92,0,0,0,437.37,103.57ZM442.93,410c0,7.91-5.93,14.31-13.24,14.31H299c-7.33,0-13.25-6.4-13.25-14.31V130c0-16.13,5.92-16.91,13.25-16.91h26.17c1.52,0,2.77,1.73,2.77,3.87v.92c0,5,2.75,5,6.12,5h60.54c3.4,0,6.12,0,6.12-5V117c0-2.14,1.23-3.87,2.78-3.87h26.18c7.31,0,13.24,2.14,13.24,16.91Z" style="fill:#263238"></path><path d="M372.6,116.67H356.09a1,1,0,0,1-1-1h0a1,1,0,0,1,1-1H372.6a1,1,0,0,1,1,1h0A1,1,0,0,1,372.6,116.67Z" style="fill:#fff"></path><path d="M442.93,130V410c0,7.91-5.93,14.31-13.24,14.31H299c-7.32,0-13.25-6.4-13.25-14.31V130c0-16.13,5.93-16.91,13.25-16.91h26.18c1.52,0,2.76,1.73,2.76,3.87v.92c0,5,2.75,5,6.13,5h60.53c3.41,0,6.13,0,6.13-5V117c0-2.14,1.22-3.87,2.77-3.87h26.18C437,113.11,442.93,115.25,442.93,130Z" style="fill:#fff"></path><path d="M442.92,130v20.89H285.76V130c0-16.13,5.92-16.91,13.25-16.91h26.18c1.52,0,2.76,1.73,2.76,3.87v.92c0,5,2.75,5,6.12,5h60.54c3.4,0,6.13,0,6.13-5V117c0-2.14,1.23-3.87,2.77-3.87h26.18C437,113.11,442.92,115.25,442.92,130Z" style="fill:#CFD8DC"></path><polygon points="301.67 140.71 297.02 136.36 301.67 132.01 302.39 132.78 298.56 136.36 302.39 139.94 301.67 140.71" style="fill:#fff"></polygon><path d="M431.67,134.56a.92.92,0,1,1-.91-.91A.92.92,0,0,1,431.67,134.56Z" style="fill:#fff"></path><path d="M431.67,137.81a.92.92,0,1,1-.91-.91A.91.91,0,0,1,431.67,137.81Z" style="fill:#fff"></path><path d="M431.67,141.06a.92.92,0,1,1-.91-.91A.91.91,0,0,1,431.67,141.06Z" style="fill:#fff"></path><g id="freepik--u5Zjqx--inject-71"><path d="M320.67,119.4c-.08.08-.17.16-.25.25l-.15.14a3.44,3.44,0,0,0-4.87,0l-.14-.14-.25-.25h0l.32-.29a3.85,3.85,0,0,1,.74-.47,3.77,3.77,0,0,1,1-.33c.16,0,.33,0,.49-.06H318l.33,0a4,4,0,0,1,.9.22,4.22,4.22,0,0,1,.61.28,4,4,0,0,1,.58.41l.27.24Z" style="fill:#fff"></path><path d="M316.2,120.59l-.4-.4a2.83,2.83,0,0,1,1.63-.82,2.87,2.87,0,0,1,2.44.81l-.4.4a2.27,2.27,0,0,0-1.63-.67A2.3,2.3,0,0,0,316.2,120.59Z" style="fill:#fff"></path><path d="M319.07,121l-.4.39a1.2,1.2,0,0,0-1.67,0l-.4-.39A1.73,1.73,0,0,1,319.07,121Z" style="fill:#fff"></path><path d="M318.2,121.74a.36.36,0,0,1-.36.36.36.36,0,0,1-.36-.36.36.36,0,0,1,.36-.36A.37.37,0,0,1,318.2,121.74Z" style="fill:#fff"></path></g><path d="M296,120.16a1,1,0,1,1,1,1A1,1,0,0,1,296,120.16Z" style="fill:#fff"></path><path d="M299.29,120.16a1,1,0,1,1,1,1A1,1,0,0,1,299.29,120.16Z" style="fill:#fff"></path><path d="M302.57,120.16a1,1,0,1,1,1,1A1,1,0,0,1,302.57,120.16Z" style="fill:#fff"></path><path d="M305.85,120.16a1,1,0,0,1,2.08,0,1,1,0,1,1-2.08,0Z" style="fill:#fff"></path><path d="M309.13,120.16a1,1,0,1,1,2.08,0,1,1,0,1,1-2.08,0Z" style="fill:#fff"></path><path d="M431.17,122.47h-8.55v-4h8.55Zm-8.05-.5h7.55v-3h-7.55Z" style="fill:#fff"></path><rect x="423.36" y="119.17" width="5.47" height="2.59" style="fill:#fff"></rect><rect x="431.14" y="119.42" width="0.75" height="2.1" style="fill:#fff"></rect><polygon points="309.64 407.22 308.44 407.22 308.44 412.7 306.21 412.7 306.21 409.91 302.26 409.91 302.26 412.7 300.03 412.7 300.03 407.22 298.83 407.22 304.24 401.63 309.64 407.22" style="fill:#ebebeb"></polygon><rect x="416.84" y="401.63" width="13.03" height="1.86" style="fill:#ebebeb"></rect><rect x="416.84" y="406.24" width="13.03" height="1.86" style="fill:#ebebeb"></rect><rect x="416.84" y="410.84" width="13.03" height="1.86" style="fill:#ebebeb"></rect><polygon points="368.05 406.43 364.35 410.38 360.64 406.43 361.3 405.81 364.35 409.07 367.4 405.81 368.05 406.43" style="fill:#ebebeb"></polygon><path d="M364.35,414.52a6.79,6.79,0,1,1,6.78-6.78A6.79,6.79,0,0,1,364.35,414.52Zm0-12.57a5.79,5.79,0,1,0,5.78,5.79A5.8,5.8,0,0,0,364.35,402Z" style="fill:#ebebeb"></path><polygon points="425.75 267.8 313.35 267.8 313.35 232.5 425.75 232.5 425.75 232.5 425.75 267.8 425.75 267.8" style="fill:#dbdbdb"></polygon><polygon points="302.94 267.8 313.35 267.8 313.35 256.96 302.94 267.8" style="fill:#dbdbdb"></polygon><rect x="319.79" y="238.61" width="99.53" height="0.67" style="fill:#fff"></rect><rect x="319.79" y="242.23" width="78.87" height="0.67" style="fill:#fff"></rect><rect x="319.79" y="249.47" width="91.34" height="0.67" style="fill:#fff"></rect><rect x="319.79" y="253.09" width="99.53" height="0.67" style="fill:#fff"></rect><rect x="319.79" y="256.71" width="99.53" height="0.67" style="fill:#fff"></rect><rect x="319.79" y="260.34" width="71.96" height="0.67" style="fill:#fff"></rect><polygon points="425.75 351.15 313.35 351.15 313.35 315.86 425.75 315.86 425.75 315.86 425.75 351.15 425.75 351.15" style="fill:#dbdbdb"></polygon><polygon points="302.94 351.15 313.35 351.15 313.35 340.31 302.94 351.15" style="fill:#dbdbdb"></polygon><rect x="319.79" y="321.96" width="99.53" height="0.67" style="fill:#fff"></rect><rect x="319.79" y="325.58" width="78.87" height="0.67" style="fill:#fff"></rect><rect x="319.79" y="332.82" width="91.34" height="0.67" style="fill:#fff"></rect><rect x="319.79" y="336.45" width="99.53" height="0.67" style="fill:#fff"></rect><rect x="319.79" y="340.07" width="99.53" height="0.67" style="fill:#fff"></rect><rect x="319.79" y="343.69" width="71.96" height="0.67" style="fill:#fff"></rect><rect x="302.94" y="167.7" width="112.4" height="29.78" transform="translate(718.28 365.18) rotate(180)" style="fill:#CFD8DC"></rect><polygon points="425.75 197.48 415.34 197.48 415.34 186.64 425.75 197.48" style="fill:#CFD8DC"></polygon><rect x="309.25" y="173.2" width="82.89" height="0.67" style="fill:#fff"></rect><rect x="309.25" y="176.82" width="99.53" height="0.67" style="fill:#fff"></rect><rect x="309.25" y="180.44" width="99.53" height="0.67" style="fill:#fff"></rect><rect x="309.25" y="184.06" width="91.65" height="0.67" style="fill:#fff"></rect><rect x="309.25" y="187.69" width="99.53" height="0.67" style="fill:#fff"></rect><rect x="309.25" y="191.31" width="73.54" height="0.67" style="fill:#fff"></rect><rect x="302.94" y="202.3" width="112.4" height="22.09" transform="translate(718.28 426.68) rotate(180)" style="fill:#CFD8DC"></rect><polygon points="425.75 224.38 415.34 224.38 415.34 213.54 425.75 224.38" style="fill:#CFD8DC"></polygon><rect x="309.43" y="207.8" width="99.35" height="0.67" style="fill:#fff"></rect><rect x="309.43" y="211.42" width="81.77" height="0.67" style="fill:#fff"></rect><rect x="309.43" y="215.04" width="89.99" height="0.67" style="fill:#fff"></rect><rect x="309.43" y="218.66" width="69.41" height="0.67" style="fill:#fff"></rect><rect x="302.94" y="276.44" width="112.4" height="31.13" transform="translate(718.28 584.01) rotate(180)" style="fill:#CFD8DC"></rect><polygon points="425.75 307.57 415.34 307.57 415.34 296.73 425.75 307.57" style="fill:#CFD8DC"></polygon><rect x="310.49" y="292.69" width="93.99" height="0.67" style="fill:#fff"></rect><rect x="310.49" y="296.31" width="86.34" height="0.67" style="fill:#fff"></rect><rect x="310.49" y="285.45" width="88.57" height="0.67" style="fill:#fff"></rect><rect x="310.49" y="281.83" width="98.29" height="0.67" style="fill:#fff"></rect><rect x="310.49" y="299.94" width="89.4" height="0.67" style="fill:#fff"></rect><rect x="302.94" y="360.34" width="112.4" height="25.92" transform="translate(718.28 746.6) rotate(180)" style="fill:#CFD8DC"></rect><polygon points="425.75 386.26 415.34 386.26 415.34 375.42 425.75 386.26" style="fill:#CFD8DC"></polygon><rect x="309.25" y="365.6" width="99.53" height="0.67" style="fill:#fff"></rect><rect x="309.25" y="369.22" width="99.53" height="0.67" style="fill:#fff"></rect><rect x="309.25" y="372.85" width="91.65" height="0.67" style="fill:#fff"></rect><rect x="309.25" y="376.47" width="99.53" height="0.67" style="fill:#fff"></rect><rect x="309.25" y="380.09" width="73.54" height="0.67" style="fill:#fff"></rect><path d="M392.73,211.7c.9,16.27,1.55,33-.05,49.23-1.25,12.64-6.56,23.05-19.7,26.16-12.19,2.87-29.55,2.65-39.85-5.43-4.81-3.77-6.48-9.08-6.16-15,.44-8.28,7-53.62,9-67.77,1.18-8.61,2.33-17.34,5-25.66,5.67-17.47,14.31-17.32,15.51-17.68,1-.66,7.67-3.61,17.11-.61a18.43,18.43,0,0,1,11.21,10C391.58,178.9,391.88,196.47,392.73,211.7Z" style="fill:#263238"></path><path d="M353.79,157.93c-10.39,4.86-12.87,16.21-15.39,26.38-3.5,14.16-6.76,28.38-9.33,42.74-1.24,6.9-2.32,13.83-3.19,20.79-.84,6.66-2.14,13.77-1.69,20.5.74,11.13,10.92,16.19,20.78,17.77a.38.38,0,0,0,.15-.74c-5.62-1.11-11.35-2.67-15.54-6.84-5.36-5.35-4.73-12.32-4.1-19.27,1.08-11.82,2.83-23.57,5-35.24s4.77-23.29,7.53-34.84c2.64-11,4.56-25.48,15.84-31.07C354,158.06,353.9,157.88,353.79,157.93Z" style="fill:#263238"></path><path d="M389.58,176.76c-2-8.5-6.39-16.79-15.34-19.26,0,0,0,0,0,0,11.57,3.69,14.39,16.33,15.93,26.89q2.43,16.68,3.62,33.5c.78,10.77,1.33,21.64,1.12,32.45-.23,11.66-2.34,22.58-9.23,32.2-.14.2.13.44.29.25,6.79-7.78,9-18.49,9.58-28.52.71-13.21-.14-26.64-1.18-39.81C393.38,202,392.42,189,389.58,176.76Z" style="fill:#263238"></path><path d="M365.16,210.91c-6.25,3.61-51.27,31.22-53.83,31.83,0,0-8.95,32.35,8.25,32.91,11.18.36,46.94-39.09,56.13-56.35C379.94,211.38,378.28,203.33,365.16,210.91Z" style="fill:#f7a9a0"></path><path d="M412.43,286.81l-67.79.05,4.14-32.92s-4.55-6-2.67-13.5c3.29-13.05,17.78-29.91,19.1-31,5.31-4.54,12.09-3.67,15.67-2C398,215.37,412.43,286.81,412.43,286.81Z" style="fill:#f7a9a0"></path><path d="M412.43,286.81l-67.79.05,3.6-30.24s-5.13-7.25-3.83-14.84a24.56,24.56,0,0,1,7-13.52c2.36-2,4.24,9.24,4.24,9.24,5.1-6.78,8.61-9.76,14.75-9.78,9.31,0,15.37,14.94,22,24.91,3.73,5.62,13.36,5.75,13.36,5.75C407.63,263.6,412.43,286.81,412.43,286.81Z" style="fill:#455a64"></path><path d="M353,236.8a1.09,1.09,0,1,1-1.09-1.09A1.09,1.09,0,0,1,353,236.8Zm16.42-1.09a1.09,1.09,0,1,0,1.09,1.09A1.09,1.09,0,0,0,369.39,235.71Zm-17.51,28.2A1.09,1.09,0,1,0,353,265,1.09,1.09,0,0,0,351.88,263.91Zm17.51,0a1.09,1.09,0,1,0,1.09,1.09A1.09,1.09,0,0,0,369.39,263.91Zm17.51,0A1.09,1.09,0,1,0,388,265,1.09,1.09,0,0,0,386.9,263.91Zm17.51,0A1.09,1.09,0,1,0,405.5,265,1.09,1.09,0,0,0,404.41,263.91Zm-43.78-13.8a1.09,1.09,0,1,0,1.09,1.09A1.08,1.08,0,0,0,360.63,250.11Zm17.52,0a1.09,1.09,0,1,0,1.08,1.09A1.09,1.09,0,0,0,378.15,250.11Zm-17.52,28.2a1.09,1.09,0,1,0,1.09,1.09A1.08,1.08,0,0,0,360.63,278.31Zm17.52,0a1.09,1.09,0,1,0,1.08,1.09A1.08,1.08,0,0,0,378.15,278.31Zm17.51,0a1.09,1.09,0,1,0,1.08,1.09A1.08,1.08,0,0,0,395.66,278.31Z" style="fill:#fff"></path><path d="M366,252.51a39.06,39.06,0,0,0-7.91,1.22c-1.31.36-2.59.8-3.88,1.28-.64.24-1.28.45-1.93.66a6.34,6.34,0,0,1-2,.38c-.06,0-.07.12,0,.13a11.3,11.3,0,0,0,1.93.1,11.1,11.1,0,0,0,1.88-.35c1.32-.35,2.63-.79,3.95-1.16,2.67-.74,5.33-1.48,8-2C366.09,252.8,366.08,252.5,366,252.51Z" style="fill:#263238"></path><path d="M372.16,256.27a40.27,40.27,0,0,0-6.45-.93,27.46,27.46,0,0,0-3.27,0l-1.56.13c-.57.06-1.15.23-1.72.28-.06,0-.07.13,0,.13.54,0,1.08.08,1.62.1s1.08,0,1.63.06c1.08.05,2.16.11,3.25.14,2.17.06,4.33.15,6.49.32C372.26,256.53,372.27,256.29,372.16,256.27Z" style="fill:#263238"></path><path d="M378.17,208.64c-.36,1.42-4.44,11.12-10.91,11.91-4.08.49-4.78-13.59-4.78-13.59l-.18-.86L359.88,194l14.29-8.75,2.07-1.15s.44,3.35,1,7.51c0,.2.05.39.07.6s.07.46.09.68q.13.93.24,1.89c.06.48.12,1,.15,1.46s.1,1,.15,1.51A77.49,77.49,0,0,1,378.17,208.64Z" style="fill:#f7a9a0"></path><path d="M359.88,194l2,9.84c6.56,2.09,13.37.21,16.36-.87-.06-1.62-.16-3.42-.31-5.21,0-.52-.09-1-.14-1.53s-.1-1-.16-1.45-.15-1.27-.24-1.89c0-.23-.06-.44-.09-.68s0-.4-.07-.6c-.51-4.16-1-7.51-1-7.51l-2.06,1.15Z" style="fill:#263238"></path><path d="M392,174.92c4.82,21.05-7.24,26.32-11.79,27.35-4.12.94-18.27,3.62-25.24-16.82s1.29-29.34,10.6-32S387.15,153.87,392,174.92Z" style="fill:#f7a9a0"></path><path d="M356.19,188.72a9.13,9.13,0,0,0,3.86-8.1,23,23,0,0,0,8.27-9.08c-.08.48-.63,3.91-1,5.65,13.25-4.45,15.88-15.77,15.88-15.77a25.15,25.15,0,0,1,7.27,8.11s-1.18-8.63-6.34-13.82c-6.31-6.37-13.3-4.06-13.3-4.06a18.86,18.86,0,0,0-17.94,8.49C345.53,171.27,356.19,188.72,356.19,188.72Z" style="fill:#263238"></path><path d="M377.37,173.48a24.44,24.44,0,0,1-6.6,3.58s0,0,0,0a21,21,0,0,0,9.09-7.58,20.45,20.45,0,0,0,2.31-4.63,14.67,14.67,0,0,0,1-5.6.11.11,0,1,1,.21,0,17.45,17.45,0,0,1-.26,5.68,15,15,0,0,1-2.34,5.06,16.84,16.84,0,0,1-3.42,3.53Z" style="fill:#263238"></path><path d="M358.38,184.2s-5.59-6-8.39-3.94,2.06,11.27,5.8,12.1a3.66,3.66,0,0,0,4.58-2.62Z" style="fill:#f7a9a0"></path><path d="M351.45,182.86a0,0,0,0,0,0,.09c2.64.67,4.27,2.8,5.53,5.06a2,2,0,0,0-3.07-.12c-.06.05,0,.14.09.12a2.24,2.24,0,0,1,2.55.43,11,11,0,0,1,1.45,1.82c.15.21.54,0,.42-.21l0-.06C358,186.8,354.91,182.7,351.45,182.86Z" style="fill:#263238"></path><path d="M388.64,172c-.44-.22-.89-.36-1.36-.54a2.36,2.36,0,0,0-1.49-.28.75.75,0,0,0-.5.76,1.86,1.86,0,0,0,1.29,1.38,2.74,2.74,0,0,0,2,.15A.81.81,0,0,0,388.64,172Z" style="fill:#263238"></path><path d="M373.64,174.88c.39-.31.8-.54,1.21-.81a2.34,2.34,0,0,1,1.4-.59.76.76,0,0,1,.66.65,1.87,1.87,0,0,1-1,1.61,2.72,2.72,0,0,1-1.9.55A.8.8,0,0,1,373.64,174.88Z" style="fill:#263238"></path><path d="M377.92,178.15c0-.05-.1.09-.08.15.32,1.4.46,3.07-.73,3.79,0,0,0,.09,0,.07C378.65,181.64,378.45,179.43,377.92,178.15Z" style="fill:#263238"></path><path d="M376.37,176.93c-2.31.27-1.59,4.87.55,4.61S378.3,176.7,376.37,176.93Z" style="fill:#263238"></path><path d="M375.5,177.31c-.36.33-.68.85-1.15,1s-1.05-.27-1.49-.68c-.05,0-.08,0-.07.07.13.88.61,1.73,1.57,1.71s1.37-.89,1.45-1.81C375.83,177.4,375.65,177.18,375.5,177.31Z" style="fill:#263238"></path><path d="M385.83,176.75c0-.06.12.05.13.11.17,1.43.6,3,2,3.32,0,0,.05.08,0,.08C386.31,180.27,385.76,178.13,385.83,176.75Z" style="fill:#263238"></path><path d="M386.88,175.07c2.26-.52,3.13,4.05,1,4.53S385,175.5,386.88,175.07Z" style="fill:#263238"></path><path d="M387.89,175.19c.41.17.85.54,1.28.49s.78-.62,1-1.16c0-.05.07,0,.08,0,.19.87.08,1.83-.73,2.16s-1.44-.35-1.81-1.18C387.65,175.39,387.72,175.12,387.89,175.19Z" style="fill:#263238"></path><path d="M379.61,190c.38.3.78.72,1.3.7a3.75,3.75,0,0,0,1.5-.53.05.05,0,0,1,.07.07,2,2,0,0,1-1.73,1,1.54,1.54,0,0,1-1.27-1.14C379.45,190,379.56,190,379.61,190Z" style="fill:#263238"></path><path d="M384.68,183.87s.65,2.07.82,3.07c0,.1-.22.18-.56.26h0a4.83,4.83,0,0,1-4.92-1c-.09-.08,0-.21.12-.16a7.29,7.29,0,0,0,4.55.51c0-.29-1.23-3.51-1.07-3.55a8.75,8.75,0,0,1,2.35.13c-1.23-4.35-3.15-8.47-4.32-12.82,0-.16.18-.25.25-.11,2.32,4.17,3.85,9.15,5.24,13.61C387.29,184.38,385.11,184,384.68,183.87Z" style="fill:#263238"></path><path d="M377,184.11c0,1.06-1.3,2-3,2s-3.14-.72-3.18-1.78,1.3-2,3-2S377,183.05,377,184.11Z" style="fill:#e08373"></path><path d="M392.5,179.81a2.23,2.23,0,1,1-2.67-1.19A2.07,2.07,0,0,1,392.5,179.81Z" style="fill:#e08373"></path><path d="M348.4,216.68c.59-4.14-33.85-11.8-35.56-5.88-8.27,28.73-4.79,53.48-2.31,58.64,3.24,6.76,12.58,7.54,16.67,4.81C333.12,270.31,343.53,250.86,348.4,216.68Z" style="fill:#f7a9a0"></path><path d="M347.5,221.54c-.42,3.36-1,6.71-1.6,10s-1.37,6.65-2.14,9.95S342,248.1,341,251.32a42.29,42.29,0,0,1-4.14,9.29c.36-.77.75-1.52,1.09-2.29l.92-2.36.83-2.39c.27-.81.5-1.62.75-2.42,1-3.24,1.86-6.5,2.63-9.8s1.57-6.58,2.3-9.88Z" style="fill:#263238"></path><path d="M312.29,212.79a211.63,211.63,0,0,1,5.56-20.57c1.66-4.77,7.32-14.91,10.15-17.86,4.22-4.41,24.72-20.17,28.65-15.28,3.55,4.42-15.78,15.72-15.78,15.72s18.5-13.12,21.8-7-20.24,16-20.24,16,19.31-13.06,21.72-6.22c1.82,5.17-19,15.31-19,15.31s16.67-11.12,18.77-5.88c2.32,5.79-16.3,16.35-16.3,16.35,3.09,14.21-.95,22-4.71,27.33C342,232,312.29,212.79,312.29,212.79Z" style="fill:#f7a9a0"></path><path d="M334.19,178.93c2.11-1.62,4.24-3.27,6.5-4.7s4.56-2.78,6.93-4a46,46,0,0,1,9.7-3.83c-5.86,2-14,7-16.26,8.45s-4.57,2.74-6.82,4.16C334.18,179.06,334.13,179,334.19,178.93Z" style="fill:#263238"></path><path d="M339.19,187.16c2.79-1.95,5.49-4,8.37-5.82s5.75-3.3,8.73-4.91c.23-.13.22,0,0,.17-2.91,1.74-5.47,3.57-8.37,5.34s-5.86,3.43-8.68,5.29C339.19,187.26,339.15,187.19,339.19,187.16Z" style="fill:#263238"></path><path d="M342.19,194.85a75.31,75.31,0,0,1,13.48-7.93c.23-.11.2.1,0,.23-4.53,2.55-8.11,4.52-13.34,7.84C342.22,195,342.1,194.91,342.19,194.85Z" style="fill:#263238"></path><path d="M355.82,198a37.61,37.61,0,0,0,4.64-4.09,12.62,12.62,0,0,0,3.27-5.06,2.7,2.7,0,0,0-.64-2.61,3.25,3.25,0,0,0-2.7-.48,17.74,17.74,0,0,0-5.78,2h0a42.72,42.72,0,0,0,4.73-3.77,15.45,15.45,0,0,0,4-4.35,2.87,2.87,0,0,0,.21-2.61,2.45,2.45,0,0,0-2.27-1.16,14.74,14.74,0,0,0-5.74,1.35l-.11-.22a28.23,28.23,0,0,0,5.12-3.87,9.17,9.17,0,0,0,2-2.47,3,3,0,0,0,0-3,3,3,0,0,1,.14,3.11,9.18,9.18,0,0,1-1.92,2.62,25.36,25.36,0,0,1-5.21,3.87l-.12-.22c1.87-.82,3.73-1.79,5.87-1.78a4.41,4.41,0,0,1,1.61.33,2.6,2.6,0,0,1,1.24,1.17,3.59,3.59,0,0,1-.18,3.23,16.18,16.18,0,0,1-4.12,4.62,43.24,43.24,0,0,1-5.17,3.26l0-.07c1.83-1,3.56-2.23,5.68-2.6a3.82,3.82,0,0,1,3.19.69,3.23,3.23,0,0,1,.73,3.15,12.23,12.23,0,0,1-3.54,5.15A37.57,37.57,0,0,1,355.82,198Z" style="fill:#263238"></path><path d="M251.67,168.84c5.34,32.74,7,42.67,15.77,41.23s7.15-11.36,1.81-44.1Z" style="fill:#ebebeb"></path><path d="M251.67,168.84c1.36,7.8,2.65,15.61,4.21,23.37A71.79,71.79,0,0,0,259,203.63a13,13,0,0,0,3.05,4.93,5.35,5.35,0,0,0,2.51,1.29,7.69,7.69,0,0,0,2.87,0,7.84,7.84,0,0,0,2.71-.92,5.35,5.35,0,0,0,1.95-2,13.1,13.1,0,0,0,1.3-5.63,73,73,0,0,0-.71-11.8c-1-7.85-2.29-15.66-3.52-23.48l.15.11Zm0,0,17.56-3,.13,0,0,.13c1.29,7.81,2.64,15.61,3.67,23.47a74.82,74.82,0,0,1,.79,11.88,13.17,13.17,0,0,1-1.37,5.84,5.79,5.79,0,0,1-2.13,2.18,9.2,9.2,0,0,1-5.91,1,5.82,5.82,0,0,1-2.7-1.41,13.17,13.17,0,0,1-3.12-5.09,72.94,72.94,0,0,1-3-11.5C254,184.5,252.89,176.66,251.67,168.84Z" style="fill:#263238"></path><rect x="268.41" y="203.4" width="2.51" height="40.83" transform="translate(571.86 401.26) rotate(170.73)" style="fill:#ebebeb"></rect><polygon points="259.75 249.49 287.24 245 272.82 243.15 259.75 249.49" style="fill:#ebebeb"></polygon><path d="M267,207.37c-4.91.69-7.21-5.66-11-24.15a17.65,17.65,0,0,1,6.5,3.11c2.27,1.92,4.74,3,7.52-1C270,185.36,274.93,206.24,267,207.37Z" style="fill:#CFD8DC"></path><path d="M256.18,176.61s3.32-8.41,1.11-12.88c-.92-1.84-2.29-2.76-3.5-2.34s-2,3-.35,5C256,169.45,256.84,171.88,256.18,176.61Z" style="fill:#CFD8DC"></path><path d="M259,178.27s-1.59-5.22.93-5S259,178.27,259,178.27Z" style="fill:#CFD8DC"></path><path d="M387.13,228.41c-7,17.71-24.66,53-37.46,54.73-9.26,1.27-46.26-22.3-55.63-30.59-9.05-8,19.35-31.49,25-27.16,8,6.1,26,20.4,29.67,20.73,2.55.24,6.57-5.65,29-26C389.12,209.76,390.81,219.16,387.13,228.41Z" style="fill:#f7a9a0"></path><path d="M321.54,227.16s-11.83-8.45-19.83-13.61c-4.46-2.88-12.55-7.14-16.8-7.76-6.35-.92-33.5-.73-33.59,5.86-.09,6,23.22,2.83,23.22,2.83s-23.8,1.08-22.58,8.27,27.07.16,27.07.16-24.42,1.66-22,8.88c1.84,5.45,25.62.4,25.62.4s-21,1.57-19.34,7.26c1.82,6.29,24.06,3,24.06,3,6.62,13.77,15,18.21,22,19.61C311,262.39,321.54,227.16,321.54,227.16Z" style="fill:#f7a9a0"></path><path d="M281.62,213.66c-17.59-.54-26.38,4.58-26.12,4.49,6.17-2.09,16.13-3.23,18.92-3.5s4.43-.61,7.21-.88C281.7,213.76,281.69,213.67,281.62,213.66Z" style="fill:#263238"></path><path d="M283.92,223.62a60.1,60.1,0,0,0-21.1,2.16c-.26.09-.16.18.12.14,3.53-.45,17.45-1.94,21-2.21C284,223.71,284,223.63,283.92,223.62Z" style="fill:#263238"></path><path d="M286.47,232.07a44.3,44.3,0,0,0-16.28,2.15c-.26.07-.1.21.18.16,5.39-.81,9.62-1.49,16.1-2.12C286.58,232.25,286.59,232.07,286.47,232.07Z" style="fill:#263238"></path><path d="M304.11,215.25a106.08,106.08,0,0,1,10.62,6.85c3.43,2.45,6.77,5,10.14,7.55l10,7.7c1.67,1.27,3.35,2.53,5.07,3.75s3.45,2.39,5.26,3.47a82.48,82.48,0,0,1-10.68-6.76c-3.42-2.46-6.76-5-10.12-7.56s-6.67-5.15-10-7.69S307.65,217.53,304.11,215.25Z" style="fill:#263238"></path><path d="M305.53,261.05c4.1,2.57,8.19,5.14,12.32,7.64s8.26,5,12.6,7.09,8.7,4.23,13.15,6c2.22.84,4.62,1.58,6.93.95a18.31,18.31,0,0,0,6.3-3.4,17.57,17.57,0,0,1-6.2,3.75,8.18,8.18,0,0,1-3.68.19,20.07,20.07,0,0,1-3.54-1c-2.3-.82-4.5-1.84-6.7-2.84l-6.59-3c-2.19-1.06-4.3-2.26-6.39-3.48s-4.16-2.48-6.18-3.8C313.47,266.58,309.45,263.88,305.53,261.05Z" style="fill:#263238"></path><path d="M383.21,237.6a17.78,17.78,0,0,1,2.37-5.4,17.78,17.78,0,0,1-2.37,5.4Z" style="fill:#263238"></path><path d="M384.23,235.54c.28-.39.57-.75.82-1.14s.49-.78.74-1.19a3.08,3.08,0,0,1-.53,1.33A3.39,3.39,0,0,1,384.23,235.54Z" style="fill:#263238"></path><path d="M369.44,227.72a16.59,16.59,0,0,1,2-2.19,15.79,15.79,0,0,1,2.33-1.81,14.72,14.72,0,0,1-2,2.18A15.48,15.48,0,0,1,369.44,227.72Z" style="fill:#263238"></path><path d="M371,226.2a2.76,2.76,0,0,1,.53-1.37,3.71,3.71,0,0,1,.5-.55,2.83,2.83,0,0,1,.61-.41A9.91,9.91,0,0,0,371,226.2Z" style="fill:#263238"></path><path d="M394.91,286.86a.18.18,0,0,1,0,.05V287c-.1.44-.39,1.88-.84,4.18q0,.22-.09.48c-.34,1.67-.75,3.76-1.24,6.18-.08.44-.17.88-.27,1.34-.12.67-.26,1.36-.4,2.07-.11.54-.22,1.09-.34,1.66,0,.26-.09.52-.15.79-.09.46-.19.92-.29,1.4-.25,1.34-.53,2.74-.82,4.19-.14.69-.28,1.38-.42,2.1-.68,3.39-1.39,7-2.17,10.88-.18.93-.37,1.85-.55,2.78,0,.13-.05.27-.08.4-.28,1.4-.57,2.83-.86,4.29s-.62,3.18-.95,4.81l-.66,3.3-1.13,5.72c-.16.79-.32,1.58-.47,2.38l-.48,2.38c-.54,2.74-1.1,5.51-1.65,8.29-.17.84-.33,1.68-.5,2.53-.07.31-.13.61-.19.92-.11.6-.23,1.2-.35,1.79s-.22,1.17-.35,1.75-.21,1-.3,1.52c-.06.29-.11.59-.18.88-.27,1.4-.55,2.8-.82,4.2,0,.13,0,.27-.09.4-.46,2.3-.91,4.58-1.36,6.87-.23,1.19-.47,2.36-.71,3.53s-.45,2.27-.67,3.41a1.89,1.89,0,0,1-.05.23c-.16.79-.32,1.58-.47,2.36-.28,1.39-.54,2.76-.81,4.11,0,.18-.08.37-.11.55-.27,1.35-.54,2.68-.79,4a2.21,2.21,0,0,0-.08.37c-.21,1.08-.43,2.14-.63,3.19s-.42,2.1-.62,3.13c0,.16-.07.31-.1.48-1.61,8.07-3.06,15.41-4.26,21.49H312.27c3.3-16.1,9.1-41.14,14.89-65.47,7.44-31.28,14.86-61.37,16.92-69.72l.5-2,0-.1v0h0l0-.11Z" style="fill:#f7a9a0"></path><path d="M394.91,286.86s-13.93,70-23.06,116l-27.21-116Z" style="fill:#263238"></path><polygon points="326.59 358.79 383.19 365.6 394.91 286.86 344.65 286.86 326.59 358.79" style="fill:#263238"></polygon><path d="M381.08,354.73c-6.05-1.21-12.19-2-18.32-2.65s-12.13-1.35-18.2-2c-3.48-.35-7-.7-10.45-.89a.17.17,0,1,0,0,.33c6.05,1.13,12.2,1.84,18.31,2.64s12.11,1.56,18.18,2.21c3.49.37,7,.66,10.46.8A.24.24,0,1,0,381.08,354.73Z" style="fill:#37474f"></path><path d="M387.08,291.45q-6.31,22.6-12,45.38c-.54,2.13-1.05,4.27-1.57,6.4a65.31,65.31,0,0,0-1.41,6.61.1.1,0,0,0,.2.05,111.77,111.77,0,0,0,3.3-11.4c1-3.76,2-7.54,3-11.32,2-7.55,3.89-15.1,5.73-22.68q1.56-6.48,3.11-13A.14.14,0,0,0,387.08,291.45Z" style="fill:#37474f"></path><path d="M427.94,424.33H374.79c-.53-9.56-1-19.33-1.51-28.64v0c-.56-10.88-1.08-21.12-1.49-29.66,0-.61-.06-1.21-.09-1.8-.18-3.62-.33-6.91-.47-9.75,0-.47-.05-.92-.07-1.36-.22-4.57-.37-7.87-.45-9.48q0-.31,0-.54c0-.36,0-.56,0-.56-3-1.67-5.58-2.92-7.65-3.85l-1.2-.53a42.26,42.26,0,0,0-5.09-1.91c-.44-1.11-.88-2.26-1.3-3.43-6.43-17.95-10.31-42.65-10.77-45.68l0-.14h0a.91.91,0,0,1,0-.16h66.65c16.62,31.78,7.74,52.82,7.74,52.82.88,7.33,1.9,16.42,3,26.38C423.92,384.28,426.08,405.51,427.94,424.33Z" style="fill:#f7a9a0"></path><path d="M371.64,366H424l-4-26.38s8-26.77-7.59-52.82H344.6s2.81,28.37,11.13,49.71l8.52,3.78Z" style="fill:#263238"></path><path d="M364.25,340.3c-.07-.34-.75-.33-.69,0,2.76,15.56,7.11,23.09,7.42,23.8a.11.11,0,0,0,.2,0C371.42,363.37,365.49,346.76,364.25,340.3Z" style="fill:#37474f"></path><path d="M354.18,335.46a110.71,110.71,0,0,1,17.35,8.08.2.2,0,0,1-.16.36c-5.84-2.51-11.8-4.91-17.5-7.74A.38.38,0,0,1,354.18,335.46Z" style="fill:#37474f"></path><path d="M352.33,295.36c0-.2.37-.24.36,0,0,6.94.4,13.05,1,19.53.28,3,2.7,19.65,7.92,18.43.87-.2,1.32-1.06,1.45-2.38.17-1.58-.43-3.52-.69-5.1-.58-3.48-1-7-1.34-10.49a95.18,95.18,0,0,1,.21-19.68.17.17,0,0,1,.34,0,180,180,0,0,0,1.59,27.16c.65,4.33,2.83,10.84-1.7,11.51s-7.59-10.23-8.15-13.22A99.57,99.57,0,0,1,352.33,295.36Z" style="fill:#37474f"></path><path d="M361.45,333.74a28,28,0,0,1,1.17,3.45,7.92,7.92,0,0,1,.49,2.83.2.2,0,0,1-.36.08,9.9,9.9,0,0,1-1.21-2.76c-.4-1.06-.82-2.12-1.19-3.2A.59.59,0,0,1,361.45,333.74Z" style="fill:#37474f"></path><path d="M410,315.71c-4.93-.49-10-.42-14.58-2.63s-7.6-6.64-10-11.07a36.56,36.56,0,0,1-3.27-8.68.13.13,0,0,0-.25,0,24.27,24.27,0,0,0,2,8.19,36.26,36.26,0,0,0,3.92,7.25,17.57,17.57,0,0,0,5.63,5.29,19.4,19.4,0,0,0,7.4,2.24,41.51,41.51,0,0,0,9.12-.06A.29.29,0,0,0,410,315.71Z" style="fill:#37474f"></path><path d="M416.82,345.19a46.55,46.55,0,0,1-1.47-7.36c-.14-2.47,1.17-4.6,1.92-6.88,2.89-8.86,1.72-18.56-1.44-27.18A98.35,98.35,0,0,0,409,289.58c-.07-.12-.24,0-.18.11,4.32,8.43,8.14,17.44,9,27a36,36,0,0,1-1.26,13.66c-.64,2.09-1.84,4.11-2,6.32s.57,4.65,1.08,6.87c.63,2.76,2.56,11.09,3.41,13.89.08.24.5.19.46-.07C419.1,354.84,417.38,347.74,416.82,345.19Z" style="fill:#37474f"></path><path d="M420.59,359.18c-6.16-.46-12.34-.45-18.51-.39s-12.2.16-18.3.28c-3.5.08-7,.16-10.48.4a.17.17,0,1,0,0,.33c6.15.37,12.35.33,18.51.38s12.21.06,18.31,0c3.5-.06,7-.19,10.48-.48A.24.24,0,1,0,420.59,359.18Z" style="fill:#37474f"></path></g><g id="freepik--character-1--inject-71"><path d="M208.68,103.57H62.61a14.91,14.91,0,0,0-14.77,15.05V419.31a14.92,14.92,0,0,0,14.77,15.05H208.68a14.93,14.93,0,0,0,14.79-15.05V118.62A14.92,14.92,0,0,0,208.68,103.57ZM214.23,410c0,7.91-5.92,14.31-13.23,14.31H70.32c-7.33,0-13.25-6.4-13.25-14.31V130c0-16.13,5.92-16.91,13.25-16.91H96.49c1.52,0,2.77,1.73,2.77,3.87v.92c0,5,2.74,5,6.12,5h60.54c3.4,0,6.12,0,6.12-5V117c0-2.14,1.23-3.87,2.78-3.87H201c7.31,0,13.23,2.14,13.23,16.91Z" style="fill:#263238"></path><path d="M143.91,116.67H127.39a1,1,0,0,1-1-1h0a1,1,0,0,1,1-1h16.52a1,1,0,0,1,1,1h0A1,1,0,0,1,143.91,116.67Z" style="fill:#fff"></path><path d="M214.24,130V410c0,7.91-5.93,14.31-13.24,14.31H70.32c-7.32,0-13.25-6.4-13.25-14.31V130c0-16.13,5.93-16.91,13.25-16.91H96.49c1.52,0,2.77,1.73,2.77,3.87v.92c0,5,2.75,5,6.12,5h60.54c3.4,0,6.13,0,6.13-5V117c0-2.14,1.22-3.87,2.77-3.87H201C208.31,113.11,214.24,115.25,214.24,130Z" style="fill:#fff"></path><path d="M214.23,130v20.89H57.06V130c0-16.13,5.93-16.91,13.26-16.91H96.5c1.52,0,2.76,1.73,2.76,3.87v.92c0,5,2.75,5,6.12,5h60.53c3.41,0,6.14,0,6.14-5V117c0-2.14,1.23-3.87,2.77-3.87H201C208.3,113.11,214.23,115.25,214.23,130Z" style="fill:#CFD8DC"></path><polygon points="72.98 140.71 68.33 136.36 72.98 132.01 73.7 132.78 69.87 136.36 73.7 139.94 72.98 140.71" style="fill:#fff"></polygon><path d="M203,134.56a.92.92,0,1,1-.91-.91A.92.92,0,0,1,203,134.56Z" style="fill:#fff"></path><path d="M203,137.81a.92.92,0,1,1-.91-.91A.91.91,0,0,1,203,137.81Z" style="fill:#fff"></path><path d="M203,141.06a.92.92,0,1,1-.91-.91A.91.91,0,0,1,203,141.06Z" style="fill:#fff"></path><g id="freepik--u5zjqx--inject-71"><path d="M92,119.4l-.26.25a1.85,1.85,0,0,1-.14.14,3.44,3.44,0,0,0-4.87,0l-.14-.14-.25-.25h0l.32-.29a3.85,3.85,0,0,1,.74-.47,3.77,3.77,0,0,1,1-.33c.16,0,.33,0,.49-.06h.43l.33,0a4,4,0,0,1,.9.22,4.22,4.22,0,0,1,.61.28,4,4,0,0,1,.58.41l.27.24Z" style="fill:#fff"></path><path d="M87.51,120.59l-.4-.4a2.81,2.81,0,0,1,1.62-.82,2.88,2.88,0,0,1,2.45.81l-.4.4a2.32,2.32,0,0,0-3.27,0Z" style="fill:#fff"></path><path d="M90.38,121l-.4.39a1.2,1.2,0,0,0-1.67,0l-.4-.39A1.73,1.73,0,0,1,90.38,121Z" style="fill:#fff"></path><path d="M89.5,121.74a.36.36,0,0,1-.36.36.36.36,0,0,1-.36-.36.37.37,0,0,1,.36-.36A.36.36,0,0,1,89.5,121.74Z" style="fill:#fff"></path></g><path d="M67.31,120.16a1,1,0,1,1,1,1A1,1,0,0,1,67.31,120.16Z" style="fill:#fff"></path><path d="M70.6,120.16a1,1,0,1,1,1,1A1,1,0,0,1,70.6,120.16Z" style="fill:#fff"></path><path d="M73.88,120.16a1,1,0,1,1,1,1A1,1,0,0,1,73.88,120.16Z" style="fill:#fff"></path><path d="M77.16,120.16a1,1,0,1,1,1,1A1,1,0,0,1,77.16,120.16Z" style="fill:#fff"></path><path d="M80.44,120.16a1,1,0,1,1,1,1A1,1,0,0,1,80.44,120.16Z" style="fill:#fff"></path><path d="M202.48,122.47h-8.55v-4h8.55Zm-8-.5H202v-3h-7.55Z" style="fill:#fff"></path><rect x="194.67" y="119.17" width="5.47" height="2.59" style="fill:#fff"></rect><rect x="202.45" y="119.42" width="0.75" height="2.1" style="fill:#fff"></rect><polygon points="80.95 407.22 79.75 407.22 79.75 412.7 77.52 412.7 77.52 409.91 73.57 409.91 73.57 412.7 71.33 412.7 71.33 407.22 70.14 407.22 75.54 401.63 80.95 407.22" style="fill:#ebebeb"></polygon><rect x="188.15" y="401.63" width="13.03" height="1.86" style="fill:#ebebeb"></rect><rect x="188.15" y="406.24" width="13.03" height="1.86" style="fill:#ebebeb"></rect><rect x="188.15" y="410.84" width="13.03" height="1.86" style="fill:#ebebeb"></rect><polygon points="139.36 406.43 135.65 410.38 131.95 406.43 132.6 405.81 135.65 409.07 138.71 405.81 139.36 406.43" style="fill:#ebebeb"></polygon><path d="M135.65,414.52a6.79,6.79,0,1,1,6.79-6.78A6.79,6.79,0,0,1,135.65,414.52Zm0-12.57a5.79,5.79,0,1,0,5.79,5.79A5.79,5.79,0,0,0,135.65,402Z" style="fill:#ebebeb"></path><polygon points="74.25 267.8 186.65 267.8 186.65 232.5 74.25 232.5 74.25 232.5 74.25 267.8 74.25 267.8" style="fill:#455a64"></polygon><polygon points="197.06 267.8 186.65 267.8 186.65 256.96 197.06 267.8" style="fill:#455a64"></polygon><rect x="80.69" y="238.61" width="99.53" height="0.67" style="fill:#fff"></rect><rect x="80.69" y="242.23" width="78.87" height="0.67" style="fill:#fff"></rect><rect x="80.69" y="249.47" width="91.34" height="0.67" style="fill:#fff"></rect><rect x="80.69" y="253.09" width="99.53" height="0.67" style="fill:#fff"></rect><rect x="80.69" y="256.71" width="99.53" height="0.67" style="fill:#fff"></rect><rect x="80.69" y="260.34" width="71.96" height="0.67" style="fill:#fff"></rect><polygon points="74.25 351.15 186.65 351.15 186.65 315.86 74.25 315.86 74.25 315.86 74.25 351.15 74.25 351.15" style="fill:#455a64"></polygon><polygon points="197.06 351.15 186.65 351.15 186.65 340.31 197.06 351.15" style="fill:#455a64"></polygon><rect x="80.69" y="321.96" width="99.53" height="0.67" style="fill:#fff"></rect><rect x="80.69" y="325.58" width="78.87" height="0.67" style="fill:#fff"></rect><rect x="80.69" y="332.82" width="91.34" height="0.67" style="fill:#fff"></rect><rect x="80.69" y="336.45" width="99.53" height="0.67" style="fill:#fff"></rect><rect x="80.69" y="340.07" width="99.53" height="0.67" style="fill:#fff"></rect><rect x="80.69" y="343.69" width="71.96" height="0.67" style="fill:#fff"></rect><rect x="84.66" y="167.7" width="112.4" height="29.78" style="fill:#dbdbdb"></rect><polygon points="74.25 197.48 84.66 197.48 84.66 186.64 74.25 197.48" style="fill:#dbdbdb"></polygon><rect x="91.22" y="173.2" width="82.89" height="0.67" style="fill:#fff"></rect><rect x="91.22" y="176.82" width="99.53" height="0.67" style="fill:#fff"></rect><rect x="91.22" y="180.44" width="99.53" height="0.67" style="fill:#fff"></rect><rect x="91.22" y="184.06" width="91.65" height="0.67" style="fill:#fff"></rect><rect x="91.22" y="187.69" width="99.53" height="0.67" style="fill:#fff"></rect><rect x="91.22" y="191.31" width="73.54" height="0.67" style="fill:#fff"></rect><rect x="84.66" y="202.3" width="112.4" height="22.09" style="fill:#dbdbdb"></rect><polygon points="74.25 224.38 84.66 224.38 84.66 213.54 74.25 224.38" style="fill:#dbdbdb"></polygon><rect x="91.22" y="207.8" width="99.35" height="0.67" style="fill:#fff"></rect><rect x="91.22" y="211.42" width="81.77" height="0.67" style="fill:#fff"></rect><rect x="91.22" y="215.04" width="89.99" height="0.67" style="fill:#fff"></rect><rect x="91.22" y="218.66" width="69.41" height="0.67" style="fill:#fff"></rect><rect x="84.66" y="276.44" width="112.4" height="31.13" style="fill:#dbdbdb"></rect><polygon points="74.25 307.57 84.66 307.57 84.66 296.73 74.25 307.57" style="fill:#dbdbdb"></polygon><rect x="91.22" y="292.69" width="93.99" height="0.67" style="fill:#fff"></rect><rect x="91.22" y="296.31" width="86.34" height="0.67" style="fill:#fff"></rect><rect x="91.22" y="285.45" width="88.57" height="0.67" style="fill:#fff"></rect><rect x="91.22" y="281.83" width="98.29" height="0.67" style="fill:#fff"></rect><rect x="91.22" y="299.94" width="89.4" height="0.67" style="fill:#fff"></rect><rect x="84.66" y="360.34" width="112.4" height="25.92" style="fill:#dbdbdb"></rect><polygon points="74.25 386.26 84.66 386.26 84.66 375.42 74.25 386.26" style="fill:#dbdbdb"></polygon><rect x="91.22" y="365.6" width="99.53" height="0.67" style="fill:#fff"></rect><rect x="91.22" y="369.22" width="99.53" height="0.67" style="fill:#fff"></rect><rect x="91.22" y="372.85" width="91.65" height="0.67" style="fill:#fff"></rect><rect x="91.22" y="376.47" width="99.53" height="0.67" style="fill:#fff"></rect><rect x="91.22" y="380.09" width="73.54" height="0.67" style="fill:#fff"></rect><path d="M184.77,424.33H130c-2.47-22.72-7.33-75.78-10.38-109.35,0-.49-.08-1-.13-1.47-.18-2.05-.36-4-.53-5.91-1.21-13.38-2-22.2-2-22.2h50.07a.6.6,0,0,1,0,.13s0,0,0,0c.16,1.15,1.14,8.77,2.58,20C173.71,337.35,181.49,398.05,184.77,424.33Z" style="fill:#37474f"></path><path d="M140.73,424.33h-.84c-.18-1.27-.37-2.53-.58-3.79-.33-2.1-.68-4.2-1-6.3q-1.22-7.44-2.33-14.89c-.48-3.11-.93-6.23-1.37-9.35-3.8-27.4-6.57-54.92-9-82.48a.66.66,0,0,1,0-.15c-.11-1.11-.21-2.23-.3-3.34-.35-4-.69-8-1-12,0-.13.18-.13.2,0,.36,3.55.73,7.11,1.08,10.66.13,1.3.26,2.6.4,3.9,0,.28,0,.55.08.82,1.33,13.22,2.66,26.43,4.1,39.63,1.77,16.17,3.73,32.33,6.08,48.43,0,.16.05.31.07.48,1,7.28,2.32,14.53,3.44,21.79C140.1,419.9,140.43,422.12,140.73,424.33Z" style="fill:#263238"></path><path d="M159.82,285.4l-3.16,20.82-3.59,23.59-.22,1.52-.61,4-.05.29L152,336.7l-12.29,81-.43,2.85-.58,3.79h-9.31c-3.91-21.9-12.79-72-18.75-105.65,0-.31-.1-.62-.16-.92-.62-3.49-1.2-6.78-1.74-9.84-2.4-13.56-4-22.52-4-22.52Z" style="fill:#263238"></path><path d="M167.09,285.35l0,.18s0,0,0,0c-.2,1.38-1.53,9.93-3.81,20.38-2,9.12-4.71,19.71-8.05,28.21l-.17.45s-1,.31-2.84,1c-.71.28-1.56.62-2.52,1.05l-1,.45c-1.89.85-4.16,1.94-6.73,3.3l-1.64.89,0,.33c-.24,3.21-2.24,29.33-4,53.77-.09,1.31-.19,2.63-.28,3.93-.67,9.21-1.28,18-1.74,25H83.12c2.11-26.64,7.82-83.91,11.07-116,1.39-13.84,2.34-23,2.34-23Z" style="fill:#37474f"></path><path d="M102.12,293.09q-.59,7.53-1.15,15.07-1.53,20.35-3.13,40.7C95.8,374,93.58,399.2,91,424.33h-.8q1.7-16.32,3.17-32.66c2.55-27.81,4.86-55.65,7.11-83.49q.6-7.55,1.21-15.09C101.72,292.82,102.14,292.82,102.12,293.09Z" style="fill:#263238"></path><path d="M157.55,333.27a109.84,109.84,0,0,0-17.28,8.05.2.2,0,0,0,.16.36c5.82-2.5,11.76-4.89,17.43-7.71A.38.38,0,0,0,157.55,333.27Z" style="fill:#263238"></path><path d="M159.4,293.32c0-.2-.37-.24-.37,0a194.07,194.07,0,0,1-1,19.45c-.27,3-2.69,19.57-7.89,18.36-.87-.2-1.31-1.06-1.45-2.37-.16-1.58.43-3.51.69-5.08.58-3.47,1-7,1.34-10.46a95.11,95.11,0,0,0-.21-19.6.17.17,0,0,0-.34,0,180,180,0,0,1-1.58,27.06c-.65,4.31-2.82,10.8,1.69,11.47s7.56-10.2,8.12-13.17A99.32,99.32,0,0,0,159.4,293.32Z" style="fill:#263238"></path><path d="M150.31,331.56a27.72,27.72,0,0,0-1.17,3.43,7.66,7.66,0,0,0-.48,2.83c0,.18.26.2.36.07a10.19,10.19,0,0,0,1.2-2.74c.4-1.07.82-2.12,1.18-3.19A.58.58,0,0,0,150.31,331.56Z" style="fill:#263238"></path><path d="M126.78,298.75a9.63,9.63,0,0,0-.22-2.15.11.11,0,0,0-.21,0,8.24,8.24,0,0,0-.24,1.86c-.08.71-.17,1.42-.25,2.14a30.42,30.42,0,0,1-.76,4.33,15.39,15.39,0,0,1-4,7.13,20.4,20.4,0,0,1-6.72,4.42c-2.79,1.19-5.73,1.63-8.61,2.48a.11.11,0,0,0,0,.21,24.71,24.71,0,0,0,9.33-1.84,19.85,19.85,0,0,0,7-4.47,15.63,15.63,0,0,0,4.08-7.34,24.22,24.22,0,0,0,.53-6.77Z" style="fill:#263238"></path><path d="M89.75,308.4c.21.22,86.08-2.49,86.83-3.4,1-1.28-17.33-86.56-31.92-104.62-3.65-4.51-15.94-5.73-20.76-.72-14,14.52-16.52,24.9-19.86,34.56-2.48,7.16-5.3,19.29-7.77,31.72C92.19,286.41,89,307.62,89.75,308.4Z" style="fill:#CFD8DC"></path><path d="M140.49,211.19c-3.56.7-12-4.88-15.76-10.09-.25-.36-.17-4.47-.3-9.47-.09-3-.27-6.4-.65-9.47l19.83,2.28a49.65,49.65,0,0,0-.4,12,7.75,7.75,0,0,0,.29,1.24c0,.06,0,.12.06.2C144.24,200.25,146.06,210.1,140.49,211.19Z" style="fill:#ad6359"></path><path d="M143.5,197.7c0,.06,0,.12.06.2a12,12,0,0,1-2,.36c-11,1.1-15.31-11.9-16.37-15.94l18.4,2.12a49.41,49.41,0,0,0-.41,12A7.75,7.75,0,0,0,143.5,197.7Z" style="fill:#263238"></path><path d="M120.21,156.19c-2.08,6.88,1.6,26.74,6.5,31.16,7.11,6.4,18.72,7,24.15-1.55,5.27-8.28,0-34.07-5.46-38.08C137.34,141.81,123.28,146,120.21,156.19Z" style="fill:#ad6359"></path><path d="M138.49,167.22c0-.05-.09.09-.08.14.3,1.33.42,2.9-.7,3.57,0,0,0,.09,0,.08C139.17,170.51,139,168.43,138.49,167.22Z" style="fill:#263238"></path><path d="M137,166.06c-2.18.25-1.52,4.59.5,4.36S138.85,165.85,137,166.06Z" style="fill:#263238"></path><path d="M146.4,165.73s.11.05.12.1c.16,1.35.58,2.87,1.86,3.13,0,0,.05.08,0,.08C146.87,169.06,146.34,167,146.4,165.73Z" style="fill:#263238"></path><path d="M147.38,164.14c2.14-.49,3,3.82,1,4.28S145.59,164.56,147.38,164.14Z" style="fill:#263238"></path><path d="M135.18,164c.56-.24,1-.56,1.59-.85a2.86,2.86,0,0,0,1.45-1.18.92.92,0,0,0-.31-1.08,2.29,2.29,0,0,0-2.33.11,3.41,3.41,0,0,0-1.71,1.74A1,1,0,0,0,135.18,164Z" style="fill:#263238"></path><path d="M149.41,163a17.86,17.86,0,0,1-1.75.43,2.93,2.93,0,0,1-1.87.09.93.93,0,0,1-.49-1,2.31,2.31,0,0,1,1.81-1.47,3.37,3.37,0,0,1,2.44.17A1,1,0,0,1,149.41,163Z" style="fill:#263238"></path><path d="M139.16,179.89c.37.27.75.65,1.25.62a3.58,3.58,0,0,0,1.39-.56s.09,0,.07.06a1.84,1.84,0,0,1-1.59,1,1.43,1.43,0,0,1-1.24-1C139,179.9,139.1,179.85,139.16,179.89Z" style="fill:#263238"></path><path d="M140,175.65a4.65,4.65,0,0,0,3.37,1.57A5.83,5.83,0,0,0,145,177l.31-.08.29-.09a.34.34,0,0,0,.22-.35h0a.74.74,0,0,0,0-.14h0l0-.12c-.13-1-.47-2.6-.47-2.6.41.13,2.47.71,2.35.17-1-4.44-2-9.37-3.89-13.58-.06-.14-.28-.08-.24.07.74,4.3,2.24,8.44,3.06,12.75a8.24,8.24,0,0,0-2.26-.33c-.14.07.71,3,.73,3.47a.07.07,0,0,1,0,.05,6.4,6.4,0,0,1-5-.74C140,175.45,139.86,175.55,140,175.65Z" style="fill:#263238"></path><path d="M144.29,176.61a5.51,5.51,0,0,1-1.92,2,2.46,2.46,0,0,1-1.47.32c-1.12-.12-1.29-1.1-1.23-2a6.19,6.19,0,0,1,.29-1.37A7.1,7.1,0,0,0,144.29,176.61Z" style="fill:#263238"></path><path d="M142.37,178.63a2.46,2.46,0,0,1-1.47.32c-1.12-.12-1.29-1.1-1.23-2A2.56,2.56,0,0,1,142.37,178.63Z" style="fill:#ff9bbc"></path><path d="M120.42,170.34c1.32-.79,3.54-5.53,4.54-7.47s.16-11-.16-13.61a14.27,14.27,0,0,0-4.5,6.65C119.35,159,119.5,164.62,120.42,170.34Z" style="fill:#263238;opacity:0.2"></path><path d="M142.89,154.44a7,7,0,0,1-6,3.19,7.09,7.09,0,0,1-6-3.47.06.06,0,0,0-.1.06,7,7,0,0,0,6.06,4,7.15,7.15,0,0,0,6.16-3.66C143.09,154.44,143,154.35,142.89,154.44Z" style="fill:#263238"></path><path d="M133.44,138.36c-4,.63-7.36,3.34-8.46,6.26a7.85,7.85,0,0,0-.07,5.15c0,.07.16,0,.15,0a8.56,8.56,0,0,1,3-8.23,11.08,11.08,0,0,1,9.54-2.47,7,7,0,0,1,4.12,2.49c.1.13.39,0,.3-.14C140.57,139,137.05,137.8,133.44,138.36Z" style="fill:#263238"></path><path d="M157.85,143.9a8.94,8.94,0,0,0-4.4-4.24c-2.66-1.18-5.41-.59-8.12.07-.08,0-.05.13,0,.11,2.32-.55,4.7-1,7-.15a8.69,8.69,0,0,1,4.58,3.68,8.52,8.52,0,0,1-2.08,11,8.67,8.67,0,0,1-6.68,1.6c-.09,0-.14.12,0,.14a8.71,8.71,0,0,0,9.73-12.18Z" style="fill:#263238"></path><path d="M119.63,160.11s-4.74-6.66-2.1-11.23c1.5-2.58,7.51-3,7.51-3a10.85,10.85,0,0,1,6.28-5.46c4.86-1.8,11.18.35,11.18.35s4.4-3.34,9.18-1.38c6.66,2.74,7.12,12.29,1.27,16.14-4.11,2.7-10.57-.4-10.57-.4-.56.15-6,4.45-11.07-.21,0,0-3.19,3.68-6.72,1.85A5.26,5.26,0,0,1,119.63,160.11Z" style="fill:#263238"></path><path d="M124.49,172.37s-4.63-6.32-7.51-4.65.71,10.9,4.16,12.09a3.48,3.48,0,0,0,4.62-2Z" style="fill:#ad6359"></path><path d="M118.07,170.34s-.06.07,0,.09c2.42.92,3.73,3.11,4.67,5.4a1.92,1.92,0,0,0-2.89-.46c-.06,0,0,.14.07.13a2.13,2.13,0,0,1,2.37.69,9.85,9.85,0,0,1,1.17,1.88c.12.21.51.09.42-.16l0,0C123.84,174.8,121.37,170.57,118.07,170.34Z" style="fill:#263238"></path><path d="M143.52,197.05l-3,12.07-16.22-12.46-3.37,5.2s17.1,21,17,20l3.33-10.51,7.75,5.9-3-17.12Z" style="fill:#ebebeb"></path><path d="M148.09,208.67c-.59-2.81-1.1-5.66-1.81-8.44,0-.1-.19-.12-.2,0-.18,2.82,2.11,13.55,2.46,16.15l0,0c-.33-.26-7.15-5.15-7.19-5.05-.8,1.71-3.25,9.36-3.4,10.05-2.7-3.34-13-15.42-16.06-18.5a.1.1,0,0,0-.16.12c2.48,3.58,16.12,19.87,16.29,19.8a112.54,112.54,0,0,0,3.46-11.1c1.19,1.1,8.17,6.72,8.13,6.29A91.36,91.36,0,0,0,148.09,208.67Z" style="fill:#263238"></path><path d="M241.13,178.18c-7.86,32.39-10.25,42.21-1.54,44.33s11.07-7.72,18.94-40.11Z" style="fill:#ebebeb"></path><path d="M241.13,178.18c-1.79,7.75-3.65,15.49-5.25,23.27a73.51,73.51,0,0,0-1.62,11.78,13,13,0,0,0,.9,5.75,5.44,5.44,0,0,0,1.82,2.18,7.9,7.9,0,0,0,2.65,1.13,8,8,0,0,0,2.88.2,5.37,5.37,0,0,0,2.6-1.12,13.24,13.24,0,0,0,3.4-4.69,74.05,74.05,0,0,0,4-11.2c2.17-7.65,4-15.39,5.93-23.11l.09.17Zm0,0,17.43,4.09.13,0,0,.14c-1.87,7.73-3.67,15.48-5.8,23.15a74.37,74.37,0,0,1-3.91,11.3,13.33,13.33,0,0,1-3.55,4.87,6,6,0,0,1-2.83,1.19,8.38,8.38,0,0,1-3-.23,8.6,8.6,0,0,1-2.8-1.21,5.86,5.86,0,0,1-1.94-2.36,13.41,13.41,0,0,1-.91-5.93,74.6,74.6,0,0,1,1.7-11.83C237.19,193.59,239.2,185.89,241.13,178.18Z" style="fill:#263238"></path><rect x="235.01" y="215.58" width="2.52" height="41.02" transform="translate(410.15 521.28) rotate(-166.35)" style="fill:#ebebeb"></rect><polygon points="217.04 255.97 244.24 262.58 231.63 255.22 217.04 255.97" style="fill:#ebebeb"></polygon><path d="M240.24,219.83c-3.36-.82-5.42-3.77-1.69-22.36a8.08,8.08,0,0,0,2.81,3.12c1.94.92,7.08-4.8,11.42-3.74C252.78,196.85,248.07,221.73,240.24,219.83Z" style="fill:#CFD8DC"></path><path d="M117.22,226.83c12,25.17,30.69,50.07,38.12,51.37,8.17,1.43,40.15-2.59,55.59-9.77,4.07-1.89-11.64-34.5-16.08-32.66-8.54,3.55-33.19,12.33-37.73,11.31-4.2-.94-12.93-12.62-27.93-25.12C117.71,212.38,111.12,214,117.22,226.83Z" style="fill:#ad6359"></path><path d="M188.91,238.73s11.83-8.45,19.83-13.61c4.46-2.88,12.55-7.14,16.8-7.76,6.35-.92,33.49-.73,33.59,5.86.09,6-23.22,2.83-23.22,2.83s23.8,1.08,22.58,8.27-27.08.16-27.08.16,24.43,1.66,22,8.88c-1.84,5.45-25.62.4-25.62.4s21,1.57,19.34,7.26c-1.82,6.29-24.06,3-24.06,3-6.62,13.77-11.84,15.62-18.84,17C202.6,271.37,188.91,238.73,188.91,238.73Z" style="fill:#ad6359"></path><path d="M228.83,225.23c17.59-.54,26.38,4.58,26.12,4.49-6.17-2.09-16.14-3.23-18.92-3.5s-4.43-.61-7.21-.88C228.75,225.33,228.76,225.24,228.83,225.23Z" style="fill:#263238"></path><path d="M226.53,235.19a60.13,60.13,0,0,1,21.1,2.16c.26.09.16.18-.12.14-3.53-.45-17.45-1.94-21-2.21C226.47,235.27,226.48,235.2,226.53,235.19Z" style="fill:#263238"></path><path d="M224,243.64a44.3,44.3,0,0,1,16.28,2.15c.26.07.1.21-.18.16-5.4-.81-9.63-1.49-16.11-2.12C223.87,243.82,223.86,243.64,224,243.64Z" style="fill:#263238"></path><path d="M191.79,236.13l12.92,38.33s-42.49,11.62-53.34,4.52-26.92-33.26-35-50.23-.19-18.11,11.29-9.87,26.34,25,28.69,26.86S191.79,236.13,191.79,236.13Z" style="fill:#CFD8DC"></path><path d="M189.39,257.79c1,2.92,4.83,14.58,6,17.39,0,.05.09,0,.08,0-.63-2.93-4.15-14.57-5.1-17.5a176.36,176.36,0,0,0-6.15-17.34.1.1,0,0,0-.18.06C185.46,246.31,187.51,252,189.39,257.79Z" style="fill:#263238"></path><path d="M171.89,280.79a63.29,63.29,0,0,1-9.73.65,26.3,26.3,0,0,1-9.64-1.61,13.65,13.65,0,0,1-4.05-2.82,47.14,47.14,0,0,1-3.38-3.55c-2.15-2.45-4.18-5-6.14-7.6-3.92-5.2-7.55-10.62-11-16.11q-2.58-4.16-5-8.38t-4.61-8.6c1.59,2.84,3.25,5.63,4.94,8.4s3.41,5.53,5.19,8.25c3.52,5.45,7.21,10.8,11.09,16,1.94,2.6,3.93,5.16,6.05,7.61,1.06,1.22,2.15,2.43,3.29,3.56a12.94,12.94,0,0,0,3.84,2.8,27.28,27.28,0,0,0,9.46,1.77A63.17,63.17,0,0,0,171.89,280.79Z" style="fill:#263238"></path><path d="M118.31,236.78a27.53,27.53,0,0,1,2.76,2.41c.87.85,1.7,1.72,2.51,2.65a10.49,10.49,0,0,1-1.5-1.07c-.47-.39-.92-.8-1.36-1.23A22,22,0,0,1,118.31,236.78Z" style="fill:#263238"></path><path d="M184.91,238.45q-7.38,2.52-14.87,4.7-3.73,1.11-7.53,2c-1.27.31-2.54.6-3.84.81-.33.05-.66.09-1,.11a2.6,2.6,0,0,1-.55,0,1.47,1.47,0,0,1-.58-.22,14.39,14.39,0,0,1-1.61-1.21c-2-1.7-3.83-3.54-5.69-5.36s-3.68-3.67-5.48-5.55c-3.6-3.75-7.15-7.53-10.61-11.41l11,11c3.7,3.64,7.34,7.37,11.23,10.76a12.91,12.91,0,0,0,1.5,1.14c.34.28,1.06.12,1.66.06,1.27-.19,2.53-.47,3.79-.76,2.52-.6,5-1.27,7.54-1.93C174.9,241.26,179.9,239.84,184.91,238.45Z" style="fill:#263238"></path><path d="M136.09,223.6a9.71,9.71,0,0,1,1.55,2.08,9.41,9.41,0,0,1,1,2.41,10.74,10.74,0,0,1-.75-1.06c-.24-.36-.45-.73-.67-1.1A17.87,17.87,0,0,1,136.09,223.6Z" style="fill:#263238"></path></g><g id="freepik--Hearts--inject-71"><path d="M255.68,93.28c1.16,6.5,6.88,11.83,6.88,11.83s7.68-1.41,12.15-6.27c3.73-4,3.74-9.61.37-11.81-4.84-3.15-8.9,5.69-8.9,5.69s1.33-9.64-4.45-9.59C257.7,83.17,254.72,87.86,255.68,93.28Z" style="fill:#CFD8DC"></path><path d="M230.83,113.53c4,2.73,9.76,2.46,9.76,2.46s3.21-4.77,2.95-9.62c-.22-4.05-3.14-6.91-6-6.26-4.15.92-1.57,7.61-1.57,7.61s-4.39-5.66-7.34-2.59C226.54,107.27,227.48,111.25,230.83,113.53Z" style="fill:#CFD8DC"></path><path d="M254.7,67.11a12.08,12.08,0,0,0,5.13,4.25,12.15,12.15,0,0,0,4.5-4.91c1-2.48.09-5-1.82-5.46-2.75-.63-3.11,4.1-3.11,4.1s-1-4.63-3.65-3.63C253.92,62.15,253.34,64.79,254.7,67.11Z" style="fill:#CFD8DC"></path></g></svg>