<svg width="256" height="256" viewBox="0 0 256 256" fill="none" xmlns="http://www.w3.org/2000/svg">
<g opacity="0.4">
<path d="M14.336 122.962C13.8385 126.972 14.1324 131.04 15.2013 134.937C16.297 138.757 18.3245 142.315 21.2122 144.711C21.9168 145.307 22.6724 145.84 23.4701 146.304C24.2547 146.743 25.0793 147.106 25.9328 147.389C27.596 147.942 29.3487 148.177 31.0989 148.08C34.5753 147.891 37.9187 146.58 40.96 144.686C41.1392 144.568 41.3542 144.445 41.513 144.332L41.9481 144.005C42.2349 143.769 42.5216 143.544 42.7981 143.283C43.375 142.767 43.9092 142.205 44.3955 141.603C45.4638 140.307 46.4083 138.913 47.2166 137.441C48.9946 134.198 50.5347 130.831 51.8246 127.365C54.5894 120.197 57.0214 112.517 59.7555 104.78C60.4382 102.845 61.1482 100.901 61.8854 98.9487C62.6073 96.9929 63.3907 95.037 64.2048 93.071C65.8471 88.9753 67.8001 85.0111 70.0467 81.213C70.6611 80.189 71.3216 79.206 72.0947 78.1974C72.4736 77.6854 72.8883 77.1733 73.3286 76.6921C73.769 76.2108 74.2297 75.7449 74.7008 75.3046C76.5202 73.6356 78.5641 72.2294 80.7731 71.1266C84.9664 68.9865 89.1392 67.8293 93.1635 66.6364C97.1878 65.4434 101.135 64.3836 104.94 62.9654C108.682 61.6134 112.26 59.8426 115.604 57.6866C118.858 55.5783 121.733 52.937 124.109 49.8735C126.438 46.8015 128.276 43.4326 129.101 40.0073C129.513 38.377 129.686 36.6953 129.613 35.0153C129.529 33.509 129.155 32.0332 128.512 30.6684C127.929 29.4617 127.102 28.3886 126.085 27.5163C125.067 26.6441 123.88 25.9915 122.598 25.5996C121.296 25.18 119.937 24.9659 118.569 24.9647C117.108 24.9594 115.652 25.1314 114.232 25.4767C113.864 25.5638 113.495 25.6713 113.126 25.7788L111.816 26.173C110.95 26.4495 110.085 26.7362 109.256 27.0537C107.556 27.6834 105.887 28.3849 104.228 29.1836C100.915 30.7708 97.6077 32.7676 93.9366 34.9078C90.0716 37.2153 86.0434 39.2379 81.8841 40.9596C77.567 42.6648 73.0953 43.949 68.5312 44.7945C67.968 44.9122 67.4048 44.989 66.8416 45.0863L65.3056 45.3321C64.471 45.4703 63.6211 45.6342 62.7763 45.8441C61.0798 46.2178 59.4034 46.6775 57.7536 47.2214C51.1488 49.3922 45.2045 52.8534 40.6784 57.6918C38.3473 60.1627 36.3333 62.9146 34.6829 65.8838C33.8075 67.4383 33.0295 69.0456 32.3533 70.6966C31.6376 72.4068 31.0121 74.1534 30.4793 75.9292C29.9674 77.7366 29.4553 79.5951 29.0918 81.5049C28.9024 82.3958 28.7078 83.5529 28.5082 84.6281C28.3085 85.7033 28.0627 86.7785 27.8067 87.8383C26.7958 92.0424 25.4921 96.1706 23.9053 100.193C22.3693 104.171 20.5773 107.991 18.7853 111.738C17.8842 113.612 16.9882 115.476 16.1587 117.37C15.3046 119.145 14.6916 121.025 14.336 122.962ZM12.7488 122.793C12.8827 121.711 13.1193 120.645 13.4554 119.608C13.7626 118.584 14.1261 117.606 14.4794 116.628C15.1962 114.672 15.9437 112.747 16.6042 110.802C17.2646 108.856 17.8739 106.905 18.3859 104.934C18.8979 102.963 19.2922 100.971 19.6198 98.9846C20.2301 95.0341 20.4479 91.033 20.2701 87.0396C20.2342 86.0514 20.1574 85.0633 20.0858 84.0802C20.0141 83.0972 19.8861 82.191 19.7939 81.0082C19.6037 78.7676 19.5371 76.5182 19.5942 74.2703C19.6924 69.5904 20.4614 64.9488 21.8778 60.4873C23.3705 55.8276 25.6512 51.4583 28.6208 47.5695C31.6458 43.6659 35.2593 40.2562 39.3318 37.4626C43.3286 34.7246 47.6751 32.5359 52.2547 30.9551C54.511 30.1654 56.8143 29.5173 59.1513 29.0146C60.3187 28.7586 61.5014 28.5487 62.7046 28.3695L65.6128 27.9446C69.1917 27.4067 72.7184 26.5657 76.1549 25.4306C79.7223 24.2155 83.2019 22.7562 86.5689 21.0633C90.1529 19.3225 94.1005 17.3154 98.3757 15.6463C100.531 14.802 102.729 14.0689 104.96 13.4498C106.076 13.1426 107.203 12.8713 108.329 12.6204L110.024 12.2774C110.664 12.1596 111.304 12.0572 111.954 11.9753C114.609 11.6232 117.3 11.6525 119.946 12.0623C122.696 12.4754 125.352 13.366 127.795 14.694C130.291 16.0563 132.485 17.9094 134.246 20.1417C135.981 22.3441 137.227 24.8906 137.902 27.6118C138.533 30.1856 138.675 32.8549 138.322 35.4812C138.002 37.9288 137.329 40.3173 136.325 42.5724C134.39 46.7267 131.746 50.5123 128.512 53.7596C126.977 55.348 125.334 56.8294 123.597 58.1935C121.871 59.5321 120.069 60.7698 118.2 61.9004C110.761 66.3958 102.61 68.966 95.1603 72.2223C91.4329 73.8249 87.8438 75.6425 85.0227 77.8902C83.7003 78.9375 82.5363 80.1705 81.5667 81.551C81.3465 81.8786 81.1417 82.2063 80.9523 82.5391C80.7629 82.8719 80.5939 83.1996 80.4147 83.5631C80.0665 84.2902 79.7286 85.0991 79.3907 85.9388C78.7558 87.6233 78.1977 89.4613 77.6806 91.3404C77.1635 93.2194 76.6566 95.1446 76.1446 97.0902L74.6547 102.994C74.1427 104.975 73.6307 106.972 73.088 108.974C70.8761 116.966 68.3059 125.076 64.384 132.997C62.3715 137.112 59.8795 140.976 56.96 144.506C56.1766 145.408 55.3625 146.298 54.4665 147.159C53.5756 148.041 52.6244 148.861 51.6198 149.611C50.581 150.402 49.482 151.111 48.3328 151.731C47.7451 152.043 47.1419 152.325 46.5254 152.576L45.5834 152.944C45.2813 153.057 45.015 153.134 44.7283 153.231C42.4584 153.97 40.1151 154.461 37.7395 154.695C35.3285 154.939 32.8949 154.83 30.5152 154.373C28.1474 153.917 25.8776 153.05 23.808 151.813C22.795 151.221 21.8401 150.536 20.9562 149.765C20.0813 149.016 19.2744 148.192 18.5446 147.302C15.8035 143.844 13.9649 139.758 13.1942 135.413C12.4237 131.251 12.2736 126.998 12.7488 122.793Z" fill="#EBEBEB"/>
<path d="M172.032 225.357C167.352 226.093 162.79 227.444 158.464 229.376C154.097 231.24 149.893 233.472 145.664 235.766C143.534 236.892 141.409 238.065 139.208 239.155C136.974 240.309 134.677 241.335 132.326 242.227C129.797 243.192 127.157 243.839 124.467 244.152C121.383 244.506 118.258 244.156 115.328 243.128C114.555 242.847 113.792 242.478 113.05 242.135C112.307 241.792 111.616 241.306 110.904 240.865C110.193 240.425 109.583 239.882 108.943 239.365C108.303 238.848 107.761 238.269 107.177 237.706C105.03 235.493 103.216 232.98 101.791 230.246C100.4 227.567 99.3441 224.726 98.647 221.788C97.9973 219.025 97.5777 216.213 97.3926 213.381C97.1116 208.194 97.2074 202.994 97.6793 197.821L98.2579 190.597C98.3551 189.419 98.4217 188.257 98.4985 187.1L98.6009 185.375L98.6675 183.675C98.7485 181.47 98.716 179.262 98.5702 177.06C98.4467 174.971 98.1435 172.896 97.6639 170.859C97.1194 168.728 96.386 166.65 95.4726 164.649C94.5459 162.539 93.4809 160.41 92.3289 158.28C90.0249 153.999 87.4137 149.734 84.8639 145.321L82.9747 141.983C82.3603 140.846 81.751 139.709 81.1724 138.537C79.9611 136.179 78.934 133.731 78.1004 131.215C77.2125 128.595 76.7476 125.851 76.7231 123.085C76.7379 120.265 77.3908 117.486 78.6329 114.954C79.2406 113.739 79.9642 112.585 80.7935 111.508L82.0582 109.972C82.4883 109.46 82.9388 109.046 83.3791 108.58C85.1851 106.766 87.1544 105.122 89.262 103.67C91.4037 102.237 93.679 101.014 96.0563 100.019C96.6553 99.7888 97.2441 99.5072 97.8585 99.3075L99.6966 98.6828C100.936 98.3296 102.185 97.9763 103.455 97.7203C108.551 96.6652 113.776 96.3736 118.958 96.855C121.549 97.066 124.125 97.4267 126.674 97.9353C129.234 98.4115 131.743 99.0771 134.236 99.8041C135.47 100.193 136.724 100.552 137.938 100.992L139.776 101.632L141.594 102.323C144.01 103.262 146.386 104.286 148.721 105.395C149.888 105.958 151.04 106.537 152.197 107.115C153.354 107.694 154.481 108.329 155.607 108.959C156.733 109.588 157.86 110.223 158.961 110.894C160.061 111.565 161.172 112.225 162.248 112.942L168.458 116.961C169.482 117.617 170.506 118.231 171.53 118.871L173.066 119.818L174.602 120.735C182.761 125.601 191.209 129.965 199.9 133.801C204.262 135.736 208.671 137.595 213.335 139.699C215.659 140.723 218.05 141.916 220.503 143.283C223.127 144.755 225.607 146.469 227.912 148.403C230.365 150.484 232.542 152.87 234.388 155.505C236.14 158.019 237.621 160.712 238.807 163.538C239.421 164.89 239.887 166.221 240.379 167.562C240.614 168.228 240.814 168.888 241.029 169.549C241.244 170.209 241.459 170.865 241.633 171.597L242.186 173.691L242.452 174.74L242.657 175.831C242.961 177.281 243.178 178.748 243.307 180.224C243.379 180.971 243.451 181.719 243.502 182.467V185.856C243.502 186.235 243.441 186.624 243.41 187.008L243.174 189.307C243.062 190.07 242.882 190.843 242.729 191.585L242.488 192.717C242.396 193.091 242.268 193.464 242.155 193.833C241.925 194.57 241.7 195.313 241.449 196.035C241.198 196.756 240.84 197.453 240.527 198.149C239.262 200.854 237.593 203.35 235.576 205.553L234.859 206.362C234.609 206.618 234.347 206.874 234.091 207.104C233.579 207.59 233.067 208.082 232.555 208.543C231.46 209.398 230.405 210.309 229.258 211.031C227.062 212.512 224.745 213.805 222.331 214.897C219.995 215.935 217.602 216.84 215.163 217.605C210.436 219.075 205.623 220.248 200.75 221.117C199.547 221.327 198.349 221.573 197.166 221.752C195.983 221.931 194.775 222.177 193.582 222.346C192.389 222.515 191.181 222.71 189.998 222.889L186.414 223.401L172.032 225.357ZM171.766 223.79C176.512 223.104 181.222 222.254 185.866 221.128L187.607 220.713L189.338 220.252C190.49 219.96 191.631 219.607 192.768 219.264C195.051 218.598 197.294 217.82 199.506 216.991C203.89 215.37 208.12 213.356 212.142 210.975C214.091 209.818 215.972 208.55 217.774 207.176C219.484 205.846 221.083 204.38 222.556 202.793C223.309 202.051 223.898 201.206 224.553 200.427L225.408 199.194C225.546 198.989 225.695 198.789 225.828 198.579L226.181 197.944C227.141 196.333 227.872 194.596 228.352 192.783C228.454 192.338 228.557 191.903 228.68 191.473L228.879 190.131C228.91 189.906 228.956 189.691 228.977 189.466L229.002 188.779C229.002 188.319 229.064 187.873 229.069 187.418L229.018 186.025C229.018 185.795 229.018 185.569 228.992 185.334L228.905 184.622L228.751 183.209L228.47 181.765C228.064 179.771 227.512 177.81 226.816 175.898C226.673 175.411 226.463 174.874 226.263 174.362C226.063 173.85 225.874 173.338 225.664 172.826C225.229 171.858 224.824 170.854 224.358 169.958C223.53 168.224 222.532 166.575 221.378 165.038C220.311 163.642 219.081 162.378 217.713 161.275C214.953 159.032 211.159 157.071 206.884 155.054C204.759 154.03 202.547 153.037 200.299 151.982C198.052 150.927 195.784 149.837 193.521 148.731C184.374 144.2 175.559 139.028 167.142 133.253L165.56 132.183L164.024 131.082C163 130.345 161.94 129.623 160.916 128.87L154.936 124.457C153.032 123.059 151.096 121.707 149.156 120.361L146.217 118.41C145.229 117.786 144.241 117.151 143.242 116.531C141.24 115.333 139.238 114.115 137.185 113.029L135.649 112.195L134.113 111.401C133.089 110.858 132.035 110.377 130.985 109.891C126.829 107.962 122.496 106.439 118.047 105.344C115.856 104.831 113.632 104.47 111.391 104.264C109.177 104.052 106.948 104.052 104.735 104.264C100.304 104.631 96.0091 105.975 92.1599 108.201C90.2426 109.337 88.4553 110.68 86.83 112.205C86.4358 112.599 86.0108 112.978 85.6319 113.377L84.567 114.586C83.9168 115.412 83.3459 116.299 82.862 117.233C81.9053 119.086 81.4249 121.148 81.4643 123.233C81.5364 125.434 81.9975 127.604 82.8262 129.643C83.701 131.809 84.7632 133.894 86.0006 135.875C87.2601 137.892 88.6425 139.878 90.1222 141.824C93.0559 145.731 96.2662 149.545 99.4201 153.6C100.992 155.648 102.533 157.757 103.997 160.02C105.54 162.357 106.88 164.822 108.001 167.388C110.326 172.892 111.222 178.463 111.585 183.818C112.287 194.509 110.92 204.344 111.119 213.161C111.211 217.559 111.693 221.619 112.973 225.213C113.616 227.022 114.484 228.742 115.558 230.333C116.464 231.759 117.657 232.979 119.06 233.917C120.595 234.867 122.324 235.458 124.119 235.648C126.238 235.872 128.377 235.823 130.483 235.505C132.762 235.179 135.02 234.723 137.247 234.138C139.51 233.518 141.793 232.837 144.056 232.09C148.603 230.605 153.119 228.91 157.706 227.405C162.288 225.802 166.999 224.593 171.786 223.79H171.766Z" fill="#EBEBEB"/>
<path d="M150.093 45.5674C151.625 45.1833 153.182 44.9027 154.752 44.7277C155.499 44.6305 156.227 44.5741 156.959 44.5076C157.691 44.441 158.408 44.4257 159.119 44.4103C160.543 44.3591 161.93 44.4103 163.318 44.441C168.817 44.6612 174.07 45.5009 179.261 46.3047L181.099 46.5812L181.914 46.6989L182.748 46.7655C183.306 46.8167 183.885 46.8013 184.458 46.8167C185.032 46.8321 185.626 46.7655 186.225 46.7194C186.824 46.6733 187.412 46.6119 188.022 46.5146C188.631 46.4173 189.225 46.3354 189.839 46.2125C191.048 45.9668 192.287 45.7005 193.505 45.3626C198.441 44.0621 203.32 42.1268 208.768 40.8826C211.645 40.1968 214.612 39.9722 217.559 40.217C219.956 40.4528 222.292 41.1151 224.456 42.1729C224.819 42.3521 225.193 42.521 225.546 42.6849L226.57 43.2941C227.925 44.1362 229.207 45.092 230.4 46.1511C231.004 46.6631 231.578 47.3082 232.161 47.9073C232.745 48.5063 233.211 49.1821 233.733 49.8324C234.255 50.4826 234.644 51.1789 235.095 51.8804C235.325 52.2285 235.505 52.5818 235.689 52.9044L236.252 53.9693L236.529 54.5121L236.759 55.0548L237.21 56.1504C237.52 56.8712 237.786 57.6098 238.008 58.3623C238.919 61.2694 239.459 64.2799 239.616 67.3223C239.755 70.2597 239.593 73.2035 239.135 76.1082C238.666 78.9681 237.908 81.7729 236.872 84.4794C236.611 85.1501 236.334 85.8157 236.052 86.4711C235.771 87.1264 235.438 87.7767 235.126 88.4167C234.813 89.0567 234.475 89.6967 234.102 90.3213C233.728 90.946 233.405 91.5655 233.011 92.1748C231.501 94.5907 229.797 96.88 227.917 99.0202C226.082 101.136 224.079 103.1 221.926 104.893C219.843 106.656 217.599 108.221 215.224 109.567C212.869 110.892 210.334 111.867 207.698 112.46C204.989 113.027 202.185 112.96 199.506 112.266C196.809 111.539 194.225 110.445 191.826 109.014C187.059 106.155 182.599 102.815 178.514 99.0458C176.466 97.2026 174.546 95.2826 172.723 93.3114C172.549 93.1241 172.359 92.9527 172.155 92.7994L171.679 92.3847C171.31 92.1338 171.028 91.8727 170.655 91.6167L170.143 91.248C169.953 91.1303 169.759 91.0228 169.579 90.8999C169.226 90.6541 168.786 90.4493 168.417 90.2087C166.596 89.2159 164.715 88.337 162.785 87.577L159.416 86.2509L157.614 85.5495L155.735 84.7713C154.46 84.2593 153.119 83.609 151.757 82.9332C150.298 82.1861 148.889 81.3464 147.538 80.4193C146.012 79.3731 144.598 78.1721 143.319 76.8353C141.93 75.3706 140.747 73.7239 139.802 71.9405L139.433 71.2647L139.121 70.5735C138.921 70.1076 138.711 69.6417 138.527 69.1706C138.192 68.2433 137.914 67.2959 137.697 66.3341L137.405 64.921L137.226 63.5489C137.116 62.6553 137.058 61.756 137.052 60.8557C137.052 60.6202 137.052 60.441 137.052 60.1696C137.052 59.8061 137.052 59.4529 137.098 59.0996C137.139 58.354 137.247 57.6137 137.421 56.8877C137.457 56.7085 137.503 56.5191 137.549 56.3348L137.728 55.7716C137.851 55.4029 137.989 55.0343 138.127 54.6708C138.436 53.9605 138.801 53.2757 139.218 52.6228C139.428 52.3105 139.643 52.0084 139.868 51.7114C139.981 51.5629 140.093 51.4093 140.206 51.2762L140.559 50.882C140.79 50.6311 141.03 50.37 141.281 50.1345C141.532 49.8989 141.757 49.7044 142.008 49.4893C142.259 49.2743 142.52 49.0849 142.751 48.9005L143.473 48.3885C143.713 48.2349 143.985 48.0609 144.2 47.9277L144.901 47.5386C146.551 46.6857 148.293 46.0244 150.093 45.5674Z" fill="#EBEBEB"/>
<path d="M75.1155 181.247C75.4096 182.953 75.5314 184.683 75.479 186.413C75.4329 189.721 74.6854 192.747 73.8713 195.701C73.0601 198.643 72.0245 201.519 70.7737 204.303C69.5002 207.098 67.8928 209.728 65.9865 212.136C64.0055 214.652 61.6963 216.89 59.1206 218.792C56.2354 220.813 52.9185 222.133 49.4336 222.648C47.586 222.926 45.7101 222.964 43.8528 222.76C42.0598 222.56 40.3076 222.089 38.656 221.362C37.1848 220.704 35.8074 219.854 34.56 218.833C33.4499 217.911 32.3967 216.923 31.4061 215.874C30.8945 215.313 30.4336 214.708 30.0288 214.066C29.6555 213.393 29.337 212.691 29.0765 211.967C28.58 210.47 28.2369 208.926 28.0525 207.359C27.6094 204.117 27.5733 200.832 27.9449 197.58C28.2986 194.46 29.3126 191.451 30.9197 188.753C32.4847 186.211 34.5423 184.007 36.9715 182.271C39.3933 180.51 42.24 179.245 45.0201 178.093C47.8003 176.941 50.5856 175.917 53.1814 174.689C55.7773 173.46 58.3014 172.098 61.4656 171.105C62.3103 170.84 63.1775 170.653 64.0563 170.546C65.077 170.411 66.1121 170.426 67.1283 170.593C68.5005 170.866 69.7791 171.488 70.8403 172.4C71.1019 172.631 71.3514 172.875 71.5878 173.132C71.808 173.383 72.0281 173.644 72.2381 173.91C72.6016 174.403 72.9285 174.921 73.216 175.462C73.4833 175.96 73.7226 176.473 73.9328 176.998C74.112 177.474 74.3117 178.022 74.4448 178.457L74.6547 179.179L74.8237 179.88C74.9568 180.351 75.0336 180.792 75.1155 181.247Z" fill="#EBEBEB"/>
</g>
<path d="M133.77 213.806L135.941 214.211L136.427 216.499L136.909 214.211L139.085 213.806L136.919 213.279L136.427 211.118L135.931 213.279L133.77 213.806Z" fill="#455A64"/>
<path d="M85.1711 133.382L87.342 133.786L87.8284 136.075L88.3148 133.786L90.4857 133.382L88.3251 132.854L87.8284 130.688L87.3369 132.854L85.1711 133.382Z" fill="#455A64"/>
<path d="M219.018 132.439L221.189 132.839L221.675 135.127L222.162 132.839L224.333 132.434L222.172 131.907L221.675 129.746L221.179 131.907L219.018 132.439Z" fill="#455A64"/>
<path d="M229.33 193.736L230.543 193.961L230.815 195.241L231.086 193.961L232.299 193.736L231.091 193.444L230.815 192.235L230.538 193.444L229.33 193.736Z" fill="#455A64"/>
<path d="M212.705 45.1479L213.919 45.3731L214.19 46.6531L214.461 45.3731L215.68 45.1479L214.466 44.8509L214.19 43.6426L213.914 44.8509L212.705 45.1479Z" fill="#455A64"/>
<path d="M236.626 83.2055L237.839 83.4308L238.111 84.7108L238.382 83.4308L239.595 83.2055L238.387 82.9136L238.111 81.7002L237.834 82.9136L236.626 83.2055Z" fill="#455A64"/>
<path d="M51.2511 100.368L52.4645 100.593L52.7359 101.873L53.0073 100.593L54.2258 100.368L53.0175 100.071L52.7359 98.8623L52.4645 100.071L51.2511 100.368Z" fill="#455A64"/>
<path d="M32.2611 205.148L33.4745 205.373L33.7459 206.653L34.0173 205.373L35.2307 205.148L34.0224 204.851L33.7459 203.643L33.4694 204.851L32.2611 205.148Z" fill="#455A64"/>
<path d="M56.1254 207.457L57.3388 207.683L57.6102 208.963L57.8815 207.683L59.095 207.457L57.8866 207.16L57.6102 205.952L57.3337 207.16L56.1254 207.457Z" fill="#455A64"/>
<path d="M98.8876 50.3351L100.101 50.5604L100.372 51.8404L100.644 50.5604L101.857 50.3351L100.649 50.0433L100.372 48.835L100.096 50.0433L98.8876 50.3351Z" fill="#455A64"/>
<path d="M170.762 86.2162L171.976 86.4415L172.247 87.7215L172.518 86.4415L173.732 86.2162L172.523 85.9193L172.247 84.7109L171.971 85.9193L170.762 86.2162Z" fill="#455A64"/>
<path d="M74.2963 182.456L75.5097 182.682L75.7811 183.962L76.0524 182.682L77.2659 182.456L76.0575 182.165L75.7811 180.951L75.5046 182.165L74.2963 182.456Z" fill="#455A64"/>
<path d="M38.6304 221.696C38.7161 221.707 38.7951 221.748 38.8523 221.813C38.9096 221.877 38.9412 221.961 38.9412 222.047C38.9412 222.133 38.9096 222.217 38.8523 222.281C38.7951 222.346 38.7161 222.387 38.6304 222.398C38.5447 222.387 38.4657 222.346 38.4085 222.281C38.3512 222.217 38.3196 222.133 38.3196 222.047C38.3196 221.961 38.3512 221.877 38.4085 221.813C38.4657 221.748 38.5447 221.707 38.6304 221.696Z" fill="#455A64"/>
<path d="M197.12 179.2C197.214 179.2 197.303 179.237 197.37 179.304C197.436 179.37 197.473 179.46 197.473 179.553C197.473 179.647 197.436 179.737 197.37 179.803C197.303 179.87 197.214 179.907 197.12 179.907C197.026 179.907 196.936 179.87 196.87 179.803C196.804 179.737 196.767 179.647 196.767 179.553C196.767 179.46 196.804 179.37 196.87 179.304C196.936 179.237 197.026 179.2 197.12 179.2Z" fill="#455A64"/>
<path d="M200.433 128.881C200.526 128.881 200.616 128.918 200.682 128.984C200.749 129.051 200.786 129.14 200.786 129.234C200.786 129.328 200.749 129.418 200.682 129.484C200.616 129.55 200.526 129.587 200.433 129.587C200.339 129.587 200.249 129.55 200.183 129.484C200.117 129.418 200.079 129.328 200.079 129.234C200.079 129.14 200.117 129.051 200.183 128.984C200.249 128.918 200.339 128.881 200.433 128.881Z" fill="#455A64"/>
<path d="M175.821 102.938C175.906 102.948 175.985 102.989 176.043 103.054C176.1 103.119 176.132 103.202 176.132 103.288C176.132 103.375 176.1 103.458 176.043 103.523C175.985 103.587 175.906 103.629 175.821 103.639C175.735 103.629 175.656 103.587 175.599 103.523C175.542 103.458 175.51 103.375 175.51 103.288C175.51 103.202 175.542 103.119 175.599 103.054C175.656 102.989 175.735 102.948 175.821 102.938Z" fill="#455A64"/>
<path d="M67.1744 226.816C67.2601 226.827 67.339 226.868 67.3963 226.933C67.4536 226.997 67.4852 227.081 67.4852 227.167C67.4852 227.253 67.4536 227.337 67.3963 227.401C67.339 227.466 67.2601 227.507 67.1744 227.518C67.0886 227.507 67.0097 227.466 66.9524 227.401C66.8951 227.337 66.8635 227.253 66.8635 227.167C66.8635 227.081 66.8951 226.997 66.9524 226.933C67.0097 226.868 67.0886 226.827 67.1744 226.816Z" fill="#455A64"/>
<path d="M52.736 206.402C52.8297 206.402 52.9195 206.44 52.9858 206.506C53.052 206.572 53.0893 206.662 53.0893 206.756C53.0893 206.849 53.052 206.939 52.9858 207.005C52.9195 207.072 52.8297 207.109 52.736 207.109C52.6423 207.109 52.5524 207.072 52.4862 207.005C52.4199 206.939 52.3827 206.849 52.3827 206.756C52.3827 206.662 52.4199 206.572 52.4862 206.506C52.5524 206.44 52.6423 206.402 52.736 206.402Z" fill="#455A64"/>
<path d="M89.0111 197.063C89.0969 197.074 89.1758 197.115 89.2331 197.18C89.2904 197.244 89.322 197.328 89.322 197.414C89.322 197.501 89.2904 197.584 89.2331 197.649C89.1758 197.713 89.0969 197.755 89.0111 197.765C88.9254 197.755 88.8465 197.713 88.7892 197.649C88.7319 197.584 88.7003 197.501 88.7003 197.414C88.7003 197.328 88.7319 197.244 88.7892 197.18C88.8465 197.115 88.9254 197.074 89.0111 197.063Z" fill="#455A64"/>
<path d="M155.648 206.402C155.742 206.402 155.832 206.44 155.898 206.506C155.964 206.572 156.001 206.662 156.001 206.756C156.001 206.849 155.964 206.939 155.898 207.005C155.832 207.072 155.742 207.109 155.648 207.109C155.554 207.109 155.464 207.072 155.398 207.005C155.332 206.939 155.295 206.849 155.295 206.756C155.295 206.662 155.332 206.572 155.398 206.506C155.464 206.44 155.554 206.402 155.648 206.402Z" fill="#455A64"/>
<path d="M221.338 186.772C221.423 186.783 221.502 186.824 221.559 186.889C221.617 186.953 221.648 187.037 221.648 187.123C221.648 187.21 221.617 187.293 221.559 187.357C221.502 187.422 221.423 187.464 221.338 187.474C221.252 187.464 221.173 187.422 221.116 187.357C221.058 187.293 221.027 187.21 221.027 187.123C221.027 187.037 221.058 186.953 221.116 186.889C221.173 186.824 221.252 186.783 221.338 186.772Z" fill="#455A64"/>
<path d="M199.127 144.896C199.213 144.907 199.292 144.948 199.349 145.013C199.406 145.078 199.438 145.161 199.438 145.247C199.438 145.334 199.406 145.417 199.349 145.482C199.292 145.546 199.213 145.588 199.127 145.598C199.041 145.588 198.962 145.546 198.905 145.482C198.848 145.417 198.816 145.334 198.816 145.247C198.816 145.161 198.848 145.078 198.905 145.013C198.962 144.948 199.041 144.907 199.127 144.896Z" fill="#455A64"/>
<path d="M139.361 205.706C139.429 205.706 139.494 205.733 139.542 205.781C139.59 205.829 139.617 205.894 139.617 205.962C139.617 206.03 139.59 206.095 139.542 206.143C139.494 206.191 139.429 206.218 139.361 206.218C139.293 206.218 139.228 206.191 139.18 206.143C139.132 206.095 139.105 206.03 139.105 205.962C139.105 205.894 139.132 205.829 139.18 205.781C139.228 205.733 139.293 205.706 139.361 205.706Z" fill="#455A64"/>
<path d="M62.464 51.2979C62.5319 51.2979 62.597 51.3248 62.645 51.3728C62.693 51.4208 62.72 51.486 62.72 51.5539C62.72 51.6217 62.693 51.6869 62.645 51.7349C62.597 51.7829 62.5319 51.8099 62.464 51.8099C62.3961 51.8099 62.331 51.7829 62.283 51.7349C62.235 51.6869 62.208 51.6217 62.208 51.5539C62.208 51.486 62.235 51.4208 62.283 51.3728C62.331 51.3248 62.3961 51.2979 62.464 51.2979Z" fill="#455A64"/>
<path d="M159.053 176.64C159.121 176.64 159.186 176.667 159.234 176.715C159.282 176.763 159.309 176.828 159.309 176.896C159.309 176.964 159.282 177.029 159.234 177.077C159.186 177.125 159.121 177.152 159.053 177.152C158.985 177.152 158.92 177.125 158.872 177.077C158.824 177.029 158.797 176.964 158.797 176.896C158.797 176.828 158.824 176.763 158.872 176.715C158.92 176.667 158.985 176.64 159.053 176.64Z" fill="#455A64"/>
<path d="M63.0733 208.712C63.1412 208.712 63.2063 208.739 63.2543 208.787C63.3023 208.835 63.3293 208.9 63.3293 208.968C63.3293 209.036 63.3023 209.101 63.2543 209.149C63.2063 209.197 63.1412 209.224 63.0733 209.224C63.0054 209.224 62.9403 209.197 62.8922 209.149C62.8442 209.101 62.8173 209.036 62.8173 208.968C62.8173 208.9 62.8442 208.835 62.8922 208.787C62.9403 208.739 63.0054 208.712 63.0733 208.712Z" fill="#455A64"/>
<path d="M126.735 148.654C126.803 148.654 126.868 148.681 126.916 148.729C126.964 148.777 126.991 148.842 126.991 148.91C126.991 148.978 126.964 149.043 126.916 149.091C126.868 149.139 126.803 149.166 126.735 149.166C126.667 149.166 126.602 149.139 126.554 149.091C126.506 149.043 126.479 148.978 126.479 148.91C126.479 148.842 126.506 148.777 126.554 148.729C126.602 148.681 126.667 148.654 126.735 148.654Z" fill="#455A64"/>
<path d="M180.577 151.511C180.746 151.525 180.903 151.603 181.017 151.727C181.131 151.852 181.194 152.015 181.194 152.184C181.194 152.353 181.131 152.516 181.017 152.641C180.903 152.765 180.746 152.843 180.577 152.857C180.409 152.843 180.252 152.765 180.138 152.641C180.024 152.516 179.96 152.353 179.96 152.184C179.96 152.015 180.024 151.852 180.138 151.727C180.252 151.603 180.409 151.525 180.577 151.511Z" fill="#455A64"/>
<path d="M86.0109 58.5212L88.1869 58.9206L88.6681 61.2144L89.1545 58.9206L91.3254 58.5212L89.1648 57.9939L88.6681 55.8281L88.1766 57.9939L86.0109 58.5212Z" fill="#455A64"/>
<path d="M107.776 32.5789L109.947 32.9782L110.433 35.272L110.92 32.9782L113.091 32.5789L110.925 32.0464L110.433 29.8857L109.937 32.0464L107.776 32.5789Z" fill="#455A64"/>
<path d="M19.1129 131.804L21.2838 132.209L21.7702 134.497L22.2566 132.209L24.4275 131.804L22.2617 131.277L21.7702 129.116L21.2736 131.277L19.1129 131.804Z" fill="#455A64"/>
<path d="M221.988 27.2332L224.159 27.6325L224.645 29.9212L225.131 27.6325L227.302 27.2332L225.142 26.7007L224.645 24.54L224.154 26.7007L221.988 27.2332Z" fill="#455A64"/>
<path d="M133.453 23.3422L134.671 23.5675L134.943 24.8475L135.214 23.5675L136.427 23.3422L135.219 23.0452L134.943 21.8369L134.666 23.0452L133.453 23.3422Z" fill="#455A64"/>
<path d="M29.2915 80.7992L30.5049 81.0245L30.7763 82.3045L31.0477 81.0245L32.2611 80.7992L31.0528 80.5023L30.7763 79.2939L30.4998 80.5023L29.2915 80.7992Z" fill="#455A64"/>
<path d="M44.0678 68.5361C44.1535 68.5465 44.2325 68.5879 44.2897 68.6525C44.347 68.7172 44.3786 68.8005 44.3786 68.8869C44.3786 68.9732 44.347 69.0566 44.2897 69.1212C44.2325 69.1858 44.1535 69.2272 44.0678 69.2376C43.9821 69.2272 43.9031 69.1858 43.8458 69.1212C43.7886 69.0566 43.757 68.9732 43.757 68.8869C43.757 68.8005 43.7886 68.7172 43.8458 68.6525C43.9031 68.5879 43.9821 68.5465 44.0678 68.5361Z" fill="#455A64"/>
<path d="M27.0079 194.242C27.1016 194.242 27.1915 194.279 27.2577 194.346C27.324 194.412 27.3612 194.502 27.3612 194.595C27.3612 194.689 27.324 194.779 27.2577 194.845C27.1915 194.912 27.1016 194.949 27.0079 194.949C26.9142 194.949 26.8244 194.912 26.7581 194.845C26.6919 194.779 26.6547 194.689 26.6547 194.595C26.6547 194.502 26.6919 194.412 26.7581 194.346C26.8244 194.279 26.9142 194.242 27.0079 194.242Z" fill="#455A64"/>
<path d="M46.1773 182.456C46.271 182.456 46.3608 182.493 46.4271 182.56C46.4933 182.626 46.5305 182.716 46.5305 182.809C46.5305 182.903 46.4933 182.993 46.4271 183.059C46.3608 183.125 46.271 183.163 46.1773 183.163C46.0836 183.163 45.9937 183.125 45.9274 183.059C45.8612 182.993 45.824 182.903 45.824 182.809C45.824 182.716 45.8612 182.626 45.9274 182.56C45.9937 182.493 46.0836 182.456 46.1773 182.456Z" fill="#455A64"/>
<path d="M17.6486 93.3477C17.7423 93.3477 17.8321 93.3849 17.8984 93.4511C17.9646 93.5174 18.0018 93.6072 18.0018 93.7009C18.0018 93.7946 17.9646 93.8845 17.8984 93.9507C17.8321 94.017 17.7423 94.0542 17.6486 94.0542C17.5549 94.0542 17.465 94.017 17.3988 93.9507C17.3325 93.8845 17.2953 93.7946 17.2953 93.7009C17.2953 93.6072 17.3325 93.5174 17.3988 93.4511C17.465 93.3849 17.5549 93.3477 17.6486 93.3477Z" fill="#455A64"/>
<path d="M46.1773 40.4482C46.271 40.4482 46.3608 40.4855 46.4271 40.5517C46.4933 40.618 46.5305 40.7078 46.5305 40.8015C46.5305 40.8952 46.4933 40.9851 46.4271 41.0513C46.3608 41.1176 46.271 41.1548 46.1773 41.1548C46.0836 41.1548 45.9937 41.1176 45.9274 41.0513C45.8612 40.9851 45.824 40.8952 45.824 40.8015C45.824 40.7078 45.8612 40.618 45.9274 40.5517C45.9937 40.4855 46.0836 40.4482 46.1773 40.4482Z" fill="#455A64"/>
<path d="M216.847 93.6963C216.941 93.6963 217.031 93.7335 217.097 93.7998C217.163 93.866 217.201 93.9559 217.201 94.0496C217.201 94.1433 217.163 94.2331 217.097 94.2994C217.031 94.3656 216.941 94.4029 216.847 94.4029C216.754 94.4029 216.664 94.3656 216.597 94.2994C216.531 94.2331 216.494 94.1433 216.494 94.0496C216.494 93.9559 216.531 93.866 216.597 93.7998C216.664 93.7335 216.754 93.6963 216.847 93.6963Z" fill="#455A64"/>
<path d="M78.1209 148.224C78.1888 148.224 78.2539 148.251 78.3019 148.299C78.3499 148.347 78.3769 148.412 78.3769 148.48C78.3769 148.548 78.3499 148.613 78.3019 148.661C78.2539 148.709 78.1888 148.736 78.1209 148.736C78.053 148.736 77.9879 148.709 77.9398 148.661C77.8918 148.613 77.8649 148.548 77.8649 148.48C77.8649 148.412 77.8918 148.347 77.9398 148.299C77.9879 148.251 78.053 148.224 78.1209 148.224Z" fill="#455A64"/>
<path d="M77.8803 212.353C77.9482 212.353 78.0133 212.38 78.0613 212.428C78.1093 212.476 78.1363 212.541 78.1363 212.609C78.1363 212.676 78.1093 212.742 78.0613 212.79C78.0133 212.838 77.9482 212.865 77.8803 212.865C77.8124 212.865 77.7473 212.838 77.6992 212.79C77.6512 212.742 77.6243 212.676 77.6243 212.609C77.6243 212.541 77.6512 212.476 77.6992 212.428C77.7473 212.38 77.8124 212.353 77.8803 212.353Z" fill="#455A64"/>
<path d="M205.056 66.0483L206.269 66.2735L206.541 67.5535L206.812 66.2735L208.026 66.0483L206.817 65.7513L206.541 64.543L206.264 65.7513L205.056 66.0483Z" fill="#455A64"/>
<path d="M201.672 67.2568C201.765 67.2568 201.855 67.2941 201.921 67.3603C201.988 67.4266 202.025 67.5164 202.025 67.6101C202.025 67.7038 201.988 67.7937 201.921 67.8599C201.855 67.9262 201.765 67.9634 201.672 67.9634C201.578 67.9634 201.488 67.9262 201.422 67.8599C201.356 67.7937 201.318 67.7038 201.318 67.6101C201.318 67.5164 201.356 67.4266 201.422 67.3603C201.488 67.2941 201.578 67.2568 201.672 67.2568Z" fill="#455A64"/>
<path d="M165.724 32.0771C165.792 32.0771 165.857 32.1041 165.905 32.1521C165.953 32.2001 165.98 32.2653 165.98 32.3331C165.98 32.401 165.953 32.4662 165.905 32.5142C165.857 32.5622 165.792 32.5891 165.724 32.5891C165.656 32.5891 165.591 32.5622 165.543 32.5142C165.495 32.4662 165.468 32.401 165.468 32.3331C165.468 32.2653 165.495 32.2001 165.543 32.1521C165.591 32.1041 165.656 32.0771 165.724 32.0771Z" fill="#455A64"/>
<path d="M112.773 235.453C112.841 235.453 112.906 235.48 112.954 235.528C113.002 235.576 113.029 235.641 113.029 235.709C113.029 235.777 113.002 235.842 112.954 235.89C112.906 235.938 112.841 235.965 112.773 235.965C112.705 235.965 112.64 235.938 112.592 235.89C112.544 235.842 112.517 235.777 112.517 235.709C112.517 235.641 112.544 235.576 112.592 235.528C112.64 235.48 112.705 235.453 112.773 235.453Z" fill="#455A64"/>
<path d="M226.816 73.2158C226.884 73.2158 226.949 73.2428 226.997 73.2908C227.045 73.3388 227.072 73.4039 227.072 73.4718C227.072 73.5397 227.045 73.6048 226.997 73.6528C226.949 73.7008 226.884 73.7278 226.816 73.7278C226.748 73.7278 226.683 73.7008 226.635 73.6528C226.587 73.6048 226.56 73.5397 226.56 73.4718C226.56 73.4039 226.587 73.3388 226.635 73.2908C226.683 73.2428 226.748 73.2158 226.816 73.2158Z" fill="#455A64"/>
<path d="M176.727 60.9639C176.795 60.9639 176.86 60.9908 176.908 61.0388C176.956 61.0869 176.983 61.152 176.983 61.2199C176.983 61.2878 176.956 61.3529 176.908 61.4009C176.86 61.4489 176.795 61.4759 176.727 61.4759C176.659 61.4759 176.594 61.4489 176.546 61.4009C176.498 61.3529 176.471 61.2878 176.471 61.2199C176.471 61.152 176.498 61.0869 176.546 61.0388C176.594 60.9908 176.659 60.9639 176.727 60.9639Z" fill="#455A64"/>
<path d="M177.449 22.8457C177.517 22.8457 177.582 22.8727 177.63 22.9207C177.678 22.9687 177.705 23.0338 177.705 23.1017C177.705 23.1696 177.678 23.2347 177.63 23.2827C177.582 23.3307 177.517 23.3577 177.449 23.3577C177.381 23.3577 177.316 23.3307 177.268 23.2827C177.22 23.2347 177.193 23.1696 177.193 23.1017C177.193 23.0338 177.22 22.9687 177.268 22.9207C177.316 22.8727 177.381 22.8457 177.449 22.8457Z" fill="#455A64"/>
<path d="M107.704 139.382C107.873 139.397 108.029 139.474 108.144 139.598C108.258 139.723 108.321 139.886 108.321 140.055C108.321 140.224 108.258 140.387 108.144 140.512C108.029 140.636 107.873 140.714 107.704 140.728C107.536 140.714 107.379 140.636 107.265 140.512C107.151 140.387 107.087 140.224 107.087 140.055C107.087 139.886 107.151 139.723 107.265 139.598C107.379 139.474 107.536 139.397 107.704 139.382Z" fill="#455A64"/>
<path d="M199.777 104.853C199.956 104.853 200.128 104.924 200.255 105.05C200.382 105.177 200.453 105.349 200.453 105.528C200.453 105.708 200.382 105.88 200.255 106.006C200.128 106.133 199.956 106.204 199.777 106.204C199.598 106.204 199.426 106.133 199.299 106.006C199.173 105.88 199.101 105.708 199.101 105.528C199.101 105.349 199.173 105.177 199.299 105.05C199.426 104.924 199.598 104.853 199.777 104.853Z" fill="#455A64"/>
<path d="M47.319 105.528C47.4983 105.528 47.6702 105.6 47.7969 105.726C47.9237 105.853 47.9949 106.025 47.9949 106.204C47.9949 106.383 47.9237 106.555 47.7969 106.682C47.6702 106.809 47.4983 106.88 47.319 106.88C47.1398 106.88 46.9679 106.809 46.8411 106.682C46.7144 106.555 46.6432 106.383 46.6432 106.204C46.6432 106.025 46.7144 105.853 46.8411 105.726C46.9679 105.6 47.1398 105.528 47.319 105.528Z" fill="#455A64"/>
<path d="M232.96 109.599C233.128 109.613 233.285 109.691 233.399 109.815C233.514 109.94 233.577 110.103 233.577 110.272C233.577 110.441 233.514 110.604 233.399 110.729C233.285 110.853 233.128 110.93 232.96 110.945C232.792 110.93 232.635 110.853 232.521 110.729C232.406 110.604 232.343 110.441 232.343 110.272C232.343 110.103 232.406 109.94 232.521 109.815C232.635 109.691 232.792 109.613 232.96 109.599Z" fill="#455A64"/>
<path d="M37.9186 171.356C38.0979 171.356 38.2698 171.428 38.3965 171.554C38.5233 171.681 38.5945 171.853 38.5945 172.032C38.5945 172.212 38.5233 172.383 38.3965 172.51C38.2698 172.637 38.0979 172.708 37.9186 172.708C37.7394 172.708 37.5675 172.637 37.4407 172.51C37.314 172.383 37.2428 172.212 37.2428 172.032C37.2428 171.853 37.314 171.681 37.4407 171.554C37.5675 171.428 37.7394 171.356 37.9186 171.356Z" fill="#455A64"/>
<path d="M71.9462 39.6342L73.1596 39.8595L73.431 41.1395L73.7023 39.8595L74.9158 39.6342L73.7074 39.3372L73.431 38.1289L73.1545 39.3372L71.9462 39.6342Z" fill="#455A64"/>
<path d="M138.138 166.866L139.351 167.086L139.622 168.366L139.894 167.086L141.107 166.861L139.899 166.569L139.622 165.36L139.346 166.569L138.138 166.866Z" fill="#455A64"/>
<path d="M177.331 225.356C177.425 225.356 177.515 225.394 177.581 225.46C177.647 225.526 177.684 225.616 177.684 225.71C177.684 225.803 177.647 225.893 177.581 225.96C177.515 226.026 177.425 226.063 177.331 226.063C177.237 226.063 177.148 226.026 177.081 225.96C177.015 225.893 176.978 225.803 176.978 225.71C176.978 225.616 177.015 225.526 177.081 225.46C177.148 225.394 177.237 225.356 177.331 225.356Z" fill="#455A64"/>
<path d="M154.004 222.039C154.098 222.039 154.188 222.076 154.254 222.143C154.32 222.209 154.358 222.299 154.358 222.392C154.358 222.486 154.32 222.576 154.254 222.642C154.188 222.708 154.098 222.746 154.004 222.746C153.911 222.746 153.821 222.708 153.755 222.642C153.688 222.576 153.651 222.486 153.651 222.392C153.651 222.299 153.688 222.209 153.755 222.143C153.821 222.076 153.911 222.039 154.004 222.039Z" fill="#455A64"/>
<path d="M161.51 128L162.724 128.226L162.995 129.506L163.267 128.226L164.48 128L163.272 127.703L162.995 126.495L162.719 127.703L161.51 128Z" fill="#455A64"/>
<path d="M203.121 200.955L204.334 201.18L204.605 202.455L204.877 201.18L206.09 200.955L204.882 200.658L204.605 199.449L204.329 200.658L203.121 200.955Z" fill="#455A64"/>
<path d="M205.978 231.623L207.191 231.849L207.462 233.129L207.734 231.849L208.947 231.623L207.739 231.326L207.462 230.118L207.186 231.326L205.978 231.623Z" fill="#455A64"/>
<path d="M166.636 60.5078C166.729 60.5078 166.819 60.545 166.885 60.6113C166.952 60.6775 166.989 60.7674 166.989 60.8611C166.989 60.9548 166.952 61.0446 166.885 61.1109C166.819 61.1772 166.729 61.2144 166.636 61.2144C166.542 61.2144 166.452 61.1772 166.386 61.1109C166.319 61.0446 166.282 60.9548 166.282 60.8611C166.282 60.7674 166.319 60.6775 166.386 60.6113C166.452 60.545 166.542 60.5078 166.636 60.5078Z" fill="#455A64"/>
<path d="M206.09 217.088C206.158 217.088 206.223 217.115 206.271 217.163C206.319 217.211 206.346 217.276 206.346 217.344C206.346 217.412 206.319 217.477 206.271 217.525C206.223 217.573 206.158 217.6 206.09 217.6C206.022 217.6 205.957 217.573 205.909 217.525C205.861 217.477 205.834 217.412 205.834 217.344C205.834 217.276 205.861 217.211 205.909 217.163C205.957 217.115 206.022 217.088 206.09 217.088Z" fill="#455A64"/>
<path d="M30.7762 139.382L31.9897 139.608L32.261 140.888L32.5324 139.608L33.7458 139.382L32.5375 139.085L32.261 137.877L31.9846 139.085L30.7762 139.382Z" fill="#455A64"/>
<path d="M16.7423 165.433C16.8281 165.443 16.907 165.484 16.9643 165.549C17.0216 165.614 17.0532 165.697 17.0532 165.783C17.0532 165.87 17.0216 165.953 16.9643 166.018C16.907 166.082 16.8281 166.124 16.7423 166.134C16.6566 166.124 16.5777 166.082 16.5204 166.018C16.4631 165.953 16.4315 165.87 16.4315 165.783C16.4315 165.697 16.4631 165.614 16.5204 165.549C16.5777 165.484 16.6566 165.443 16.7423 165.433Z" fill="#455A64"/>
<path d="M103.685 109.922C103.771 109.932 103.85 109.974 103.907 110.038C103.964 110.103 103.996 110.186 103.996 110.273C103.996 110.359 103.964 110.442 103.907 110.507C103.85 110.572 103.771 110.613 103.685 110.623C103.599 110.613 103.52 110.572 103.463 110.507C103.406 110.442 103.374 110.359 103.374 110.273C103.374 110.186 103.406 110.103 103.463 110.038C103.52 109.974 103.599 109.932 103.685 109.922Z" fill="#455A64"/>
<path d="M77.8803 70.9688C77.9482 70.9688 78.0133 70.9957 78.0613 71.0437C78.1093 71.0917 78.1363 71.1569 78.1363 71.2248C78.1363 71.2926 78.1093 71.3578 78.0613 71.4058C78.0133 71.4538 77.9482 71.4808 77.8803 71.4808C77.8124 71.4808 77.7473 71.4538 77.6992 71.4058C77.6512 71.3578 77.6243 71.2926 77.6243 71.2248C77.6243 71.1569 77.6512 71.0917 77.6992 71.0437C77.7473 70.9957 77.8124 70.9688 77.8803 70.9688Z" fill="#455A64"/>
<path d="M37.2684 27.2334C37.4369 27.2481 37.5937 27.3254 37.7079 27.45C37.8221 27.5747 37.8855 27.7376 37.8855 27.9067C37.8855 28.0758 37.8221 28.2387 37.7079 28.3633C37.5937 28.488 37.4369 28.5653 37.2684 28.58C37.1 28.5653 36.9432 28.488 36.829 28.3633C36.7147 28.2387 36.6514 28.0758 36.6514 27.9067C36.6514 27.7376 36.7147 27.5747 36.829 27.45C36.9432 27.3254 37.1 27.2481 37.2684 27.2334Z" fill="#455A64"/>
<path d="M197.207 42.2969C197.375 42.3116 197.532 42.3889 197.646 42.5135C197.761 42.6382 197.824 42.8011 197.824 42.9702C197.824 43.1392 197.761 43.3022 197.646 43.4268C197.532 43.5514 197.375 43.6287 197.207 43.6434C197.039 43.6287 196.882 43.5514 196.768 43.4268C196.653 43.3022 196.59 43.1392 196.59 42.9702C196.59 42.8011 196.653 42.6382 196.768 42.5135C196.882 42.3889 197.039 42.3116 197.207 42.2969Z" fill="#455A64"/>
<path d="M214.477 184.156V203.812C214.477 216.463 158.034 224.901 127.995 224.901C97.9558 224.901 41.5232 216.463 41.5232 203.812V184.156C41.5232 179.359 47.6109 167.485 127.995 167.485C208.379 167.485 214.477 179.359 214.477 184.156Z" fill="#FFC727"/>
<path opacity="0.2" d="M213.678 184.079C213.012 194.099 181.765 199.439 173.271 201.001C158.309 203.529 143.173 204.899 128 205.097C112.827 204.899 97.6914 203.53 82.7289 201.001C71.5776 198.953 60.2009 196.838 49.92 191.913C46.7865 190.234 42.6137 188.027 42.3219 184.074C42.8953 190.3 55.5981 193.761 60.7539 195.277C75.3254 199.224 90.3936 201.108 105.4 202.501C127.974 204.641 150.702 203.223 173.082 199.834C181.576 198.426 212.751 193.731 213.678 184.074V184.079Z" fill="black"/>
<path opacity="0.2" d="M198.656 204.8C198.656 206.802 197.284 208.42 195.584 208.42C193.884 208.42 192.512 206.802 192.512 204.8C192.512 202.798 193.889 201.175 195.584 201.175C197.279 201.175 198.656 202.752 198.656 204.8Z" fill="black"/>
<path d="M197.381 204.8C197.381 206.628 196.291 208.113 194.944 208.113C193.597 208.113 192.512 206.602 192.512 204.8C192.512 202.998 193.608 201.487 194.954 201.487C196.301 201.487 197.381 202.947 197.381 204.8Z" fill="#263238"/>
<path opacity="0.2" d="M67.7939 211.706C69.8157 211.706 71.4547 210.086 71.4547 208.087C71.4547 206.087 69.8157 204.467 67.7939 204.467C65.7721 204.467 64.1331 206.087 64.1331 208.087C64.1331 210.086 65.7721 211.706 67.7939 211.706Z" fill="black"/>
<path d="M68.5465 211.4C70.1498 211.4 71.4495 209.917 71.4495 208.087C71.4495 206.258 70.1498 204.774 68.5465 204.774C66.9432 204.774 65.6434 206.258 65.6434 208.087C65.6434 209.917 66.9432 211.4 68.5465 211.4Z" fill="#263238"/>
<path opacity="0.2" d="M209.239 201.149C209.239 203.151 207.867 204.774 206.167 204.774C204.467 204.774 203.095 203.151 203.095 201.149C203.095 199.147 204.472 197.529 206.167 197.529C207.862 197.529 209.239 199.168 209.239 201.149Z" fill="black"/>
<path d="M207.969 201.149C207.969 202.982 206.879 204.462 205.532 204.462C204.186 204.462 203.095 202.982 203.095 201.149C203.095 199.316 204.186 197.842 205.532 197.842C206.879 197.842 207.969 199.321 207.969 201.149Z" fill="#263238"/>
<path opacity="0.2" d="M60.6003 202.926V209.285C60.6003 209.285 47.8003 206.12 41.5232 200.97V194.181C45.2352 197.304 52.9152 201.415 60.6003 202.926Z" fill="black"/>
<path d="M60.6003 202.926V207.969C56.8217 207.073 47.0477 204.421 42.3219 200.013V194.821C46.2643 197.837 53.4323 201.513 60.6003 202.926Z" fill="#263238"/>
<path opacity="0.2" d="M66.5293 213.227C72.0333 213.908 74.24 209.495 72.192 204.8C72.9966 205.69 73.5296 206.791 73.728 207.974C73.8038 208.434 73.8262 208.902 73.7946 209.367C73.7235 210.184 73.4494 210.97 72.9973 211.655C72.5452 212.339 71.9294 212.9 71.2056 213.286C70.4819 213.672 69.6733 213.871 68.853 213.865C68.0328 213.86 67.227 213.649 66.5088 213.253L66.5293 213.227Z" fill="black"/>
<path d="M49.3977 177.541C47.8617 178.898 45.9673 180.505 45.8137 182.661C45.7216 187.653 57.6768 190.664 61.6857 191.877C70.1849 194.237 78.9504 195.845 87.5571 197.801C77.1584 196.946 54.2771 193.761 46.7865 186.665C43.1513 183.025 45.7984 179.707 49.4131 177.556L49.3977 177.541Z" fill="white"/>
<path d="M211.635 107.126H44.3699C44.3699 62.4637 89.4259 31.0986 128 31.0986C166.574 31.0986 211.635 62.4637 211.635 107.126Z" fill="#FFC727"/>
<g opacity="0.5">
<path d="M71.3318 65.2339C85.4323 56.3558 102.605 53.0124 119.112 53.6575C102.697 55.1628 86.3743 58.2655 71.3318 65.2339Z" fill="white"/>
<path d="M51.3689 81.9204C54.5945 75.4743 61.2095 70.1444 67.7529 67.3232C67.0668 67.9684 66.3449 68.5367 65.6435 69.1357C60.6975 73.2317 55.8335 77.3277 51.3638 81.9357L51.3689 81.9204Z" fill="white"/>
</g>
<g opacity="0.5">
<path d="M97.7253 47.4413C97.7253 48.2861 96.5785 48.9773 95.1653 48.9773C93.7522 48.9773 92.6053 48.2963 92.6053 47.4413C92.6053 46.5862 93.7573 45.9053 95.1653 45.9053C96.5733 45.9053 97.7253 46.5914 97.7253 47.4413Z" fill="white"/>
<path d="M112.937 42.5571C113.096 44.7023 110.295 46.6531 106.68 46.9244C103.065 47.1958 100.009 45.67 99.8399 43.5196C99.6709 41.3692 102.482 39.4236 106.097 39.1523C109.711 38.8809 112.778 40.4118 112.937 42.5571Z" fill="white"/>
</g>
<path opacity="0.1" d="M211.635 107.125H44.3699C48.4659 65.9555 102.968 55.4902 128 55.4902C153.032 55.4902 207.508 65.9555 211.635 107.125Z" fill="black"/>
<path d="M203.162 107.126V180.885C183.112 193.603 161.587 199.962 128 199.962C94.4128 199.962 72.8883 193.603 52.8333 180.885V107.126H203.162Z" fill="#FFC727"/>
<path opacity="0.1" d="M203.162 134.655V180.894C183.107 193.612 161.587 199.971 127.995 199.971C94.4025 199.971 72.8883 193.612 52.8333 180.894V150.435C52.9357 150.317 52.9971 150.256 52.9971 150.256C52.9971 150.256 57.6051 174.776 60.6003 177.904C66.5293 184.079 95.232 197.529 125.389 197.529C167.936 197.529 187.264 184.98 195.579 178.38C201.989 173.286 203.023 146.564 203.162 134.655Z" fill="black"/>
<path d="M193.618 86.7991C181.33 64.2352 144.282 59.832 127.995 59.832C111.708 59.832 74.6649 64.2352 62.3718 86.7991C50.0787 109.363 53.2019 160.891 66.9798 172.446C80.7578 184.002 113.285 187.12 128 187.12C142.715 187.12 175.283 184.002 189.041 172.446C202.798 160.891 205.906 109.353 193.618 86.7991ZM128 181.314C67.2768 181.314 56.9139 153.39 56.9139 131.42C56.9139 109.45 64.1331 94.0131 75.2537 86.2461C88.3661 77.0915 109.558 84.7101 127.99 84.7101C146.422 84.7101 167.624 77.0864 180.726 86.2461C191.846 94.0131 199.066 109.46 199.066 131.42C199.066 153.38 188.723 181.314 128 181.314Z" fill="#FFC727"/>
<path opacity="0.3" d="M193.618 86.7991C181.33 64.2352 144.282 59.832 127.995 59.832C111.708 59.832 74.6598 64.2352 62.3769 86.7991C50.0941 109.363 53.2019 160.891 66.9849 172.446C80.768 184.002 113.285 187.125 128 187.125C142.715 187.125 175.283 184.002 189.041 172.446C202.798 160.891 205.911 109.358 193.618 86.7991ZM128 181.314C67.2768 181.314 56.9139 153.39 56.9139 131.425C56.9139 109.46 64.1331 94.0131 75.2537 86.2461C88.3712 77.0916 109.558 84.7101 127.99 84.7101C146.422 84.7101 167.624 77.0864 180.726 86.2461C191.846 94.0131 199.066 109.46 199.066 131.425C199.066 153.39 188.723 181.314 128 181.314Z" fill="black"/>
<path opacity="0.1" d="M189.035 172.446C179.63 180.341 161.444 184.304 146.171 186.014C182.825 178.626 170.921 174.689 170.486 174.546C194.038 164.915 199.091 146.724 199.091 131.42C199.091 109.46 191.872 94.0132 180.751 86.2461C167.634 77.0916 146.447 84.7101 128.015 84.7101C125.727 84.7101 123.407 84.5975 121.037 84.4029C135.398 84.7562 162.022 79.9946 162.022 74.6032C162.022 69.2119 148.086 62.5764 134.344 60.0215C152.443 61.0455 182.753 66.8106 193.633 86.794C205.906 109.353 202.793 160.891 189.035 172.446Z" fill="black"/>
<g opacity="0.5">
<path d="M74.5471 81.3769C74.6547 82.0169 73.8662 82.6876 72.7859 82.877C71.7055 83.0665 70.7379 82.6876 70.6252 82.0476C70.5126 81.4076 71.3011 80.7318 72.3865 80.5474C73.4719 80.3631 74.4345 80.7318 74.5471 81.3769Z" fill="white"/>
<path d="M85.5039 75.6583C85.9033 77.2762 84.0242 79.1347 81.3004 79.8106C78.5765 80.4864 76.0421 79.7235 75.6377 78.1056C75.2332 76.4877 77.1225 74.6291 79.8463 73.9533C82.5701 73.2775 85.1199 74.0403 85.5039 75.6583Z" fill="white"/>
</g>
<path d="M199.091 131.425C199.091 153.39 188.723 181.315 128 181.315C67.2767 181.315 56.9138 153.39 56.9138 131.425C56.9138 109.461 64.133 94.0136 75.2537 86.2466C88.3711 77.092 109.558 84.7106 127.99 84.7106C146.422 84.7106 167.624 77.0869 180.726 86.2466C191.872 94.0136 199.091 109.461 199.091 131.425Z" fill="#263238"/>
<path d="M198.753 138.035C198.717 138.388 198.676 138.746 198.63 139.1C197.407 148.894 193.439 159.067 183.618 166.968C177.649 171.775 169.518 175.743 158.53 178.278C150.919 179.954 143.168 180.92 135.378 181.165C133.009 181.264 130.553 181.314 128.01 181.314C125.078 181.314 122.262 181.249 119.562 181.119H119.204H119.147C118.881 180.669 118.635 180.218 118.364 179.757C117.444 178.079 116.63 176.345 115.927 174.566C115.65 173.864 115.415 173.158 115.149 172.451C115.067 172.226 114.995 172.001 114.923 171.775C114.852 171.55 114.78 171.325 114.713 171.094C114.575 170.639 114.442 170.183 114.324 169.732C114.273 169.564 114.232 169.4 114.191 169.22C114.053 168.708 113.93 168.196 113.817 167.654L113.679 167.004C113.674 166.98 113.674 166.955 113.679 166.932C113.602 166.553 113.531 166.174 113.464 165.79C113.398 165.406 113.331 165.027 113.28 164.638C113.275 164.611 113.275 164.583 113.28 164.556C113.234 164.29 113.203 164.044 113.172 163.768C113.142 163.491 113.106 163.215 113.07 162.938C112.978 162.078 112.901 161.208 112.86 160.347C112.86 160.004 112.829 159.656 112.819 159.324V158.745C112.819 158.499 112.819 158.233 112.819 157.992C112.819 157.629 112.819 157.265 112.819 156.907C112.819 156.646 112.819 156.395 112.845 156.129C112.845 155.996 112.845 155.868 112.845 155.74C112.875 155.12 112.916 154.506 112.978 153.891L113.024 153.379C113.055 153.072 113.096 152.77 113.131 152.468C113.167 152.166 113.224 151.741 113.28 151.372C113.382 150.645 113.51 149.918 113.654 149.191C114.924 142.736 117.585 136.634 121.452 131.312C125.319 125.989 130.3 121.573 136.047 118.37C141.794 115.168 148.17 113.256 154.731 112.768C161.292 112.279 167.881 113.226 174.039 115.542L175.063 115.937C175.268 116.013 175.462 116.1 175.657 116.188C175.851 116.275 176.113 116.372 176.338 116.469L176.63 116.602C176.968 116.751 177.295 116.904 177.623 117.063C177.654 117.072 177.683 117.086 177.71 117.104C177.971 117.227 178.222 117.35 178.483 117.483L178.995 117.739C179.338 117.918 179.676 118.102 180.019 118.287C180.362 118.471 180.756 118.696 181.115 118.911C181.161 118.911 181.207 118.963 181.253 118.988L182.277 119.623L183.383 120.345L183.895 120.683C184.97 121.42 186.009 122.219 187.023 123.048C187.218 123.207 187.407 123.371 187.597 123.535C187.786 123.699 187.986 123.868 188.17 124.047C188.354 124.226 188.554 124.38 188.738 124.559L188.815 124.63C192.425 127.958 195.468 131.85 197.826 136.156C198.113 136.77 198.441 137.4 198.753 138.035Z" fill="#DBDBDB"/>
<path d="M115.907 174.551C117.955 172.421 122.158 168.479 129.29 164.628C137.923 159.964 161.92 153.692 172.723 147.092C187.924 137.82 189.204 129.05 188.759 124.61C184.47 120.667 179.459 117.588 174.003 115.543C173.245 120.202 170.148 134.784 144.579 146.191C131.379 152.064 118.118 149.919 113.618 149.192C111.925 157.689 112.72 166.494 115.907 174.551Z" fill="#C7C7C7"/>
<path d="M119.429 181.073L119.552 181.119H119.194C119.265 181.119 119.347 181.119 119.424 181.089L119.429 181.073Z" fill="#C7C7C7"/>
<path d="M198.656 139.1C197.432 148.894 193.464 159.068 183.644 166.968C179.777 167.779 176.01 169.01 172.411 170.639C167.601 172.827 162.966 175.381 158.546 178.278C150.934 179.954 143.183 180.92 135.393 181.166C139.489 180.008 144.333 177.919 149.893 174.412C155.453 170.905 161.705 165.99 168.724 159.175C186.03 142.335 195.185 139.484 198.656 139.1Z" fill="#C7C7C7"/>
<path d="M160.21 131.753C161.178 133.519 164.04 133.801 166.605 132.398C169.17 130.995 170.465 128.42 169.498 126.654C168.53 124.887 165.663 124.606 163.098 126.014C160.532 127.422 159.232 129.992 160.21 131.753Z" fill="#A6A6A6"/>
<path d="M173.271 133.801C173.814 134.794 175.503 134.917 177.044 134.072C178.586 133.227 179.389 131.732 178.842 130.739C178.294 129.746 176.604 129.628 175.068 130.473C173.532 131.318 172.723 132.808 173.271 133.801Z" fill="#A6A6A6"/>
<path d="M103.081 167.526L105.231 167.925L105.713 170.188L106.194 167.925L108.339 167.526L106.199 167.003L105.713 164.863L105.221 167.003L103.081 167.526Z" fill="white"/>
<path d="M84.6028 159.652L85.806 159.877L86.0722 161.142L86.3436 159.877L87.5417 159.652L86.3487 159.36L86.0722 158.167L85.8009 159.36L84.6028 159.652Z" fill="white"/>
<path d="M137.083 98.1039L138.281 98.3292L138.552 99.5939L138.818 98.3292L140.022 98.1039L138.824 97.8121L138.552 96.6191L138.276 97.8121L137.083 98.1039Z" fill="white"/>
<path d="M191.754 125.066L192.957 125.286L193.224 126.556L193.49 125.286L194.693 125.066L193.495 124.774L193.224 123.576L192.952 124.774L191.754 125.066Z" fill="white"/>
<path d="M159.887 103.393C159.98 103.393 160.068 103.429 160.134 103.495C160.199 103.56 160.235 103.648 160.235 103.741C160.235 103.833 160.199 103.922 160.134 103.987C160.068 104.052 159.98 104.089 159.887 104.089C159.795 104.089 159.706 104.052 159.641 103.987C159.576 103.922 159.539 103.833 159.539 103.741C159.539 103.648 159.576 103.56 159.641 103.495C159.706 103.429 159.795 103.393 159.887 103.393Z" fill="white"/>
<path d="M101.038 99.0566C101.106 99.0566 101.171 99.0836 101.219 99.1316C101.267 99.1796 101.294 99.2447 101.294 99.3126C101.294 99.3805 101.267 99.4456 101.219 99.4937C101.171 99.5417 101.106 99.5686 101.038 99.5686C100.97 99.5686 100.905 99.5417 100.857 99.4937C100.809 99.4456 100.782 99.3805 100.782 99.3126C100.782 99.2447 100.809 99.1796 100.857 99.1316C100.905 99.0836 100.97 99.0566 101.038 99.0566Z" fill="white"/>
<path d="M124.349 106.203L126.495 106.598L126.976 108.866L127.457 106.598L129.602 106.203L127.467 105.676L126.976 103.541L126.484 105.676L124.349 106.203Z" fill="white"/>
<path d="M178.176 116.295L180.326 116.689L180.802 118.958L181.284 116.689L183.434 116.29L181.294 115.768L180.802 113.633L180.316 115.768L178.176 116.295Z" fill="white"/>
<path d="M68.2393 128.24L69.4425 128.46L69.7087 129.725L69.9749 128.46L71.1781 128.235L69.9801 127.943L69.7087 126.75L69.4373 127.943L68.2393 128.24Z" fill="white"/>
<path d="M82.857 116.106C82.9493 116.106 83.0378 116.143 83.1031 116.208C83.1684 116.274 83.2051 116.362 83.2051 116.455C83.2051 116.547 83.1684 116.635 83.1031 116.701C83.0378 116.766 82.9493 116.803 82.857 116.803C82.7646 116.803 82.6761 116.766 82.6108 116.701C82.5455 116.635 82.5088 116.547 82.5088 116.455C82.5088 116.362 82.5455 116.274 82.6108 116.208C82.6761 116.143 82.7646 116.106 82.857 116.106Z" fill="white"/>
<path d="M60.7999 115.758C60.8923 115.758 60.9808 115.794 61.0461 115.86C61.1114 115.925 61.1481 116.014 61.1481 116.106C61.1481 116.198 61.1114 116.287 61.0461 116.352C60.9808 116.417 60.8923 116.454 60.7999 116.454C60.7076 116.454 60.619 116.417 60.5538 116.352C60.4885 116.287 60.4518 116.198 60.4518 116.106C60.4518 116.014 60.4885 115.925 60.5538 115.86C60.619 115.794 60.7076 115.758 60.7999 115.758Z" fill="white"/>
<path d="M84.9407 88.3096C85.033 88.3096 85.1216 88.3463 85.1869 88.4115C85.2522 88.4768 85.2888 88.5654 85.2888 88.6577C85.2888 88.7501 85.2522 88.8386 85.1869 88.9039C85.1216 88.9692 85.033 89.0059 84.9407 89.0059C84.8483 89.0059 84.7598 88.9692 84.6945 88.9039C84.6292 88.8386 84.5925 88.7501 84.5925 88.6577C84.5925 88.5654 84.6292 88.4768 84.6945 88.4115C84.7598 88.3463 84.8483 88.3096 84.9407 88.3096Z" fill="white"/>
<path d="M178.847 95.9482C179.014 95.9629 179.169 96.0396 179.283 96.1633C179.396 96.287 179.459 96.4487 179.459 96.6164C179.459 96.7842 179.396 96.9458 179.283 97.0695C179.169 97.1932 179.014 97.2699 178.847 97.2846C178.68 97.2699 178.524 97.1932 178.411 97.0695C178.297 96.9458 178.234 96.7842 178.234 96.6164C178.234 96.4487 178.297 96.287 178.411 96.1633C178.524 96.0396 178.68 95.9629 178.847 95.9482Z" fill="white"/>
<path d="M86.0723 152.698C86.2394 152.713 86.3949 152.79 86.5082 152.913C86.6216 153.037 86.6844 153.199 86.6844 153.366C86.6844 153.534 86.6216 153.696 86.5082 153.82C86.3949 153.943 86.2394 154.02 86.0723 154.035C85.9051 154.02 85.7496 153.943 85.6363 153.82C85.5229 153.696 85.4601 153.534 85.4601 153.366C85.4601 153.199 85.5229 153.037 85.6363 152.913C85.7496 152.79 85.9051 152.713 86.0723 152.698Z" fill="white"/>
<path d="M110.433 87.5212L111.631 87.7413L111.903 89.006L112.169 87.7413L113.372 87.5212L112.174 87.2293L111.903 86.0312L111.626 87.2293L110.433 87.5212Z" fill="white"/>
<path d="M110.433 139.356L111.631 139.581L111.903 140.846L112.169 139.581L113.372 139.356L112.174 139.064L111.903 137.871L111.626 139.064L110.433 139.356Z" fill="white"/>
<path d="M75.4893 146.288C75.5816 146.288 75.6702 146.325 75.7355 146.39C75.8008 146.455 75.8374 146.544 75.8374 146.636C75.8374 146.729 75.8008 146.817 75.7355 146.882C75.6702 146.948 75.5816 146.984 75.4893 146.984C75.3969 146.984 75.3084 146.948 75.2431 146.882C75.1778 146.817 75.1411 146.729 75.1411 146.636C75.1411 146.544 75.1778 146.455 75.2431 146.39C75.3084 146.325 75.3969 146.288 75.4893 146.288Z" fill="white"/>
<path d="M116.301 118.513C116.369 118.513 116.434 118.54 116.482 118.588C116.53 118.636 116.557 118.701 116.557 118.769C116.557 118.837 116.53 118.902 116.482 118.95C116.434 118.998 116.369 119.025 116.301 119.025C116.233 119.025 116.168 118.998 116.12 118.95C116.072 118.902 116.045 118.837 116.045 118.769C116.045 118.701 116.072 118.636 116.12 118.588C116.168 118.54 116.233 118.513 116.301 118.513Z" fill="white"/>
<g opacity="0.1">
<path d="M148.695 82.8672C121.974 109.215 92.9435 133.112 61.9519 154.271C58.1068 146.836 56.9395 138.798 56.9395 131.425C56.9395 129.493 56.9941 127.616 57.1033 125.793C75.9391 112.672 94.024 98.5053 111.273 83.3587C116.905 84.0601 122.583 84.7206 128.026 84.7206C134.712 84.7155 141.783 83.7069 148.695 82.8672Z" fill="white"/>
<path d="M192.538 156.979C189.363 162.069 184.791 166.779 178.294 170.675C183.134 166.153 187.882 161.587 192.538 156.979Z" fill="white"/>
<path d="M190.274 96.2561C162.451 126.539 131.802 154.098 98.7442 178.56C94.942 177.748 91.202 176.668 87.5519 175.329C122.731 150.047 155.258 121.263 184.632 89.4209C186.773 91.4716 188.666 93.7656 190.274 96.2561Z" fill="white"/>
<path d="M196.608 110.976C173.127 136.34 147.678 159.808 120.499 181.161C119.675 181.125 118.861 181.089 118.052 181.043C145.98 159.262 172.092 135.249 196.132 109.24C196.311 109.809 196.475 110.387 196.608 110.976Z" fill="white"/>
<path d="M156.641 82.0273C128.494 110.483 97.6963 136.188 64.6656 158.792C64.3584 158.356 64.0614 157.916 63.7849 157.476C96.2486 135.285 126.557 110.095 154.312 82.2373C155.095 82.1553 155.868 82.0888 156.641 82.0273Z" fill="white"/>
</g>
<path d="M52.8332 107.126H45.957V141.179H52.8332V107.126Z" fill="#FFC727"/>
<path opacity="0.1" d="M47.7952 107.126H52.8384V141.179H50.9132L47.7952 107.126Z" fill="black"/>
<path d="M45.957 148.224H40.9138V167.9H45.957V148.224Z" fill="#FFC727"/>
<path opacity="0.1" d="M42.2604 148.224H45.957V167.905H44.5439L42.2604 148.224Z" fill="black"/>
<path d="M45.9571 107.126H40.1818V141.179H45.9571V107.126Z" fill="#FFC727"/>
<path opacity="0.1" d="M45.9571 141.179H44.3647L42.3833 107.126H45.9571V141.179Z" fill="black"/>
<path d="M52.8332 141.174H45.957V174.95H52.8332V141.174Z" fill="#37474F"/>
<path opacity="0.1" d="M52.8383 174.955H50.9388L48.5785 141.179H52.8383V174.955Z" fill="black"/>
<path d="M40.0127 120.319H40.1817V137.466H40.0127C39.4261 137.466 38.8635 137.233 38.4487 136.818C38.0339 136.404 37.8009 135.841 37.8009 135.254V122.526C37.8023 121.94 38.0359 121.379 38.4505 120.965C38.8652 120.552 39.427 120.319 40.0127 120.319Z" fill="#FFC727"/>
<path opacity="0.1" d="M40.1818 120.319V137.466C40.0094 137.47 39.8373 137.451 39.6698 137.41L39.0144 120.622C39.3702 120.42 39.7729 120.316 40.1818 120.319Z" fill="black"/>
<path d="M39.767 154.035H40.9139V162.094H39.767C39.5088 162.094 39.2531 162.043 39.0146 161.944C38.7761 161.846 38.5593 161.701 38.3768 161.518C38.1942 161.336 38.0494 161.119 37.9506 160.88C37.8518 160.642 37.8009 160.386 37.8009 160.128V156.006C37.8002 155.748 37.8506 155.492 37.9491 155.252C38.0476 155.013 38.1923 154.796 38.3749 154.613C38.5576 154.43 38.7745 154.284 39.0134 154.185C39.2523 154.086 39.5084 154.035 39.767 154.035Z" fill="#455A64"/>
<path d="M203.167 141.174H210.043V107.121H203.167V141.174Z" fill="#FFC727"/>
<path opacity="0.1" d="M208.205 107.126H203.161V141.179H205.087L208.205 107.126Z" fill="black"/>
<path d="M210.038 167.905H215.081V148.229H210.038V167.905Z" fill="#FFC727"/>
<path opacity="0.1" d="M213.739 148.224H210.043V167.905H211.456L213.739 148.224Z" fill="black"/>
<path d="M210.043 141.174H215.818V107.121H210.043V141.174Z" fill="#FFC727"/>
<path opacity="0.1" d="M210.043 141.179H211.635L213.617 107.126H210.043V141.179Z" fill="black"/>
<path d="M203.167 174.955H210.043V141.178H203.167V174.955Z" fill="#37474F"/>
<path opacity="0.1" d="M203.161 174.955H205.061L207.421 141.179H203.161V174.955Z" fill="black"/>
<path d="M215.992 137.457H215.823V120.31H215.992C216.579 120.31 217.141 120.543 217.556 120.958C217.971 121.373 218.204 121.935 218.204 122.522V135.25C218.204 135.837 217.971 136.399 217.556 136.814C217.141 137.229 216.579 137.462 215.992 137.462V137.457Z" fill="#FFC727"/>
<path opacity="0.1" d="M215.818 120.319V137.466C215.991 137.47 216.163 137.451 216.33 137.41L217.001 120.627C216.641 120.421 216.233 120.315 215.818 120.319Z" fill="black"/>
<path d="M216.233 162.094H215.086V154.035H216.233C216.754 154.035 217.254 154.242 217.623 154.611C217.992 154.979 218.199 155.48 218.199 156.001V160.123C218.2 160.381 218.149 160.637 218.051 160.877C217.952 161.116 217.808 161.333 217.625 161.516C217.442 161.699 217.225 161.844 216.986 161.944C216.748 162.043 216.492 162.094 216.233 162.094Z" fill="#455A64"/>
</svg>
