<svg width="160" height="160" viewBox="0 0 160 160" fill="none" xmlns="http://www.w3.org/2000/svg">
<path d="M158.489 77.5601C158.552 77.4829 158.607 77.4017 158.666 77.3226C158.737 77.2276 158.811 77.1348 158.877 77.0361C158.94 76.9414 158.995 76.843 159.053 76.7455C159.107 76.6561 159.163 76.5689 159.212 76.4767C159.265 76.3774 159.31 76.2752 159.358 76.1739C159.403 76.078 159.451 75.9836 159.492 75.8855C159.532 75.7871 159.565 75.6868 159.601 75.5868C159.639 75.4815 159.679 75.3774 159.712 75.2696C159.742 75.1696 159.764 75.068 159.79 74.9671C159.818 74.8574 159.848 74.749 159.87 74.6371C159.893 74.5199 159.907 74.4018 159.924 74.284C159.938 74.1868 159.957 74.0909 159.966 73.9925C160.009 73.555 160.009 73.1141 159.966 72.6766C159.957 72.5781 159.938 72.4825 159.924 72.3853C159.907 72.2672 159.893 72.1491 159.87 72.0322C159.848 71.9204 159.817 71.8122 159.789 71.7026C159.764 71.6013 159.742 71.4997 159.712 71.3998C159.679 71.2923 159.639 71.1882 159.601 71.0832C159.565 70.9832 159.532 70.8826 159.492 70.7842C159.451 70.686 159.403 70.5917 159.358 70.496C159.31 70.3945 159.265 70.2923 159.212 70.1929C159.163 70.1011 159.107 70.0139 159.054 69.9245C158.995 69.827 158.94 69.7286 158.877 69.6336C158.811 69.5351 158.738 69.4423 158.667 69.3476C158.607 69.2683 158.552 69.1867 158.489 69.1095C158.35 68.9411 158.204 68.7789 158.05 68.6249C158.049 68.6236 158.048 68.6224 158.047 68.6211L138.048 48.6219C135.444 46.0186 131.223 46.0186 128.62 48.6219C126.017 51.2253 126.017 55.4463 128.62 58.0497L137.239 66.6687H100.002C96.3201 66.6687 93.3356 69.6533 93.3356 73.335C93.3356 77.0167 96.3201 80.0013 100.002 80.0013H137.239L128.62 88.6203C126.016 91.2236 126.016 95.4447 128.62 98.048C131.223 100.651 135.444 100.651 138.047 98.048L158.047 78.0489C158.048 78.0476 158.049 78.0464 158.05 78.0451C158.204 77.8907 158.35 77.7289 158.489 77.5601Z" fill="white"/>
<path d="M113.335 93.3313C109.653 93.3313 106.669 96.3158 106.669 99.9976V133.33H80.0031V26.6699V26.6674C80.0031 23.7235 78.0719 21.128 75.2523 20.2821L52.0939 13.3345H106.669V46.6666C106.669 50.3483 109.653 53.3329 113.335 53.3329C117.017 53.3329 120.001 50.3483 120.001 46.6666V6.66825C120.001 2.98653 117.017 0.00196069 113.335 0.00196069H6.67265C6.67202 0.00196069 6.6714 0.00196069 6.67077 0.00196069C6.47359 0.00164821 6.27829 0.0110228 6.08455 0.0278971C3.02655 0.258513 1.03319 2.26999 0.308845 4.67146C0.262285 4.82083 0.221661 4.97332 0.185413 5.12769C0.181663 5.14425 0.178538 5.16112 0.174788 5.178C0.138852 5.33674 0.108853 5.49799 0.084167 5.66142C0.0807296 5.68454 0.0769798 5.70735 0.0735424 5.73048C0.0526058 5.87953 0.036044 6.03046 0.0251069 6.18327C0.0057327 6.42951 -0.000204553 6.67638 0.00604519 6.92324V139.999C0.00604519 143.176 2.24908 145.913 5.3652 146.536L72.029 159.869C76.1542 160.694 80.0028 157.538 80.0028 153.332V146.663H113.335C117.017 146.663 120.001 143.678 120.001 139.996V99.9979C120.001 96.3158 117.017 93.3313 113.335 93.3313ZM66.6702 145.2L13.3389 134.534V15.6307L66.6702 31.63V139.996V145.2Z" fill="white"/>
</svg>
